<?xml version="1.0" encoding="UTF-8"?>
<svg version="1.1" xmlns="http://www.w3.org/2000/svg" width="512" height="512">
<path d="M0 0 C0.85632157 -0.00706559 1.71264313 -0.01413118 2.59491384 -0.02141088 C3.53604705 -0.0189958 4.47718026 -0.01658071 5.44683266 -0.01409245 C6.44633843 -0.01932912 7.4458442 -0.0245658 8.47563803 -0.02996117 C11.84047601 -0.04501898 15.2051627 -0.04566759 18.57003212 -0.04633427 C20.97612708 -0.05395183 23.38221959 -0.06237862 25.7883091 -0.07155704 C32.33578165 -0.09354789 38.8832182 -0.10232852 45.4307189 -0.10738349 C49.51818354 -0.1106392 53.60563876 -0.11716088 57.69309807 -0.12438488 C69.00806246 -0.1439514 80.32301809 -0.16035551 91.63800049 -0.16326141 C92.36220207 -0.16344898 93.08640366 -0.16363655 93.83255074 -0.16382981 C95.30070821 -0.16419606 96.76886569 -0.16455976 98.23702316 -0.16492092 C98.96582725 -0.16510373 99.69463134 -0.16528654 100.4455204 -0.16547489 C101.17521296 -0.16565544 101.90490553 -0.16583599 102.65670998 -0.16602201 C114.48373328 -0.16956462 126.31057461 -0.1965921 138.13753478 -0.23397278 C150.27738689 -0.27203569 162.41714867 -0.29141874 174.55706179 -0.29172093 C181.37433606 -0.29230593 188.19139322 -0.3008252 195.00861168 -0.32971859 C201.41901867 -0.3567627 207.82910858 -0.35815448 214.23955536 -0.34206295 C216.595026 -0.34024132 218.9505209 -0.34700301 221.30593872 -0.36288166 C224.51658646 -0.38320955 227.72570803 -0.37286764 230.93633461 -0.35466862 C232.34134226 -0.37446857 232.34134226 -0.37446857 233.7747339 -0.39466852 C238.2772886 -0.33619458 240.20459994 -0.2123838 243.87370682 2.61098289 C246.97108574 6.82989866 246.94492545 9.98518736 246.94999504 15.09809875 C246.95204767 15.80092778 246.95410031 16.5037568 246.95621514 17.22788367 C246.96190354 19.60077422 246.96042563 21.97360706 246.95900917 24.34650326 C246.96159177 26.05788313 246.96460463 27.7692624 246.96801257 29.48064083 C246.97609849 34.19761436 246.97787303 38.91457269 246.97861004 43.63155234 C246.98045788 48.7135421 246.98800393 53.79552393 246.99474525 58.87750912 C247.00834125 69.9974819 247.0143555 81.11745109 247.01875591 92.23743081 C247.02151667 99.17929584 247.02575376 106.12115948 247.03026009 113.06302357 C247.0424553 132.27779109 247.05275353 151.49255749 247.05613518 170.7073288 C247.05635474 171.93773409 247.05657431 173.16813939 247.05680053 174.4358297 C247.05701881 175.66920917 247.05723708 176.90258864 247.05746198 178.17334324 C247.05790545 180.67270855 247.05835201 183.17207386 247.05880165 185.67143917 C247.05902308 186.91121531 247.05924451 188.15099144 247.05947265 189.42833655 C247.06341984 209.51290465 247.08087033 229.59743644 247.10416117 249.68199051 C247.12787303 270.29582143 247.14033698 290.90963414 247.1415031 311.52347893 C247.14242005 323.09999055 247.14817723 334.67645491 247.16632271 346.25295353 C247.18172156 356.11206012 247.18684548 365.97110485 247.17858461 375.83022118 C247.17467712 380.86026438 247.17561254 385.89018297 247.18964195 390.92021084 C247.202375 395.52762353 247.20118851 400.13481792 247.18905124 404.74223029 C247.1870932 406.4065088 247.19017765 408.07080274 247.1988956 409.73505957 C247.25936589 422.06217211 246.74539497 432.88991576 237.81856728 442.26006222 C228.83893032 450.45886118 220.39260476 451.70490106 208.56856728 451.55303097 C207.3147123 451.54878613 206.06085732 451.54454128 204.76900673 451.54016781 C201.46120941 451.52628391 198.15386345 451.49940575 194.8462162 451.46605587 C191.46075354 451.43517796 188.07522439 451.42162492 184.68966103 451.40654659 C178.06578872 451.37356485 171.44221486 451.32343059 164.81856728 451.26006222 C164.83427773 452.17706905 164.84998817 453.09407589 164.8661747 454.03887081 C164.91773118 457.48684663 164.95512282 460.93440452 164.9833622 464.38262081 C164.99831911 465.86641111 165.01869222 467.35015821 165.04488564 468.83379269 C165.28662647 482.89268113 163.7753757 493.56446869 153.81856728 504.26006222 C145.51260291 510.67190836 137.73940263 512.56029551 127.44558144 512.52748775 C126.40212114 512.53201887 125.35866085 512.53654998 124.28358054 512.5412184 C120.78771077 512.55387685 117.2919965 512.55224107 113.79610634 512.55058956 C111.28930905 512.55657393 108.78251361 512.56337926 106.2757206 512.57094479 C100.17308541 512.58678576 94.07050716 512.59305363 87.96785334 512.59416954 C83.00526174 512.59512086 78.04268286 512.59923533 73.08009529 512.60557079 C58.99978708 512.62317958 44.91950933 512.63241034 30.83919004 512.63090985 C30.08053882 512.63082993 29.32188761 512.63075002 28.54024696 512.63066769 C27.40087506 512.63054504 27.40087506 512.63054504 26.23848554 512.63041992 C13.93330364 512.62960733 1.62824422 512.6487392 -10.67690226 512.67694442 C-23.32198799 512.70569929 -35.96701403 512.71948326 -48.61213326 512.71775687 C-55.70726397 512.71709382 -62.80226629 512.72254851 -69.89736748 512.74411297 C-76.57212275 512.76427031 -83.24656238 512.76362452 -89.92134666 512.7490797 C-92.36824248 512.74698958 -94.81515521 512.75170455 -97.26202202 512.76380062 C-100.60850273 512.77926961 -103.95405122 512.76993293 -107.30051231 512.75453854 C-108.26337394 512.76482566 -109.22623558 512.77511279 -110.21827483 512.78571165 C-119.38810218 512.69282169 -128.45714711 509.7153764 -135.18143272 503.26006222 C-145.02907923 491.95881301 -145.62696974 479.79227015 -145.56911278 465.45955563 C-145.57329106 463.76815529 -145.57877128 462.07675775 -145.58543259 460.38536537 C-145.59984109 455.76061454 -145.59565689 451.13604263 -145.58826578 446.51128221 C-145.58352501 441.51457167 -145.59605199 436.51789933 -145.60628319 431.52120113 C-145.6234587 421.74120806 -145.62431378 411.96127927 -145.61907028 402.18127503 C-145.61502503 394.23017357 -145.61647636 386.27909108 -145.62181854 378.32799053 C-145.62256696 377.19533621 -145.62331539 376.06268189 -145.62408649 374.89570471 C-145.625618 372.59454609 -145.62715635 370.29338747 -145.62870146 367.99222885 C-145.64242198 346.42381097 -145.63699194 324.85542938 -145.62551624 303.28701232 C-145.61558433 283.56708568 -145.62852464 263.84725286 -145.65245043 244.12734069 C-145.67684899 223.86466755 -145.68644744 203.60203811 -145.67979771 183.33935058 C-145.67630718 171.96909378 -145.67852664 160.59890913 -145.69604874 149.22866344 C-145.71078013 139.54950736 -145.71139383 129.87047425 -145.69397783 120.19132055 C-145.68547325 115.25600717 -145.6833051 110.32091339 -145.69862938 105.38561153 C-145.71250246 100.86155943 -145.70767971 96.3379145 -145.68839014 91.81388579 C-145.68463786 90.18344344 -145.6875297 88.55296826 -145.69800179 86.92255522 C-145.76952053 74.9281745 -144.99264566 62.58173081 -136.94315147 52.97099972 C-128.36030081 44.6355483 -119.04015186 41.79107219 -107.3591671 41.91948605 C-106.30461327 41.91904797 -105.25005943 41.91860989 -104.16354942 41.91815853 C-100.7005679 41.92023764 -97.238079 41.94352775 -93.77518272 41.96709347 C-91.36523261 41.97269253 -88.95527908 41.97696116 -86.54532433 41.97995663 C-80.21925908 41.9913809 -73.89340226 42.02082751 -67.56741905 42.05406857 C-61.10545229 42.08482147 -54.64345166 42.09847313 -48.18143272 42.11357784 C-35.51467742 42.14569933 -22.84806619 42.19628544 -10.18143272 42.26006222 C-10.2049984 40.76225216 -10.2049984 40.76225216 -10.22904015 39.23418331 C-10.28355892 35.51063335 -10.31786207 31.78711832 -10.34622765 28.06328487 C-10.36126449 26.45515149 -10.38169944 24.84705878 -10.40775108 23.23906612 C-10.44436094 20.92044158 -10.46120994 18.60236173 -10.47440147 16.28349972 C-10.48988533 15.57075893 -10.50536919 14.85801815 -10.52132225 14.12367916 C-10.52288837 9.42203715 -9.70687935 6.22941272 -7.18143272 2.26006222 C-4.10167719 0.20689186 -3.47466784 0.00915557 0 0 Z " fill="#EEEBDE" transform="translate(205.18143272399902,-0.26006221771240234)"/>
<path d="M0 0 C0.85632157 -0.00706559 1.71264313 -0.01413118 2.59491384 -0.02141088 C3.53604705 -0.0189958 4.47718026 -0.01658071 5.44683266 -0.01409245 C6.44633843 -0.01932912 7.4458442 -0.0245658 8.47563803 -0.02996117 C11.84047601 -0.04501898 15.2051627 -0.04566759 18.57003212 -0.04633427 C20.97612708 -0.05395183 23.38221959 -0.06237862 25.7883091 -0.07155704 C32.33578165 -0.09354789 38.8832182 -0.10232852 45.4307189 -0.10738349 C49.51818354 -0.1106392 53.60563876 -0.11716088 57.69309807 -0.12438488 C69.00806246 -0.1439514 80.32301809 -0.16035551 91.63800049 -0.16326141 C92.36220207 -0.16344898 93.08640366 -0.16363655 93.83255074 -0.16382981 C95.30070821 -0.16419606 96.76886569 -0.16455976 98.23702316 -0.16492092 C98.96582725 -0.16510373 99.69463134 -0.16528654 100.4455204 -0.16547489 C101.17521296 -0.16565544 101.90490553 -0.16583599 102.65670998 -0.16602201 C114.48373328 -0.16956462 126.31057461 -0.1965921 138.13753478 -0.23397278 C150.27738689 -0.27203569 162.41714867 -0.29141874 174.55706179 -0.29172093 C181.37433606 -0.29230593 188.19139322 -0.3008252 195.00861168 -0.32971859 C201.41901867 -0.3567627 207.82910858 -0.35815448 214.23955536 -0.34206295 C216.595026 -0.34024132 218.9505209 -0.34700301 221.30593872 -0.36288166 C224.51658646 -0.38320955 227.72570803 -0.37286764 230.93633461 -0.35466862 C232.34134226 -0.37446857 232.34134226 -0.37446857 233.7747339 -0.39466852 C238.2772886 -0.33619458 240.20459994 -0.2123838 243.87370682 2.61098289 C259.3994036 23.75841388 246.81856728 55.02533146 246.81856728 81.26006222 C162.00856728 81.26006222 77.19856728 81.26006222 -10.18143272 81.26006222 C-10.18143272 135.71006222 -10.18143272 190.16006222 -10.18143272 246.26006222 C-28.00143272 246.59006222 -45.82143272 246.92006222 -64.18143272 247.26006222 C-69.95403571 250.39181908 -69.95403571 250.39181908 -71.18143272 253.26006222 C-71.28463488 255.50521592 -71.32098659 257.75351754 -71.32860374 260.00102901 C-71.33228043 260.70213676 -71.33595712 261.40324451 -71.33974522 262.12559795 C-71.35080258 264.48683294 -71.35462944 266.84802394 -71.35843468 269.20928097 C-71.36469803 270.89776405 -71.37134472 272.58624574 -71.3783474 274.27472591 C-71.39577473 278.87223493 -71.40631496 283.46973353 -71.41455293 288.06726742 C-71.41970189 290.94081967 -71.42577783 293.81436869 -71.43206406 296.68791866 C-71.4511253 305.68154733 -71.46535161 314.67516776 -71.47367603 323.66881275 C-71.48343764 334.04388217 -71.50972512 344.41873763 -71.55017692 354.79373169 C-71.58037583 362.81509517 -71.59514868 370.83639749 -71.59845704 378.8578167 C-71.6008042 383.64697344 -71.60972035 388.43590186 -71.63491821 393.22499752 C-71.6582685 397.73615003 -71.6624043 402.24692507 -71.65215683 406.75812244 C-71.65166296 408.40842033 -71.65793915 410.05873722 -71.67171288 411.7089777 C-71.76592211 423.67183218 -70.72145786 433.41006779 -62.18143272 442.50224972 C-54.95289341 448.8554581 -48.03287817 450.4069979 -38.65207481 450.4182806 C-37.34837861 450.42568757 -37.34837861 450.42568757 -36.01834512 450.43324417 C-33.1010299 450.44862334 -30.1837367 450.45698095 -27.26639366 450.46538448 C-25.17715829 450.47496267 -23.08792486 450.48497272 -20.99869347 450.49538326 C-15.32143784 450.52244476 -9.64417389 450.54344762 -3.96688938 450.56338525 C1.96419546 450.58523709 7.89525462 450.61262971 13.82631874 450.63944149 C25.06011631 450.68937921 36.29392813 450.73431405 47.52775359 450.77746385 C60.3160118 450.826827 73.10424423 450.88174855 85.89247751 450.93714345 C112.20115005 451.05098006 138.50984732 451.15781546 164.81856728 451.26006222 C164.89350664 455.63421498 164.94753609 460.00801377 164.9833622 464.38262081 C164.99831911 465.86641111 165.01869222 467.35015821 165.04488564 468.83379269 C165.2860398 482.85856215 163.74269175 493.59957775 153.81856728 504.26006222 C145.51260291 510.67190836 137.73940263 512.56029551 127.44558144 512.52748775 C126.40212114 512.53201887 125.35866085 512.53654998 124.28358054 512.5412184 C120.78771077 512.55387685 117.2919965 512.55224107 113.79610634 512.55058956 C111.28930905 512.55657393 108.78251361 512.56337926 106.2757206 512.57094479 C100.17308541 512.58678576 94.07050716 512.59305363 87.96785334 512.59416954 C83.00526174 512.59512086 78.04268286 512.59923533 73.08009529 512.60557079 C58.99978708 512.62317958 44.91950933 512.63241034 30.83919004 512.63090985 C30.08053882 512.63082993 29.32188761 512.63075002 28.54024696 512.63066769 C27.40087506 512.63054504 27.40087506 512.63054504 26.23848554 512.63041992 C13.93330364 512.62960733 1.62824422 512.6487392 -10.67690226 512.67694442 C-23.32198799 512.70569929 -35.96701403 512.71948326 -48.61213326 512.71775687 C-55.70726397 512.71709382 -62.80226629 512.72254851 -69.89736748 512.74411297 C-76.57212275 512.76427031 -83.24656238 512.76362452 -89.92134666 512.7490797 C-92.36824248 512.74698958 -94.81515521 512.75170455 -97.26202202 512.76380062 C-100.60850273 512.77926961 -103.95405122 512.76993293 -107.30051231 512.75453854 C-108.26337394 512.76482566 -109.22623558 512.77511279 -110.21827483 512.78571165 C-119.38810218 512.69282169 -128.45714711 509.7153764 -135.18143272 503.26006222 C-145.02907923 491.95881301 -145.62696974 479.79227015 -145.56911278 465.45955563 C-145.57329106 463.76815529 -145.57877128 462.07675775 -145.58543259 460.38536537 C-145.59984109 455.76061454 -145.59565689 451.13604263 -145.58826578 446.51128221 C-145.58352501 441.51457167 -145.59605199 436.51789933 -145.60628319 431.52120113 C-145.6234587 421.74120806 -145.62431378 411.96127927 -145.61907028 402.18127503 C-145.61502503 394.23017357 -145.61647636 386.27909108 -145.62181854 378.32799053 C-145.62256696 377.19533621 -145.62331539 376.06268189 -145.62408649 374.89570471 C-145.625618 372.59454609 -145.62715635 370.29338747 -145.62870146 367.99222885 C-145.64242198 346.42381097 -145.63699194 324.85542938 -145.62551624 303.28701232 C-145.61558433 283.56708568 -145.62852464 263.84725286 -145.65245043 244.12734069 C-145.67684899 223.86466755 -145.68644744 203.60203811 -145.67979771 183.33935058 C-145.67630718 171.96909378 -145.67852664 160.59890913 -145.69604874 149.22866344 C-145.71078013 139.54950736 -145.71139383 129.87047425 -145.69397783 120.19132055 C-145.68547325 115.25600717 -145.6833051 110.32091339 -145.69862938 105.38561153 C-145.71250246 100.86155943 -145.70767971 96.3379145 -145.68839014 91.81388579 C-145.68463786 90.18344344 -145.6875297 88.55296826 -145.69800179 86.92255522 C-145.76952053 74.9281745 -144.99264566 62.58173081 -136.94315147 52.97099972 C-128.36030081 44.6355483 -119.04015186 41.79107219 -107.3591671 41.91948605 C-106.30461327 41.91904797 -105.25005943 41.91860989 -104.16354942 41.91815853 C-100.7005679 41.92023764 -97.238079 41.94352775 -93.77518272 41.96709347 C-91.36523261 41.97269253 -88.95527908 41.97696116 -86.54532433 41.97995663 C-80.21925908 41.9913809 -73.89340226 42.02082751 -67.56741905 42.05406857 C-61.10545229 42.08482147 -54.64345166 42.09847313 -48.18143272 42.11357784 C-35.51467742 42.14569933 -22.84806619 42.19628544 -10.18143272 42.26006222 C-10.2049984 40.76225216 -10.2049984 40.76225216 -10.22904015 39.23418331 C-10.28355892 35.51063335 -10.31786207 31.78711832 -10.34622765 28.06328487 C-10.36126449 26.45515149 -10.38169944 24.84705878 -10.40775108 23.23906612 C-10.44436094 20.92044158 -10.46120994 18.60236173 -10.47440147 16.28349972 C-10.48988533 15.57075893 -10.50536919 14.85801815 -10.52132225 14.12367916 C-10.52288837 9.42203715 -9.70687935 6.22941272 -7.18143272 2.26006222 C-4.10167719 0.20689186 -3.47466784 0.00915557 0 0 Z " fill="#DA7559" transform="translate(205.18143272399902,-0.26006221771240234)"/>
<path d="M0 0 C0.33 0 0.66 0 1 0 C1 94.38 1 188.76 1 286 C85.48 286 169.96 286 257 286 C257 351.5530474 257 351.5530474 248 361 C239.76805789 368.51612106 231.78505893 370.45207678 220.89297485 370.38768005 C219.79471953 370.39306559 218.6964642 370.39845113 217.56492841 370.40399987 C213.89554696 370.41827404 210.22652653 370.4111768 206.55712891 370.40405273 C203.92194991 370.40975659 201.28679657 370.4166206 198.65162659 370.42485046 C192.24311048 370.44201817 185.83469252 370.44288266 179.4261594 370.43763756 C174.21523198 370.43359063 169.00433349 370.43504562 163.79340744 370.44038582 C163.05080642 370.44113424 162.30820539 370.44188266 161.5431013 370.44265376 C160.03433788 370.4441853 158.52557447 370.44572364 157.01681106 370.44726873 C142.87800693 370.46098658 128.73925818 370.45556125 114.60045533 370.44408352 C101.67784483 370.43415317 88.75537755 370.44708961 75.83278914 370.47101771 C62.55030693 370.49542609 49.26789138 370.50501224 35.98538721 370.49836498 C28.53370968 370.49487646 21.08214225 370.4970805 13.63048172 370.51461601 C7.28666886 370.52935983 0.94304363 370.52994518 -5.40076564 370.5125451 C-8.63452169 370.5040502 -11.86787506 370.50402824 -15.10162544 370.51719666 C-18.61440064 370.53040725 -22.12627096 370.5188569 -25.63900757 370.50120544 C-26.65108729 370.51081045 -27.66316701 370.52041546 -28.70591581 370.53031152 C-39.59147091 370.41809215 -47.4393286 366.70100868 -55 359 C-63.30392154 350.47164815 -62.43764158 339.21942466 -62.40405273 328.17675781 C-62.40976208 326.47912651 -62.41672852 324.78149904 -62.42485046 323.08387756 C-62.44272741 318.49532235 -62.4416247 313.90695892 -62.43590808 309.3183794 C-62.43281058 305.48352368 -62.43891439 301.64870449 -62.44494683 297.81385398 C-62.45897031 288.76991447 -62.45744681 279.72606948 -62.44604492 270.68212891 C-62.43454489 261.354193 -62.44867591 252.02654397 -62.4754414 242.69864583 C-62.49758389 234.68144687 -62.50423967 226.66433807 -62.49836498 218.6471107 C-62.49499326 213.86215633 -62.49742574 209.0773862 -62.51461601 204.29245758 C-62.5300617 199.7976064 -62.52615624 195.30318188 -62.50731087 190.8083477 C-62.50361946 189.15918243 -62.50674953 187.50998569 -62.51719666 185.86084938 C-62.53037022 183.60955882 -62.5188937 181.35968873 -62.50120544 179.10845947 C-62.50099616 177.84899632 -62.50078688 176.58953316 -62.50057125 175.29190445 C-61.90323395 171.3636379 -60.81219549 169.76408915 -58 167 C-40.69746326 158.34873163 -19.34482417 165 0 165 C0 110.55 0 56.1 0 0 Z " fill="#ECE9DC" transform="translate(195,81)"/>
<path d="M0 0 C32.34 0 64.68 0 98 0 C98 55.11 98 110.22 98 167 C80.18 167.33 62.36 167.66 44 168 C38.22739701 171.13175686 38.22739701 171.13175686 37 174 C36.89679785 176.24515371 36.86044614 178.49345532 36.85282898 180.7409668 C36.84915229 181.44207455 36.8454756 182.1431823 36.8416875 182.86553574 C36.83063015 185.22677072 36.82680329 187.58796172 36.82299805 189.94921875 C36.81673469 191.63770183 36.81008801 193.32618352 36.80308533 195.0146637 C36.78565799 199.61217272 36.77511776 204.20967132 36.7668798 208.8072052 C36.76173083 211.68075745 36.7556549 214.55430647 36.74936867 217.42785645 C36.73030743 226.42148511 36.71608112 235.41510554 36.7077567 244.40875053 C36.69799508 254.78381995 36.67170761 265.15867541 36.63125581 275.53366947 C36.6010569 283.55503295 36.58628404 291.57633527 36.58297569 299.59775448 C36.58062853 304.38691122 36.57171238 309.17583965 36.54651451 313.9649353 C36.52316423 318.47608782 36.51902842 322.98686285 36.52927589 327.49806023 C36.52976976 329.14835811 36.52349357 330.798675 36.50971985 332.44891548 C36.41551061 344.41176996 37.45997487 354.15000557 46 363.2421875 C53.22853932 369.59539588 60.14855456 371.14693568 69.52935791 371.15821838 C70.83305411 371.16562535 70.83305411 371.16562535 72.16308761 371.17318195 C75.08040282 371.18856113 77.99769602 371.19691874 80.91503906 371.20532227 C83.00427444 371.21490046 85.09350787 371.2249105 87.18273926 371.23532104 C92.85999488 371.26238255 98.53725883 371.2833854 104.21454334 371.30332303 C110.14562819 371.32517488 116.07668734 371.35256749 122.00775146 371.37937927 C133.24154903 371.42931699 144.47536085 371.47425183 155.70918632 371.51740164 C168.49744452 371.56676478 181.28567695 371.62168634 194.07391024 371.67708123 C220.38258278 371.79091784 246.69128004 371.89775325 273 372 C273.02479481 376.46573511 273.04290486 380.9314333 273.05493164 385.3972168 C273.05994766 386.91512755 273.06676203 388.4330335 273.07543945 389.95092773 C273.08762497 392.13787016 273.09325572 394.32474846 273.09765625 396.51171875 C273.10551147 398.48338013 273.10551147 398.48338013 273.11352539 400.49487305 C273.01677552 403.48205125 272.70343764 406.10592611 272 409 C244.66164292 408.96281523 217.32341687 408.90292761 189.98517036 408.81609726 C177.29121822 408.77630727 164.59732807 408.74391451 151.90332031 408.72900391 C140.8377553 408.71598726 129.77232668 408.68902204 118.70683849 408.64538693 C112.84906552 408.62277267 106.99146079 408.60708932 101.13364029 408.60811615 C95.61619794 408.60886276 90.0991275 408.59091086 84.58178139 408.55883217 C82.56062708 408.5503376 80.53943103 408.54858021 78.51826668 408.55419731 C63.83000587 408.58956988 55.57209238 407.91893632 44 398 C29.48 397.67 14.96 397.34 0 397 C0 265.99 0 134.98 0 0 Z " fill="#A1412B" transform="translate(97,79)"/>
<path d="M0 0 C0.85632157 -0.00706559 1.71264313 -0.01413118 2.59491384 -0.02141088 C3.53604705 -0.0189958 4.47718026 -0.01658071 5.44683266 -0.01409245 C6.44633843 -0.01932912 7.4458442 -0.0245658 8.47563803 -0.02996117 C11.84047601 -0.04501898 15.2051627 -0.04566759 18.57003212 -0.04633427 C20.97612708 -0.05395183 23.38221959 -0.06237862 25.7883091 -0.07155704 C32.33578165 -0.09354789 38.8832182 -0.10232852 45.4307189 -0.10738349 C49.51818354 -0.1106392 53.60563876 -0.11716088 57.69309807 -0.12438488 C69.00806246 -0.1439514 80.32301809 -0.16035551 91.63800049 -0.16326141 C92.72430286 -0.16354277 92.72430286 -0.16354277 93.83255074 -0.16382981 C95.30070821 -0.16419606 96.76886569 -0.16455976 98.23702316 -0.16492092 C99.33022929 -0.16519514 99.33022929 -0.16519514 100.4455204 -0.16547489 C101.17521296 -0.16565544 101.90490553 -0.16583599 102.65670998 -0.16602201 C114.48373328 -0.16956462 126.31057461 -0.1965921 138.13753478 -0.23397278 C150.27738689 -0.27203569 162.41714867 -0.29141874 174.55706179 -0.29172093 C181.37433606 -0.29230593 188.19139322 -0.3008252 195.00861168 -0.32971859 C201.41901867 -0.3567627 207.82910858 -0.35815448 214.23955536 -0.34206295 C216.595026 -0.34024132 218.9505209 -0.34700301 221.30593872 -0.36288166 C224.51658646 -0.38320955 227.72570803 -0.37286764 230.93633461 -0.35466862 C232.34134226 -0.37446857 232.34134226 -0.37446857 233.7747339 -0.39466852 C238.2772886 -0.33619458 240.20459994 -0.2123838 243.87370682 2.61098289 C259.3994036 23.75841388 246.81856728 55.02533146 246.81856728 81.26006222 C162.00856728 81.26006222 77.19856728 81.26006222 -10.18143272 81.26006222 C-10.18143272 8.26006222 -10.18143272 8.26006222 -7.18143272 2.26006222 C-4.10167719 0.20689186 -3.47466784 0.00915557 0 0 Z " fill="#FEC751" transform="translate(205.18143272399902,-0.26006221771240234)"/>
<path d="M0 0 C1.05455383 -0.00043808 2.10910767 -0.00087616 3.19561768 -0.00132751 C6.6585992 0.0007516 10.1210881 0.02404171 13.58398438 0.04760742 C15.99393448 0.05320648 18.40388802 0.05747512 20.81384277 0.06047058 C27.13990802 0.07189485 33.46576484 0.10134146 39.79174805 0.13458252 C46.25371481 0.16533542 52.71571544 0.17898708 59.17773438 0.1940918 C71.84450709 0.22621333 84.51107075 0.27896174 97.17773438 0.34057617 C97.17773438 12.55057617 97.17773438 24.76057617 97.17773438 37.34057617 C64.83773437 37.34057617 32.49773437 37.34057617 -0.82226562 37.34057617 C-0.78746094 53.21280273 -0.75265625 69.0850293 -0.71679688 85.43823242 C-0.70147302 95.47794742 -0.68690748 105.51765397 -0.67578125 115.55737305 C-0.66989034 120.83072944 -0.66384632 126.10408558 -0.6574707 131.37744141 C-0.65667946 132.0383598 -0.65588821 132.69927819 -0.65507299 133.38022441 C-0.64283981 143.38387863 -0.62171128 153.38748466 -0.59594727 163.39111328 C-0.56605642 175.00263375 -0.54669333 186.61411574 -0.54000014 198.22567362 C-0.53608738 204.37455314 -0.5268839 210.52332257 -0.50507545 216.67216682 C-0.4847154 222.45952003 -0.47843092 228.24671777 -0.48294258 234.03410339 C-0.48211717 236.15813479 -0.47614876 238.28217137 -0.4646492 240.4061718 C-0.44971283 243.30723199 -0.4533164 246.20770601 -0.46150208 249.10877991 C-0.45276355 249.94828959 -0.44402503 250.78779927 -0.4350217 251.65274864 C-0.47952536 257.49230729 -1.34900574 262.45840399 -5.28710938 267.04760742 C-10.78938149 271.17796023 -14.33678824 272.86553441 -21.22070312 272.72338867 C-26.76793439 271.90712942 -30.49138302 268.73970916 -34.25976562 264.77807617 C-36.48876652 261.30083477 -36.94607724 258.31682709 -36.9564867 254.23467731 C-36.96094455 253.42063224 -36.96540239 252.60658717 -36.96999532 251.76787406 C-36.96981096 250.87907355 -36.96962659 249.99027304 -36.96943665 249.07453918 C-36.97311333 248.12600388 -36.97679002 247.17746857 -36.98057812 246.20018977 C-36.99161367 243.01366273 -36.99545859 239.82716829 -36.99926758 236.640625 C-37.0055323 234.35909929 -37.01217911 232.0775746 -37.0191803 229.79605103 C-37.0402211 222.29657705 -37.05058234 214.79710287 -37.06054688 207.29760742 C-37.06459435 204.71610694 -37.06871127 202.13460657 -37.07289696 199.55310631 C-37.08976522 188.81543239 -37.10440013 178.07776219 -37.1116457 167.3400774 C-37.1135555 164.55500601 -37.11547585 161.76993464 -37.11743164 158.98486328 C-37.11791538 158.29267284 -37.11839912 157.6004824 -37.11889752 156.88731649 C-37.12719565 145.67740961 -37.15253003 134.46760951 -37.18501232 123.25774924 C-37.2181093 111.74161578 -37.23576423 100.2255526 -37.23928994 88.70936984 C-37.24164103 82.24635381 -37.25060956 75.78350662 -37.27575111 69.32053566 C-37.29902575 63.23924411 -37.30326729 57.15823265 -37.29298973 51.07690811 C-37.29249413 48.84728374 -37.29882174 46.61764562 -37.31254578 44.38806343 C-37.33026175 41.33888463 -37.32315944 38.29071133 -37.31001282 35.24153137 C-37.32098206 34.36388447 -37.33195131 33.48623757 -37.34325296 32.58199531 C-37.25335883 23.91739815 -33.81176883 15.67972043 -27.82226562 9.34057617 C-19.15199329 2.2814464 -10.99352846 -0.12085637 0 0 Z " fill="#F6997B" transform="translate(97.822265625,41.659423828125)"/>
<path d="M0 0 C0.33 0 0.66 0 1 0 C1.06867673 43.39854842 1.12153418 86.79709109 1.15319599 130.19568314 C1.15694808 135.3200714 1.16083105 140.44445956 1.16479492 145.56884766 C1.16558185 146.5890148 1.16636878 147.60918195 1.16717956 148.66026326 C1.18023107 165.17549934 1.20388352 181.69070408 1.23145839 198.20592158 C1.25951967 215.15389389 1.27617779 232.10184979 1.28226548 249.04984438 C1.28638042 259.50642692 1.29937404 269.96292085 1.3237494 280.41947611 C1.33961549 287.59134551 1.34439837 294.76316915 1.34050413 301.93505482 C1.33858395 306.07194878 1.34151359 310.20868796 1.35761642 314.34555435 C1.37226682 318.13705939 1.37291925 321.92830625 1.36269668 325.71982343 C1.36083856 327.73255862 1.37373112 329.74529098 1.38724393 331.75798166 C1.33064339 343.23541243 -0.54728098 351.7899589 -8.25 360.5625 C-16.09608064 367.51698057 -23.91317698 370.58259354 -34.421875 370.30859375 C-44.29037281 369.12736447 -50.64043974 363.47738621 -57.3125 356.625 C-62.99024112 347.79295826 -62.43468032 338.24588219 -62.40405273 328.17675781 C-62.40976208 326.47912651 -62.41672852 324.78149904 -62.42485046 323.08387756 C-62.44272741 318.49532235 -62.4416247 313.90695892 -62.43590808 309.3183794 C-62.43281058 305.48352368 -62.43891439 301.64870449 -62.44494683 297.81385398 C-62.45897031 288.76991447 -62.45744681 279.72606948 -62.44604492 270.68212891 C-62.43454489 261.354193 -62.44867591 252.02654397 -62.4754414 242.69864583 C-62.49758389 234.68144687 -62.50423967 226.66433807 -62.49836498 218.6471107 C-62.49499326 213.86215633 -62.49742574 209.0773862 -62.51461601 204.29245758 C-62.5300617 199.7976064 -62.52615624 195.30318188 -62.50731087 190.8083477 C-62.50361946 189.15918243 -62.50674953 187.50998569 -62.51719666 185.86084938 C-62.53037022 183.60955882 -62.5188937 181.35968873 -62.50120544 179.10845947 C-62.50099616 177.84899632 -62.50078688 176.58953316 -62.50057125 175.29190445 C-61.90323395 171.3636379 -60.81219549 169.76408915 -58 167 C-40.69746326 158.34873163 -19.34482417 165 0 165 C0 110.55 0 56.1 0 0 Z " fill="#D7D3C8" transform="translate(195,81)"/>
<path d="M0 0 C1.05455383 -0.00043808 2.10910767 -0.00087616 3.19561768 -0.00132751 C6.6585992 0.0007516 10.1210881 0.02404171 13.58398438 0.04760742 C15.99393448 0.05320648 18.40388802 0.05747512 20.81384277 0.06047058 C27.13990802 0.07189485 33.46576484 0.10134146 39.79174805 0.13458252 C46.25371481 0.16533542 52.71571544 0.17898708 59.17773438 0.1940918 C71.84450709 0.22621333 84.51107075 0.27896174 97.17773438 0.34057617 C97.17773438 12.55057617 97.17773438 24.76057617 97.17773438 37.34057617 C64.83773437 37.34057617 32.49773437 37.34057617 -0.82226562 37.34057617 C-0.82226562 55.82057617 -0.82226562 74.30057617 -0.82226562 93.34057617 C-2.44249902 91.18026498 -4.04934981 89.00806005 -5.57226562 86.77807617 C-9.37579046 82.65759093 -13.26962604 81.51309168 -18.75976562 80.90307617 C-23.36716751 81.12630301 -27.17459172 82.50349647 -30.82226562 85.34057617 C-32.40744409 87.39659973 -33.68238593 89.44683354 -34.91210938 91.73120117 C-35.36263672 92.5278418 -35.36263672 92.5278418 -35.82226562 93.34057617 C-36.15226562 93.34057617 -36.48226562 93.34057617 -36.82226562 93.34057617 C-36.91526857 84.62998585 -36.98618318 75.91956853 -37.02951431 67.2085886 C-37.05031943 63.16296819 -37.07850588 59.11768945 -37.12402344 55.07226562 C-37.1677362 51.16242591 -37.19145585 47.2529132 -37.2017746 43.34284782 C-37.20912069 41.85700272 -37.22346522 40.37117393 -37.24518585 38.88546944 C-37.36109178 30.62292101 -37.20798357 23.58288795 -32.82226562 16.34057617 C-32.44402649 15.68960464 -32.06578735 15.03863312 -31.67608643 14.36793518 C-24.88219827 3.17968243 -12.22622012 -0.13440785 0 0 Z " fill="#F1876A" transform="translate(97.822265625,41.659423828125)"/>
<path d="M0 0 C0.33 0 0.66 0 1 0 C1.06867673 43.39854842 1.12153418 86.79709109 1.15319599 130.19568314 C1.15694808 135.3200714 1.16083105 140.44445956 1.16479492 145.56884766 C1.16558185 146.5890148 1.16636878 147.60918195 1.16717956 148.66026326 C1.18023107 165.17549934 1.20388352 181.69070408 1.23145839 198.20592158 C1.25951967 215.15389389 1.27617779 232.10184979 1.28226548 249.04984438 C1.28638042 259.50642692 1.29937404 269.96292085 1.3237494 280.41947611 C1.33961549 287.59134551 1.34439837 294.76316915 1.34050413 301.93505482 C1.33858395 306.07194878 1.34151359 310.20868796 1.35761642 314.34555435 C1.37226682 318.13705939 1.37291925 321.92830625 1.36269668 325.71982343 C1.36083856 327.73255862 1.37373112 329.74529098 1.38724393 331.75798166 C1.33064339 343.23541243 -0.54728098 351.7899589 -8.25 360.5625 C-16.09608064 367.51698057 -23.91317698 370.58259354 -34.421875 370.30859375 C-44.34857963 369.12039729 -51.07512687 363.41548227 -57.5 356.1875 C-59 354 -59 354 -59 352 C-58.29230469 351.319375 -57.58460938 350.63875 -56.85546875 349.9375 C-53.24038375 346.45075369 -50.8551565 342.29904473 -48.3125 338 C-47.79212158 337.12279297 -47.27174316 336.24558594 -46.7355957 335.34179688 C-31.12148913 308.5706798 -21.95802241 280.64306787 -18 250 C-17.90356201 249.29705811 -17.80712402 248.59411621 -17.70776367 247.86987305 C-14.46736959 222.26578357 -17.39526886 195.4970685 -24.265625 170.7109375 C-25 168 -25 168 -25 166 C-34.57 166 -44.14 166 -54 166 C-54 165.67 -54 165.34 -54 165 C-36.18 165 -18.36 165 0 165 C0 110.55 0 56.1 0 0 Z " fill="#B6B0A2" transform="translate(195,81)"/>
<path d="M0 0 C84.48 0 168.96 0 256 0 C256 7.59 256 15.18 256 23 C171.52 23 87.04 23 0 23 C0 15.41 0 7.82 0 0 Z " fill="#FDDE64" transform="translate(196,344)"/>
<path d="M0 0 C11.55 0 23.1 0 35 0 C35.12375 5.341875 35.2475 10.68375 35.375 16.1875 C35.42962402 17.86481201 35.48424805 19.54212402 35.54052734 21.27026367 C35.55806335 22.61113613 35.57334978 23.95204071 35.5859375 25.29296875 C35.6166333 25.97991821 35.6473291 26.66686768 35.67895508 27.37463379 C35.6819875 30.17406042 35.60154005 32.33977882 33.66387939 34.46646118 C32.1373496 35.68050075 30.56978431 36.84243251 29 38 C27.67451168 41.44336774 27.67451168 41.44336774 28 45 C29.64049027 47.57791328 31.28714923 49.3946839 33.60546875 51.36328125 C35.86979039 54.02084642 35.58681459 56.49379012 35.5 59.86328125 C35 62 35 62 32.0625 64.125 C31.051875 64.74375 30.04125 65.3625 29 66 C28.01253453 69.45612916 27.65958418 71.77450306 28.625 75.25 C29.95429947 77.21039644 29.95429947 77.21039644 32.54443359 78.20117188 C35 80 35 80 35.64697266 82.95507812 C35.6526123 84.13521484 35.65825195 85.31535156 35.6640625 86.53125 C35.67373047 88.45904297 35.67373047 88.45904297 35.68359375 90.42578125 C35.67312012 91.09432129 35.66264648 91.76286133 35.65185547 92.45166016 C35.62507341 94.49440055 35.65159398 96.53164912 35.68359375 98.57421875 C35.67714844 99.85941406 35.67070312 101.14460938 35.6640625 102.46875 C35.65560303 104.23895508 35.65560303 104.23895508 35.64697266 106.04492188 C35 109 35 109 32.54443359 110.79492188 C31.70477051 111.19259766 30.86510742 111.59027344 30 112 C28.07136161 114.54229606 27.99097709 115.78345018 28.125 119 C29.12211299 122.41867312 30.27242111 123.76834454 33 126 C33.99 126.495 33.99 126.495 35 127 C35.2832505 130.70743433 35.45463741 134.30264757 35 138 C32.625 140 32.625 140 30 141 C27.67122638 143.87594836 27.67122638 143.87594836 28.0625 147.4375 C28.65160803 151.15981688 28.65160803 151.15981688 31.625 153 C32.800625 153.99 32.800625 153.99 34 155 C34.16407358 159.42998669 33.28526041 161.57618453 30.8125 165.25 C26.52930314 169.4380147 23.08126398 171.15338739 17.125 171.5 C11.83017355 171.31659487 7.78087172 169.75610618 4 166 C-1.31099036 159.2468272 -0.53666633 151.79784454 -0.45410156 143.60961914 C-0.45297227 142.04210438 -0.45360855 140.47458751 -0.45587158 138.90707397 C-0.45701647 134.6657014 -0.43354395 130.42478383 -0.40557575 126.18351674 C-0.38052436 121.74593889 -0.37821716 117.30834993 -0.37347412 112.87071228 C-0.36105531 104.47371925 -0.32824857 96.07693522 -0.28807616 87.6800341 C-0.24332434 78.11780997 -0.22136284 68.55557573 -0.20129442 58.9932729 C-0.15951488 39.32870614 -0.08617625 19.66442577 0 0 Z " fill="#F8F7F1" transform="translate(196,81)"/>
<path d="M0 0 C3 1 3 1 4.6875 4.125 C8.52012796 11.16835781 14.46863011 15.26692079 21.81394577 18.13228607 C28.42342519 19.93236132 35.30654746 19.56891286 42.10791016 19.54589844 C43.82365857 19.55464533 45.53939884 19.56513499 47.25512695 19.57722473 C51.88668402 19.60496873 56.51797338 19.60849199 61.14960146 19.60750484 C65.99964604 19.61064395 70.84957182 19.63628289 75.69955444 19.65948486 C84.87195541 19.69997209 94.04428542 19.72036845 103.21676195 19.73345876 C113.66425881 19.74935349 124.11163534 19.78777952 134.55906224 19.82805204 C156.0393379 19.91035138 177.51960158 19.96370657 199 20 C199 27.92 199 35.84 199 44 C135.31 44 71.62 44 6 44 C1.42335475 35.76203855 -0.13354354 32.58462449 -0.09765625 23.828125 C-0.0962413 23.1457074 -0.09482635 22.46328979 -0.09336853 21.76019287 C-0.08779084 19.59008316 -0.07524254 17.4200783 -0.0625 15.25 C-0.05748211 13.77474108 -0.05291971 12.29948053 -0.04882812 10.82421875 C-0.03782875 7.21611202 -0.02057953 3.60806625 0 0 Z " fill="#7F392C" transform="translate(133,431)"/>
<path d="M0 0 C0.92949463 -0.0071553 1.85898926 -0.01431061 2.81665039 -0.02168274 C3.83953659 -0.02437164 4.86242279 -0.02706055 5.91630554 -0.02983093 C6.99121246 -0.03640213 8.06611938 -0.04297333 9.17359924 -0.04974365 C12.74237634 -0.06950744 16.31111131 -0.0811456 19.87992859 -0.09111023 C21.70473786 -0.09722352 21.70473786 -0.09722352 23.56641197 -0.10346031 C30.00416775 -0.12433333 36.44190213 -0.13863022 42.87968445 -0.147995 C49.53805358 -0.15805944 56.19604297 -0.19347324 62.85430622 -0.23316669 C67.96635572 -0.25927753 73.07832508 -0.26768189 78.19043541 -0.27127647 C80.64527325 -0.27615605 83.1001072 -0.28780875 85.55488014 -0.30631447 C88.98812626 -0.33058938 92.42050039 -0.32976188 95.85380554 -0.32279968 C96.87061905 -0.33560974 97.88743256 -0.3484198 98.93505859 -0.36161804 C103.34410961 -0.32897717 105.86327078 -0.29149339 109.6869812 2.05154419 C113.93894194 6.76070943 112.80208658 12.40820903 112.82914734 18.45967102 C112.84977234 19.60113586 112.87039734 20.74260071 112.89164734 21.9186554 C112.89938171 23.57284485 112.89938171 23.57284485 112.90727234 25.26045227 C112.91661804 26.26890198 112.92596375 27.27735168 112.93559265 28.31636047 C112.40137327 32.55901373 110.9066456 35.05240316 107.61630249 37.76589966 C103.1605359 39.79234299 99.03478466 39.58153629 94.19267273 39.5670929 C93.14819473 39.57556244 92.10371674 39.58403198 91.02758789 39.59275818 C87.57720238 39.61614472 84.12726234 39.61714994 80.67680359 39.61592102 C78.27693503 39.62302134 75.87706817 39.63072015 73.47720337 39.63899231 C68.4477415 39.65244079 63.41843661 39.65400406 58.38896179 39.64814758 C51.94475133 39.64224992 45.50129384 39.67284519 39.05722904 39.71326447 C34.1012364 39.73911631 29.1454257 39.74202114 24.18937492 39.7383728 C21.8135177 39.74006625 19.43765228 39.74973026 17.06186104 39.76751709 C13.73906699 39.78965694 10.41780538 39.78002885 7.09501648 39.7624054 C6.1145636 39.77566864 5.13411072 39.78893188 4.12394714 39.80259705 C-0.31273453 39.74793385 -3.45523446 39.60873946 -7.01559448 36.79621887 C-11.72143251 31.61341138 -10.67719427 25.42132432 -10.73335266 18.77217102 C-10.76235657 17.6352179 -10.79136047 16.49826477 -10.82124329 15.32685852 C-10.88524226 6.9380696 -10.88524226 6.9380696 -8.52632141 2.92060852 C-5.50003474 0.37156557 -3.87322194 0.02042933 0 0 Z " fill="#F1EDDE" transform="translate(272.4208526611328,19.852828979492188)"/>
<path d="M0 0 C0.33 0 0.66 0 1 0 C1 130.68 1 261.36 1 396 C78.22 396 155.44 396 235 396 C235 388.08 235 380.16 235 372 C247.54 372 260.08 372 273 372 C273.0309375 379.7653125 273.0309375 379.7653125 273.0625 387.6875 C273.071604 389.31260498 273.08070801 390.93770996 273.09008789 392.61206055 C273.09383423 394.54239136 273.09383423 394.54239136 273.09765625 396.51171875 C273.10551147 398.48338013 273.10551147 398.48338013 273.11352539 400.49487305 C273.0162825 403.49727358 272.63069264 406.08145289 272 409 C244.66164292 408.96281523 217.32341687 408.90292761 189.98517036 408.81609726 C177.29121822 408.77630727 164.59732807 408.74391451 151.90332031 408.72900391 C140.8377553 408.71598726 129.77232668 408.68902204 118.70683849 408.64538693 C112.84906552 408.62277267 106.99146079 408.60708932 101.13364029 408.60811615 C95.61619794 408.60886276 90.0991275 408.59091086 84.58178139 408.55883217 C82.56062708 408.5503376 80.53943103 408.54858021 78.51826668 408.55419731 C63.83000587 408.58956988 55.57209238 407.91893632 44 398 C29.48 397.67 14.96 397.34 0 397 C0 265.99 0 134.98 0 0 Z " fill="#B65536" transform="translate(97,79)"/>
<path d="M0 0 C4.46564301 -0.12397147 8.93036439 -0.21450992 13.3972168 -0.2746582 C14.91529801 -0.29974109 16.43325918 -0.3338166 17.95092773 -0.37719727 C20.13815965 -0.43813293 22.32379039 -0.46626895 24.51171875 -0.48828125 C25.82615967 -0.51446533 27.14060059 -0.54064941 28.49487305 -0.56762695 C32.87704388 0.14203016 34.28858238 1.56039655 37 5 C38.17727453 8.53182358 38.11994258 11.31336262 38.11352539 15.04174805 C38.11367142 15.75419678 38.11381744 16.46664551 38.1139679 17.20068359 C38.11327151 19.554393 38.10549192 21.90802317 38.09765625 24.26171875 C38.0957911 25.89410865 38.09436765 27.52649911 38.09336853 29.15888977 C38.08955101 33.45461575 38.07972724 37.75030789 38.06866455 42.04602051 C38.05663516 47.20055696 38.05204454 52.35510472 38.04621124 57.50965118 C38.0365151 65.33979098 38.01735319 73.16985656 38 81 C27.11 81 16.22 81 5 81 C4.43468597 73.0856036 3.90734948 65.34020298 3.70874023 57.4362793 C3.37077189 44.07224228 2.3831449 30.86429258 1.01611328 17.57275391 C0.88575684 16.2944873 0.75540039 15.0162207 0.62109375 13.69921875 C0.5017749 12.57346436 0.38245605 11.44770996 0.25952148 10.2878418 C-0.01221881 6.84520153 -0.04348714 3.45189439 0 0 Z " fill="#FEAF41" transform="translate(414,0)"/>
<path d="M0 0 C2 3 2 3 3.1875 5.4375 C5.5994974 8.84756529 8.0791947 10.71144009 12 12 C17.43902698 12.73061556 22.95995976 12.93312287 28 10.5 C31.67853769 7.43455192 33.28000915 4.40146727 35 0 C35.33 0 35.66 0 36 0 C36.06963883 9.2667011 36.12288156 18.53331154 36.15543652 27.80021763 C36.17106457 32.10364109 36.19225028 36.40688496 36.22631836 40.71020508 C36.25901427 44.86640618 36.27687452 49.02243498 36.28463173 53.17875481 C36.29015693 54.76112516 36.30094627 56.34348653 36.31719017 57.92578316 C36.33910112 60.14937536 36.34196133 62.37226376 36.34057617 64.59594727 C36.34723801 65.85947525 36.35389984 67.12300323 36.36076355 68.42481995 C35.89113409 73.07886514 34.64558497 77.08234498 31.53515625 80.70703125 C26.03288414 84.83738406 22.48547738 86.52495824 15.6015625 86.3828125 C10.05433123 85.56655324 6.3308826 82.39913299 2.5625 78.4375 C-0.26219617 74.03097398 -0.12257734 70.1142411 -0.11352539 64.93652344 C-0.11367142 64.23368225 -0.11381744 63.53084106 -0.1139679 62.80670166 C-0.11327299 60.49089437 -0.10550038 58.17516819 -0.09765625 55.859375 C-0.09579057 54.25083459 -0.09436737 52.64229362 -0.09336853 51.03375244 C-0.08955516 46.80544458 -0.07973495 42.57717121 -0.06866455 38.34887695 C-0.05842506 34.03206855 -0.05386547 29.71525456 -0.04882812 25.3984375 C-0.03811162 16.93227586 -0.02104937 8.46614222 0 0 Z " fill="#F1876A" transform="translate(61,228)"/>
<path d="M0 0 C1.19253387 -0.00554901 2.38506775 -0.01109802 3.61373901 -0.01681519 C6.87226151 -0.02658069 10.12973801 -0.01404759 13.3881619 0.00946999 C16.80376894 0.02963113 20.21934257 0.02369679 23.63499451 0.0213623 C29.36894664 0.02141581 35.10256855 0.04113591 40.83642578 0.07324219 C47.45987984 0.11015005 54.0829018 0.11891472 60.70644528 0.11194468 C67.08703463 0.10563405 73.46747628 0.11640312 79.84803581 0.13591003 C82.55965217 0.14407175 85.2711929 0.14679587 87.98282051 0.1452179 C91.77003768 0.14701353 95.55663914 0.16837633 99.34375 0.1953125 C100.46648819 0.1923819 101.58922638 0.18945129 102.74598694 0.18643188 C103.77913025 0.19778168 104.81227356 0.20913147 105.87672424 0.2208252 C106.77136666 0.22455391 107.66600908 0.22828262 108.58776188 0.23212433 C111.70179748 0.70565406 113.56601609 1.77650876 116.10717773 3.61523438 C118.4462708 7.12387398 118.5200883 8.4861287 118.10717773 12.61523438 C116.38176958 16.41113232 114.95242242 18.09017774 111.10717773 19.61523438 C108.71080971 19.87529659 108.71080971 19.87529659 105.99697876 19.88938904 C104.44932579 19.90435173 104.44932579 19.90435173 102.8704071 19.9196167 C101.74407364 19.92028137 100.61774017 19.92094604 99.45727539 19.92163086 C98.26663986 19.92995438 97.07600433 19.93827789 95.84928894 19.94685364 C92.5867986 19.96682038 89.32445627 19.97759417 86.06191301 19.98268008 C84.0222351 19.98632635 81.98258164 19.99256778 79.94291306 19.99968147 C72.82317784 20.02416711 65.7035154 20.03722605 58.58374023 20.04077148 C51.95344412 20.04440666 45.32361093 20.07430242 38.69345629 20.11617607 C32.99564839 20.15089623 27.2979938 20.16632021 21.60008085 20.16701752 C18.19932529 20.16780973 14.79904152 20.17652151 11.39839554 20.20501518 C7.60380885 20.23184227 3.81050195 20.22712843 0.01586914 20.21459961 C-1.66755836 20.23685104 -1.66755836 20.23685104 -3.38499451 20.259552 C-11.87978981 20.17960264 -11.87978981 20.17960264 -15.58731079 17.22035217 C-17.93529589 14.56724121 -18.71631352 13.59382042 -18.64282227 10.11523438 C-18.65829102 9.38304687 -18.67375977 8.65085937 -18.68969727 7.89648438 C-15.69769568 -0.6688535 -7.60549351 -0.09000827 0 0 Z " fill="#B7B4A7" transform="translate(241.892822265625,399.384765625)"/>
<path d="M0 0 C26.4 0 52.8 0 80 0 C80 6.93 80 13.86 80 21 C50.96 21 21.92 21 -8 21 C-5.6312216 13.8936648 -2.88105193 6.91452463 0 0 Z " fill="#FFAF40" transform="translate(371,345)"/>
<path d="M0 0 C0.75201691 -0.0071553 1.50403381 -0.01431061 2.27883911 -0.02168274 C4.75032382 -0.03851164 7.21997949 -0.01920338 9.69140625 0.00219727 C11.41723785 0.00136802 13.14306936 -0.00109345 14.86889648 -0.00511169 C18.48022323 -0.0079657 22.09092841 0.00669214 25.70214844 0.03417969 C30.32251142 0.06826216 34.94176339 0.06224069 39.56217957 0.04351711 C43.12423908 0.03292961 46.68604174 0.04190076 50.24807739 0.05690193 C51.95125566 0.06207138 53.65446089 0.061617 55.3576355 0.05535698 C57.74161095 0.04988337 60.12401618 0.07034601 62.5078125 0.09765625 C63.55535202 0.08786743 63.55535202 0.08786743 64.62405396 0.07788086 C69.58254034 0.17407825 72.43003042 1.52904716 76.25390625 4.63110352 C77.70538528 7.53406157 77.6262965 9.40372131 77.25390625 12.63110352 C75.20087001 16.06339963 73.12524901 18.34065593 69.25390625 19.63110352 C66.83198879 19.73698748 64.43841544 19.78832342 62.01611328 19.79223633 C60.91559631 19.79968369 60.91559631 19.79968369 59.79284668 19.80728149 C57.36579449 19.82188607 54.93880766 19.82870206 52.51171875 19.83422852 C50.8240458 19.83998112 49.13637287 19.84573884 47.44869995 19.85150146 C43.90964453 19.86200642 40.37061179 19.86785248 36.83154297 19.87133789 C32.29977553 19.87682331 27.76830844 19.90085435 23.23663521 19.92930984 C19.7501844 19.94794547 16.26380583 19.9531423 12.77730942 19.95467377 C11.10677319 19.95769845 9.43623818 19.9657208 7.76575089 19.97885895 C5.42709829 19.99594002 3.08917819 19.99403454 0.75048828 19.98754883 C-0.28146164 20.001371 -0.28146164 20.001371 -1.33425903 20.01547241 C-6.67780713 19.96911975 -9.76829428 18.47704969 -13.62109375 14.88110352 C-15.36385182 11.39558737 -14.84472473 9.31474856 -13.74609375 5.63110352 C-9.40069082 1.11584595 -6.3018088 -0.10550725 0 0 Z " fill="#B7B3A6" transform="translate(237.74609375,293.368896484375)"/>
<path d="M0 0 C0.73367798 -0.0049649 1.46735596 -0.00992981 2.2232666 -0.01504517 C4.65031879 -0.02964974 7.07730562 -0.03646573 9.50439453 -0.04199219 C11.19206748 -0.04774479 12.87974041 -0.05350251 14.56741333 -0.05926514 C18.10646875 -0.0697701 21.64550149 -0.07561615 25.18457031 -0.07910156 C29.71633775 -0.08458698 34.24780484 -0.10861802 38.77947807 -0.13707352 C42.26592888 -0.15570914 45.75230745 -0.16090597 49.23880386 -0.16243744 C50.90934009 -0.16546213 52.5798751 -0.17348447 54.2503624 -0.18662262 C56.58901499 -0.20370369 58.92693509 -0.20179821 61.265625 -0.1953125 C61.95359161 -0.20452728 62.64155823 -0.21374207 63.35037231 -0.22323608 C67.67349095 -0.18573515 70.27248881 0.62325524 73.76220703 3.16113281 C74.36033203 3.59425781 74.95845703 4.02738281 75.57470703 4.47363281 C77.42341934 7.1007503 77.13806669 9.02896901 76.76220703 12.16113281 C75.53679179 14.85704635 74.57993532 16.60175589 72.12277222 18.28260803 C68.84622844 19.50202994 65.69303127 19.4642793 62.24316406 19.4675293 C61.49143921 19.47585281 60.73971436 19.48417633 59.96520996 19.49275208 C57.48342693 19.51682126 55.00190686 19.52562018 52.52001953 19.53222656 C50.79133018 19.54119502 49.06264162 19.5503169 47.33395386 19.55958557 C43.71089798 19.57606957 40.08793445 19.58377464 36.46484375 19.58666992 C31.82870948 19.59205416 27.19344635 19.62973784 22.55755806 19.67541409 C18.98697765 19.70519735 15.41660675 19.71239374 11.84591293 19.71339607 C10.13710412 19.71759562 8.42829453 19.73001938 6.71960831 19.75091362 C4.32577189 19.77785683 1.93395111 19.7729956 -0.45996094 19.76049805 C-1.16146271 19.77533234 -1.86296448 19.79016663 -2.58572388 19.80545044 C-6.34097352 19.74979394 -8.74454668 19.12514658 -11.64968872 16.83851624 C-14.23779297 14.16113281 -14.23779297 14.16113281 -15.42529297 10.72363281 C-15.16690163 5.81419746 -13.75684432 4.52022729 -10.23779297 1.16113281 C-6.75449011 0.00003186 -3.62370824 0.00585362 0 0 Z " fill="#B7B3A6" transform="translate(238.23779296875,217.8388671875)"/>
<path d="M0 0 C0.76279266 -0.0049649 1.52558533 -0.00992981 2.31149292 -0.01504517 C4.84137873 -0.02968007 7.37120181 -0.03647142 9.90112305 -0.04199219 C11.65748598 -0.0477431 13.4138489 -0.05350084 15.17021179 -0.05926514 C18.85647881 -0.06977928 22.542724 -0.07561906 26.22900391 -0.07910156 C30.95024452 -0.08458335 35.6711963 -0.10860281 40.39234638 -0.13707352 C44.02205749 -0.15570814 47.65169919 -0.16090596 51.28145409 -0.16243744 C53.02176681 -0.16546327 54.76207833 -0.17348949 56.50234413 -0.18662262 C58.93928527 -0.2036985 61.37552312 -0.20179918 63.8125 -0.1953125 C64.53008987 -0.20452728 65.24767975 -0.21374207 65.98701477 -0.22323608 C70.36816062 -0.18674853 73.12776186 0.45677628 76.6003418 3.16113281 C78.94202944 6.67366427 79.09657857 8.02582637 78.6003418 12.16113281 C76.44943728 15.49874326 75.39621381 16.89584214 71.6003418 18.16113281 C69.08735336 18.27740421 66.60098733 18.33913199 64.0871582 18.35400391 C63.32421951 18.3621814 62.56128082 18.37035889 61.77522278 18.37878418 C59.25079122 18.40359455 56.72641565 18.42014119 54.2019043 18.43457031 C53.33932384 18.43989399 52.47674339 18.44521767 51.58802414 18.45070267 C47.02410521 18.47741276 42.46021347 18.49679621 37.89624023 18.51123047 C34.11897633 18.52458201 30.34225109 18.55245946 26.56518555 18.59326172 C22.00347583 18.642539 17.44225552 18.66734502 12.88029099 18.67445755 C11.14273104 18.68117479 9.40518221 18.69640923 7.6677742 18.72034836 C5.23537413 18.75195681 2.80486583 18.7520443 0.37231445 18.74462891 C-0.70171379 18.76923691 -0.70171379 18.76923691 -1.79743958 18.79434204 C-5.63582955 18.74648998 -7.2763469 18.25903189 -10.31900024 15.84341431 C-12.93600104 12.46970612 -13.47572379 10.42080544 -13.3996582 6.16113281 C-9.64660178 0.20800883 -6.60292487 0.0101997 0 0 Z " fill="#908C82" transform="translate(236.399658203125,142.8388671875)"/>
<path d="M0 0 C16.83 0 33.66 0 51 0 C51 12.21 51 24.42 51 37 C33.51 37 16.02 37 -2 37 C1 35 1 35 4.4375 33.3125 C8.32994493 31.05290273 10.66513491 28.32242028 12 24 C12.79467792 17.78706353 12.72034802 12.25980237 9 7 C6.61881834 4.77831634 6.61881834 4.77831634 4 3 C2.68 2.01 1.36 1.02 0 0 Z " fill="#DA7559" transform="translate(144,42)"/>
<path d="M0 0 C3.7969644 3.62945127 5.64480698 6.67035884 6.17480469 11.87475586 C6.25283245 15.49874029 6.20742895 19.09096946 6.109375 22.71484375 C6.026875 27.02546875 5.944375 31.33609375 5.859375 35.77734375 C-5.360625 35.77734375 -16.580625 35.77734375 -28.140625 35.77734375 C-28.24375 31.48734375 -28.346875 27.19734375 -28.453125 22.77734375 C-28.49864502 21.44058594 -28.54416504 20.10382813 -28.59106445 18.7265625 C-28.67500494 11.49143415 -28.17523102 6.24256534 -23.140625 0.77734375 C-15.79126266 -4.77949119 -7.66188901 -4.70161371 0 0 Z " fill="#FFDF58" transform="translate(224.140625,45.22265625)"/>
<path d="M0 0 C1.18092224 0.00030212 2.36184448 0.00060425 3.57855225 0.00091553 C4.84846008 0.02156067 6.11836792 0.04220581 7.42675781 0.06347656 C9.3826181 0.07196625 9.3826181 0.07196625 11.37799072 0.08062744 C14.83720804 0.09586818 18.29574887 0.13513494 21.75469971 0.17944336 C25.28721974 0.2204307 28.81984956 0.23864575 32.35253906 0.25878906 C39.27859744 0.30163188 46.20420761 0.36986341 53.12988281 0.45410156 C52.47890625 1.20691406 51.82792969 1.95972656 51.15722656 2.73535156 C48.53178169 6.25617937 48.59146043 8.14672251 49.12988281 12.45410156 C50.08185448 14.14865983 51.0757318 15.82114614 52.12988281 17.45410156 C44.63683267 17.54683161 37.14384211 17.61788156 29.65034866 17.66135025 C26.17066412 17.68221464 22.69137248 17.71050977 19.21191406 17.75585938 C15.21057388 17.80768383 11.20964562 17.82705609 7.20800781 17.84472656 C5.95997375 17.8653717 4.7119397 17.88601685 3.42608643 17.9072876 C1.68473419 17.90774078 1.68473419 17.90774078 -0.09179688 17.90820312 C-1.62401886 17.92152679 -1.62401886 17.92152679 -3.18719482 17.93511963 C-6.58424557 17.32606631 -7.75471599 16.12393169 -9.87011719 13.45410156 C-10.40136719 11.23535156 -10.40136719 11.23535156 -10.37011719 8.95410156 C-10.38042969 8.20128906 -10.39074219 7.44847656 -10.40136719 6.67285156 C-9.06780386 1.10326355 -5.22907952 -0.04469299 0 0 Z " fill="#8F8B81" transform="translate(233.8701171875,400.5458984375)"/>
<path d="M0 0 C6.60176043 -0.12687837 13.203206 -0.21438377 19.8059082 -0.2746582 C22.05147044 -0.29978723 24.296951 -0.33389615 26.54223633 -0.37719727 C29.77185218 -0.43791776 33.00038584 -0.46622631 36.23046875 -0.48828125 C37.23272995 -0.51408768 38.23499115 -0.5398941 39.2676239 -0.56648254 C44.00381395 -0.56838415 46.24948177 -0.56202631 50.1340332 2.34692383 C52 5 52 5 52.625 7.9375 C51.80823163 11.939665 50.29625163 14.61913507 47 17 C43.40313027 17.83123399 39.90544893 17.69948647 36.23046875 17.5859375 C34.67625969 17.57320297 34.67625969 17.57320297 33.09065247 17.56021118 C29.78853396 17.52668398 26.48887753 17.45140187 23.1875 17.375 C20.94599886 17.3448997 18.70445936 17.31752402 16.46289062 17.29296875 C10.97442357 17.2268954 5.48738767 17.12655366 0 17 C0.33 16.34 0.66 15.68 1 15 C1.66 15 2.32 15 3 15 C3.27827115 13.44228648 3.52141944 11.87827686 3.75 10.3125 C3.88921875 9.44238281 4.0284375 8.57226562 4.171875 7.67578125 C3.94176418 4.09337413 2.28224831 2.67634789 0 0 Z " fill="#8F8B81" transform="translate(263,295)"/>
<path d="M0 0 C6.60176043 -0.12687837 13.203206 -0.21438377 19.8059082 -0.2746582 C22.05147044 -0.29978723 24.296951 -0.33389615 26.54223633 -0.37719727 C29.77185218 -0.43791776 33.00038584 -0.46622631 36.23046875 -0.48828125 C37.23272995 -0.51408768 38.23499115 -0.5398941 39.2676239 -0.56648254 C44.00358832 -0.56838406 46.25204834 -0.55778165 50.1418457 2.34301758 C52.42234671 5.60391529 52.65048529 7.09708828 52 11 C49.73529412 15.63235294 49.73529412 15.63235294 47 17 C45.48835608 17.08977728 43.97279821 17.11757433 42.45849609 17.11352539 C41.51767181 17.11344986 40.57684753 17.11337433 39.60751343 17.11329651 C38.58976837 17.10813522 37.57202332 17.10297394 36.5234375 17.09765625 C35.48305328 17.0962413 34.44266907 17.09482635 33.37075806 17.09336853 C30.03880979 17.08775866 26.70692805 17.07520447 23.375 17.0625 C21.11979264 17.05748627 18.86458422 17.05292314 16.609375 17.04882812 C11.07289386 17.03778603 5.53645168 17.02103827 0 17 C0.4837207 16.54947266 0.96744141 16.09894531 1.46582031 15.63476562 C3.4045577 13.56891815 3.50809874 12.29116842 3.75 9.5 C3.82734375 8.7265625 3.9046875 7.953125 3.984375 7.15625 C4.11746641 4.81390957 4.11746641 4.81390957 3 2 C2.01 1.67 1.02 1.34 0 1 C0 0.67 0 0.34 0 0 Z " fill="#8F8B81" transform="translate(263,219)"/>
<path d="M0 0 C1.54605192 -0.01652665 3.09202846 -0.04377379 4.63769531 -0.08203125 C6.87393568 -0.13706391 9.10838669 -0.1587133 11.34521484 -0.17333984 C12.37210419 -0.2073439 12.37210419 -0.2073439 13.41973877 -0.24203491 C17.1891145 -0.2256029 19.59888783 0.38280091 22.52392578 2.6640625 C25.07958984 5.35009766 25.07958984 5.35009766 25.70458984 8.85009766 C24.99188376 12.84125173 23.96669821 14.5454781 21.07958984 17.35009766 C15.759849 19.12334461 10.02740784 18.65503867 4.45605469 18.70019531 C2.95850081 18.71675902 1.46102614 18.74405537 -0.03613281 18.78222656 C-2.20370143 18.83714403 -4.3694261 18.85888598 -6.53759766 18.87353516 C-7.83294434 18.89335449 -9.12829102 18.91317383 -10.46289062 18.93359375 C-14.81185076 18.19965683 -16.2337515 16.7783763 -18.92041016 13.35009766 C-19.98291016 9.85009766 -19.98291016 9.85009766 -19.92041016 6.35009766 C-15.0424096 -1.38742047 -8.20552011 0.06425487 0 0 Z " fill="#B4B0A3" transform="translate(242.92041015625,142.64990234375)"/>
<path d="M0 0 C3.2476015 1.3681385 4.71808032 2.68857767 6.625 5.625 C10.26699656 10.75007763 14.98985192 14.27704412 20 18 C18.63088196 21.1489715 17.1247864 23.0478487 14.5 25.25 C13.8915625 25.77078125 13.283125 26.2915625 12.65625 26.828125 C11 28 11 28 9 28 C8.6596875 28.804375 8.6596875 28.804375 8.3125 29.625 C6.56617944 32.78500863 4.3597151 35.2676983 2 38 C-1.72916212 36.48476483 -3.72147813 34.28743239 -6.3125 31.25 C-9.96481141 27.0776575 -13.69246271 23.48268972 -18 20 C-16.48476483 16.27083788 -14.28743239 14.27852187 -11.25 11.6875 C-7.0776575 8.03518859 -3.48268972 4.30753729 0 0 Z " fill="#269CFE" transform="translate(403,270)"/>
<path d="M0 0 C3.22486831 1.38508444 4.99382399 2.90592505 7.1875 5.625 C11.06259934 10.22457444 15.4309833 14.10442114 20 18 C18.55901187 21.52582203 16.84359196 23.08238114 13.75 25.25 C9.22866121 28.61726524 6.09897169 32.32116038 3 37 C-0.30989076 36.69223823 -1.75144921 36.23318104 -4.2109375 33.92578125 C-5.28214844 32.63220703 -5.28214844 32.63220703 -6.375 31.3125 C-9.11427261 28.10062257 -11.77056519 25.20673161 -15.0625 22.5625 C-16.031875 21.716875 -17.00125 20.87125 -18 20 C-18 19.01 -18 18.02 -18 17 C-16.34765625 15.52734375 -16.34765625 15.52734375 -14.0625 13.9375 C-8.62949 9.91879736 -4.36517952 5.12882795 0 0 Z " fill="#259CFE" transform="translate(403,390)"/>
<path d="M0 0 C1.32 0 2.64 0 4 0 C5.5703125 1.6875 5.5703125 1.6875 7.125 4 C10.52619762 8.69795052 14.38096721 11.88546954 19.05859375 15.2734375 C19.69925781 15.84320313 20.33992188 16.41296875 21 17 C21 17.99 21 18.98 21 20 C19.34765625 21.47265625 19.34765625 21.47265625 17.0625 23.0625 C12.32510684 26.55005958 8.69679423 30.54740336 4.9453125 35.05859375 C3 37 3 37 0 37 C-1.578125 35.2421875 -1.578125 35.2421875 -3.25 32.875 C-7.1988632 27.5624404 -11.5109341 23.65937727 -17 20 C-16.6375217 17.30479841 -16.25161168 16.22191502 -14.1796875 14.39453125 C-13.41914063 13.87246094 -12.65859375 13.35039062 -11.875 12.8125 C-7.5133394 9.62273231 -4.62028618 6.18160845 -1.60546875 1.72265625 C-1.07566406 1.15417969 -0.54585938 0.58570313 0 0 Z " fill="#FEB043" transform="translate(402,195)"/>
<path d="M0 0 C4.48647939 0.3791391 6.63199735 3.54983024 9.375 6.75 C12.99752259 10.92511078 16.66952765 14.55095122 21 18 C19.81652143 21.55043572 18.79272301 22.11342471 15.8125 24.25 C11.11304119 27.78021547 6.66626604 31.66746791 4 37 C0.95842658 36.67928988 -0.57631971 36.4528326 -2.703125 34.1796875 C-3.21359375 33.41914063 -3.7240625 32.65859375 -4.25 31.875 C-7.84498867 26.91502667 -12.02064358 23.51151893 -17 20 C-16.6375217 17.30479841 -16.25161168 16.22191502 -14.1796875 14.39453125 C-13.41914063 13.87246094 -12.65859375 13.35039062 -11.875 12.8125 C-6.94251856 9.18219366 -3.51147486 4.97929393 0 0 Z " fill="#FEB042" transform="translate(402,119)"/>
<path d="M0 0 C13.2 0 26.4 0 40 0 C37 10 37 10 32 21 C21.77 21 11.54 21 1 21 C2.98 18.69 4.96 16.38 7 14 C7.74505174 9.67869992 7.56410157 7.87533002 5.1875 4.1875 C3.00408575 1.8610844 3.00408575 1.8610844 0 0 Z " fill="#FFC750" transform="translate(331,345)"/>
<path d="M0 0 C11.22 0 22.44 0 34 0 C32.35 1.98 30.7 3.96 29 6 C28.23060098 8.28363602 28.23060098 8.28363602 28.375 10.5 C28.35566406 11.56734375 28.35566406 11.56734375 28.3359375 12.65625 C29.09493313 15.94050925 29.09493313 15.94050925 34 21 C22.78 21 11.56 21 0 21 C0 14.07 0 7.14 0 0 Z " fill="#FFC751" transform="translate(196,345)"/>
<path d="M0 0 C1.6406543 -0.0309375 1.6406543 -0.0309375 3.31445312 -0.0625 C4.37212891 -0.06765625 5.42980469 -0.0728125 6.51953125 -0.078125 C7.48608643 -0.0874707 8.4526416 -0.09681641 9.44848633 -0.10644531 C12.71311668 0.31840185 14.54582249 1.31070594 17.1875 3.25 C19.52918764 6.76253146 19.68373677 8.11469356 19.1875 12.25 C17.03659549 15.58761045 15.98337201 16.98470933 12.1875 18.25 C8.23433471 18.55939177 4.2763326 18.57376362 0.3125 18.625 C-1.32138672 18.68107422 -1.32138672 18.68107422 -2.98828125 18.73828125 C-11.02575041 18.8268213 -11.02575041 18.8268213 -15.00390625 15.91015625 C-17.13136515 12.78099964 -17.8899691 11.04598572 -17.8125 7.25 C-13.25221919 -1.08430631 -8.73457696 0.04074438 0 0 Z " fill="#918D83" transform="translate(240.8125,189.75)"/>
<path d="M0 0 C1.54204102 -0.00386719 1.54204102 -0.00386719 3.11523438 -0.0078125 C12.53271348 0.11425463 12.53271348 0.11425463 16.4375 3.5 C18.79836122 7.04129184 19.01019578 8.32750218 18.4375 12.5 C16.85400518 15.46491954 16.16184962 16.70877352 13.4375 18.5 C8.92797703 19.41298507 4.52379579 19.3369898 -0.0625 19.25 C-1.89748047 19.28480469 -1.89748047 19.28480469 -3.76953125 19.3203125 C-12.38332576 19.2638286 -12.38332576 19.2638286 -15.51293945 17.23657227 C-17.95407199 14.47881289 -18.5568523 12.60730632 -18.75 8.9375 C-15.53755183 -0.36169206 -8.62202722 -0.23874714 0 0 Z " fill="#918D83" transform="translate(241.5625,113.5)"/>
<path d="M0 0 C1.69189453 -0.02320313 1.69189453 -0.02320313 3.41796875 -0.046875 C11.59954405 -0.00814565 11.59954405 -0.00814565 15.71875 2.31640625 C18.22271342 5.3859579 18.5 7.57044817 18.5 11.5 C17.2858372 14.37564873 16.3676356 15.95673411 13.71459961 17.61791992 C9.38529219 19.34229294 4.66172803 18.8267391 0.0625 18.8125 C-1.49307617 18.83666992 -1.49307617 18.83666992 -3.08007812 18.86132812 C-12.64093005 18.86746869 -12.64093005 18.86746869 -16.5 15.5 C-17.64363112 13.21273777 -17.76501932 11.67147573 -17.875 9.125 C-17.92398438 8.35414063 -17.97296875 7.58328125 -18.0234375 6.7890625 C-17.5 4.5 -17.5 4.5 -15.7578125 2.2421875 C-10.65848485 -0.48479107 -5.6889988 -0.07802055 0 0 Z " fill="#908C82" transform="translate(241.5,265.5)"/>
<path d="M0 0 C4.46564301 -0.12397147 8.93036439 -0.21450992 13.3972168 -0.2746582 C14.91529801 -0.29974109 16.43325918 -0.3338166 17.95092773 -0.37719727 C20.13815965 -0.43813293 22.32379039 -0.46626895 24.51171875 -0.48828125 C25.82615967 -0.51446533 27.14060059 -0.54064941 28.49487305 -0.56762695 C32.87367854 0.14148517 34.31386391 1.54085681 37 5 C37.61304266 8.67825595 37.26122201 10.46568226 35.625 13.8125 C34 16 34 16 32 17 C29.59161322 17.08639869 27.21266119 17.11567764 24.8046875 17.09765625 C24.09724396 17.0962413 23.38980042 17.09482635 22.66091919 17.09336853 C20.39890331 17.087766 18.13698602 17.07521318 15.875 17.0625 C14.34244935 17.05748532 12.80989714 17.05292236 11.27734375 17.04882812 C7.51819112 17.03779577 3.75911228 17.02052952 0 17 C0.65355469 16.24976563 1.30710937 15.49953125 1.98046875 14.7265625 C4.5576847 11.24707173 4.39261836 9.24027832 4 5 C3.67 4.01 3.34 3.02 3 2 C2.01 1.67 1.02 1.34 0 1 C0 0.67 0 0.34 0 0 Z " fill="#8F8B81" transform="translate(323,401)"/>
<path d="M0 0 C1.50433594 0.01353516 1.50433594 0.01353516 3.0390625 0.02734375 C3.80992187 0.03894531 4.58078125 0.05054688 5.375 0.0625 C4.529375 0.8875 3.68375 1.7125 2.8125 2.5625 C1.17188036 4.5136324 0.41714228 5.57603146 0.1953125 8.13671875 C0.60741185 11.7326179 1.36103758 14.04155637 3.375 17.0625 C-5.61237651 17.67995335 -5.61237651 17.67995335 -9.1875 15.5 C-11.12590068 12.21314668 -11.625 9.8819882 -11.625 6.0625 C-8.27331639 0.74603635 -6.06790407 -0.07055702 0 0 Z " fill="#928E84" transform="translate(234.625,142.9375)"/>
<path d="M0 0 C-0.66 0.70125 -1.32 1.4025 -2 2.125 C-4.38048785 5.54695128 -4.66654852 6.91739029 -4 11 C-2.11586085 14.32808239 -2.11586085 14.32808239 0 17 C-9.45795891 17.89444795 -9.45795891 17.89444795 -12.87890625 15.91015625 C-15.46705148 13.13029656 -15.99788271 11.12280254 -16.0625 7.375 C-13.33385585 -1.2924579 -8.06473887 -0.50057 0 0 Z " fill="#918D83" transform="translate(239,295)"/>
<path d="M0 0 C-0.33 0.66 -0.66 1.32 -1 2 C-1.66 2 -2.32 2 -3 2 C-3.2236337 3.41433206 -3.42826476 4.83167618 -3.625 6.25 C-3.74101562 7.03890625 -3.85703125 7.8278125 -3.9765625 8.640625 C-4.00368639 11.37109687 -3.44098867 12.7061813 -2 15 C-1.34 15.66 -0.68 16.32 0 17 C-9.45795891 17.89444795 -9.45795891 17.89444795 -12.87890625 15.91015625 C-15.46705148 13.13029656 -15.99788271 11.12280254 -16.0625 7.375 C-13.33385585 -1.2924579 -8.06473887 -0.50057 0 0 Z " fill="#918E84" transform="translate(239,219)"/>
</svg>
