<?xml version="1.0" encoding="UTF-8"?>
<svg version="1.1" xmlns="http://www.w3.org/2000/svg" width="512" height="512">
<path d="M0 0 C0.95327179 -0.00970322 1.90654358 -0.01940643 2.88870239 -0.02940369 C5.96881373 -0.05424505 9.0487048 -0.06692642 12.12890625 -0.07421875 C13.18222137 -0.07683716 14.2355365 -0.07945557 15.32077026 -0.08215332 C29.71434123 -0.08596832 43.94437704 0.40195172 58.25390625 1.98828125 C59.00098846 2.06678314 59.74807068 2.14528503 60.51779175 2.22616577 C71.29826574 3.39352411 77.93674927 5.30171379 85.94140625 12.92578125 C90.5333859 17.21415894 95.26757653 21.22201074 100.18359375 25.1328125 C101.01117188 25.82761719 101.83875 26.52242187 102.69140625 27.23828125 C103.58859375 27.97304687 104.48578125 28.7078125 105.41015625 29.46484375 C108.4277957 33.13354924 108.77715446 36.18145529 109.31640625 40.80078125 C110.09844349 47.56707046 110.09844349 47.56707046 113.69140625 53.23828125 C113.69140625 53.89828125 113.69140625 54.55828125 113.69140625 55.23828125 C118.48433385 57.72350297 122.70296742 59.44767742 128.12890625 59.86328125 C129.09054687 59.94191406 130.0521875 60.02054688 131.04296875 60.1015625 C133.80235036 60.29176733 133.80235036 60.29176733 137.00390625 60.05078125 C143.17811121 60.48153974 148.42494585 66.4790006 152.87890625 70.42578125 C157.26157371 74.26917518 161.65665794 78.0737695 166.19140625 81.73828125 C170.60809569 85.31369651 174.9092101 89.00427473 179.19140625 92.73828125 C184.33732442 97.22478005 189.54730764 101.60701185 194.8515625 105.90625 C198.33477714 108.76660645 201.76745354 111.68242704 205.19140625 114.61328125 C205.79154541 115.12576416 206.39168457 115.63824707 207.01000977 116.16625977 C208.57917798 117.51352993 210.13594647 118.87520728 211.69140625 120.23828125 C212.23990234 120.70572754 212.78839844 121.17317383 213.35351562 121.65478516 C215.33974401 124.00563868 215.09302158 126.36105652 214.99609375 129.328125 C214.58977827 131.87541052 213.22359743 133.19535968 211.69140625 135.23828125 C211.15942614 140.02610225 210.96631611 142.1023067 213.56640625 146.17578125 C216.76967485 149.28483607 219.07713001 149.62157594 223.546875 149.60546875 C226.65880221 149.07264333 228.41767197 147.47909067 230.66015625 145.33203125 C233.9408243 143.56551769 237.12018166 143.5304406 240.69140625 144.23828125 C243.25553739 145.63085726 245.22201876 147.47292725 247.31640625 149.48828125 C248.53728918 150.59817483 249.75865707 151.70753515 250.98046875 152.81640625 C251.59567383 153.38681641 252.21087891 153.95722656 252.84472656 154.54492188 C255.72701979 157.18791313 258.70997012 159.7084635 261.69140625 162.23828125 C262.85338204 163.23377132 264.01483878 164.22986756 265.17578125 165.2265625 C267.55831665 167.26902092 269.94409 169.30761507 272.33203125 171.34375 C272.93660156 171.86001953 273.54117187 172.37628906 274.1640625 172.90820312 C275.2907472 173.87021852 276.41825239 174.8312745 277.546875 175.79101562 C278.61072906 176.70010363 279.66061946 177.62579447 280.69569397 178.56752014 C282.7004679 180.32296807 282.7004679 180.32296807 285.1872406 181.80406189 C288.80990783 184.35986506 291.99270887 186.79838591 293.25999069 191.22381401 C294.16112468 197.2011194 293.91418271 203.23737178 293.7734375 209.26171875 C293.76238588 211.21463213 293.75534372 213.16757193 293.75212097 215.12051392 C293.73533352 219.1980039 293.68612989 223.27327878 293.6105957 227.35009766 C293.51407278 232.57929112 293.47451177 237.80687611 293.45592213 243.03687096 C293.43566622 248.02869863 293.38669577 253.02012436 293.3359375 258.01171875 C293.32520171 259.4408919 293.32520171 259.4408919 293.31424904 260.89893723 C293.28897099 263.58728985 293.24320724 266.27446131 293.19067383 268.96240234 C293.18574921 269.7603421 293.18082458 270.55828186 293.17575073 271.38040161 C293.03978264 276.73523699 293.03978264 276.73523699 291.32939148 279.20498657 C288.95343018 280.7038207 286.62301619 281.12005584 283.87890625 281.67578125 C277.4457706 283.18124363 273.44401654 284.91725681 269.37890625 290.30078125 C266.04222368 296.10908054 266.179688 301.68134905 266.69140625 308.23828125 C267.96394481 311.70924982 267.96394481 311.70924982 269.69140625 314.23828125 C270.02140625 315.22828125 270.35140625 316.21828125 270.69140625 317.23828125 C272.47369561 318.38037942 272.47369561 318.38037942 274.69140625 319.23828125 C275.39265625 319.56828125 276.09390625 319.89828125 276.81640625 320.23828125 C280.29341688 321.44767625 283.75501606 322.00963658 287.38671875 322.578125 C290.11104548 323.358483 290.98639157 323.98840228 292.69140625 326.23828125 C293.07235718 328.85668945 293.07235718 328.85668945 293.07958984 332.0390625 C293.08904633 333.23039795 293.09850281 334.4217334 293.10824585 335.64916992 C293.10217316 336.93670166 293.09610046 338.2242334 293.08984375 339.55078125 C293.0918648 340.8845231 293.09477651 342.21826388 293.09854126 343.55200195 C293.10296321 346.34629851 293.09653815 349.14030723 293.08251953 351.93457031 C293.06542719 355.5160259 293.07526914 359.09680707 293.09323692 362.67823792 C293.10407856 365.43205851 293.10062679 368.18571926 293.09285355 370.93954468 C293.08987954 372.9021651 293.09898917 374.86479173 293.10824585 376.82739258 C293.09878937 378.01872803 293.08933289 379.21006348 293.07958984 380.4375 C293.07600967 382.01277466 293.07600967 382.01277466 293.07235718 383.61987305 C292.69140625 386.23828125 292.69140625 386.23828125 291.34780884 388.0546875 C288.8779129 389.81956847 286.41357321 390.04274806 283.44140625 390.55078125 C277.48850185 391.8420119 273.39930261 393.27655866 269.69140625 398.23828125 C268.50830456 400.48935057 267.52104854 402.7586724 266.5625 405.11328125 C265.29814024 408.19763868 264.30181679 410.10873581 261.69140625 412.23828125 C254.79108419 413.08682373 247.9309246 411.78858256 241.18041992 410.44995117 C239.68335007 410.16457237 239.68335007 410.16457237 238.15603638 409.87342834 C234.88859943 409.24789768 231.62398645 408.60885019 228.359375 407.96875 C226.0764634 407.52699758 223.7934467 407.08578803 221.5103302 406.64509583 C216.74078418 405.72221767 211.97261846 404.79258247 207.20532227 403.8581543 C201.09690167 402.66145454 194.98528904 401.48205994 188.87253857 400.30770397 C184.16401685 399.4010986 179.45733451 398.48522671 174.75115395 397.56655312 C172.49786823 397.12788904 170.2440117 396.6921465 167.98958397 396.25938988 C164.842932 395.65395531 161.69898155 395.0360478 158.55541992 394.41479492 C157.62598068 394.23856598 156.69654144 394.06233704 155.73893738 393.88076782 C151.20679595 392.97122085 147.44397257 392.10953163 143.69140625 389.23828125 C142.69140625 387.23828125 142.69140625 387.23828125 142.75390625 383.67578125 C142.81096421 375.80178319 141.28792467 369.0143671 135.69140625 363.23828125 C130.48835484 359.09707707 126.16259073 358.60827434 119.5625 358.85546875 C113.53532701 359.65909182 109.56896673 362.63982142 105.80859375 367.45703125 C104.0824689 370.20917437 102.91901704 373.15170684 101.78125 376.1875 C100.39980773 378.78698814 99.25147984 379.77123174 96.69140625 381.23828125 C93.77776146 381.19575977 93.77776146 381.19575977 90.40048218 380.60713196 C89.15070965 380.39601084 87.90093712 380.18488972 86.61329269 379.96737099 C85.31907017 379.72677137 84.02484764 379.48617176 82.69140625 379.23828125 C80.87598265 378.91098557 80.87598265 378.91098557 79.02388382 378.57707787 C75.12608309 377.85609507 71.23572242 377.10062123 67.34619141 376.33666992 C65.86590219 376.04862931 64.38555365 375.7608934 62.90515137 375.47343445 C58.92453071 374.69956928 54.94476624 373.92138436 50.96516848 373.14227843 C46.76218158 372.32013839 42.55845548 371.50179414 38.35482788 370.68293762 C31.28865816 369.30589396 24.22301434 367.92617903 17.15771484 366.54467773 C9.05486468 364.96031817 0.95134453 363.37942588 -7.15258634 361.80060405 C-15.85829304 360.1045189 -24.563531 358.40603766 -33.26862001 356.70678544 C-35.73862582 356.22478098 -38.2087109 355.74318462 -40.67881393 355.2616787 C-48.90582421 353.6574107 -57.13145033 352.04659174 -65.35322106 350.41565949 C-69.81399865 349.53124805 -74.27775337 348.66322359 -78.74249268 347.79898071 C-80.94257763 347.36326531 -83.14251937 346.92682587 -85.34228516 346.48950195 C-86.32585684 346.30289851 -87.30942852 346.11629507 -88.3228054 345.92403698 C-89.21124453 345.74437043 -90.09968365 345.56470388 -91.01504517 345.3795929 C-92.16038695 345.15559295 -92.16038695 345.15559295 -93.32886696 344.92706776 C-95.6672035 344.11351375 -96.77173871 343.16277093 -98.30859375 341.23828125 C-98.55395508 339.11279297 -98.55395508 339.11279297 -98.390625 336.66796875 C-98.32887085 335.32883423 -98.32887085 335.32883423 -98.26586914 333.96264648 C-98.21809326 333.02235596 -98.17031738 332.08206543 -98.12109375 331.11328125 C-97.7907781 321.19776716 -97.7907781 321.19776716 -102.5546875 312.76953125 C-103.13347656 312.26421875 -103.71226563 311.75890625 -104.30859375 311.23828125 C-104.81519531 310.77421875 -105.32179688 310.31015625 -105.84375 309.83203125 C-110.94508787 306.12196734 -117.29003662 306.51939804 -123.30859375 307.23828125 C-126.77956232 308.51081981 -126.77956232 308.51081981 -129.30859375 310.23828125 C-130.29859375 310.56828125 -131.28859375 310.89828125 -132.30859375 311.23828125 C-133.45069192 313.02057061 -133.45069192 313.02057061 -134.30859375 315.23828125 C-134.63988281 315.99496094 -134.97117187 316.75164062 -135.3125 317.53125 C-136.33966714 320.32272776 -136.78267725 322.85936326 -137.18359375 325.80078125 C-137.76172311 329.02178766 -138.24372329 331.12410924 -139.87109375 333.98828125 C-146.52666533 337.40139488 -158.54731243 332.94919364 -165.57421875 331.5859375 C-166.93940071 331.32294847 -168.30461534 331.06012905 -169.66986084 330.79747009 C-172.514427 330.24929857 -175.35845632 329.69843899 -178.20214844 329.14575195 C-181.83793066 328.43944082 -185.47516444 327.74094098 -189.11285782 327.04454899 C-191.92571575 326.50499112 -194.73766342 325.96080513 -197.54936981 325.4152813 C-198.89023941 325.1557995 -200.23140844 324.8978599 -201.57288361 324.64152718 C-203.44697153 324.28280789 -205.31970961 323.91705835 -207.19238281 323.55102539 C-208.25555725 323.34530411 -209.31873169 323.13958282 -210.41412354 322.92762756 C-217.24642719 321.30044781 -217.24642719 321.30044781 -219.30859375 319.23828125 C-219.42654176 316.35107278 -219.47870309 313.48713533 -219.4894104 310.59875488 C-219.49661492 309.68136772 -219.50381943 308.76398055 -219.51124227 307.81879377 C-219.5341102 304.71970316 -219.54958136 301.62062069 -219.56494141 298.52148438 C-219.5793815 296.30936482 -219.59413901 294.09724731 -219.60919189 291.88513184 C-219.73962745 271.6644635 -219.80559314 251.44324578 -219.85703468 231.22223663 C-219.86404368 228.51469389 -219.87117063 225.80715149 -219.87841797 223.09960938 C-219.88021326 222.42665673 -219.88200855 221.75370409 -219.88385825 221.06035894 C-219.91389508 210.17015992 -219.97863184 199.28044485 -220.05710442 188.3904987 C-220.13701061 177.20899309 -220.18202242 166.02765829 -220.19606054 154.84585524 C-220.20492823 148.56802285 -220.22920314 142.29112074 -220.29072952 136.01356506 C-220.3479923 130.1035466 -220.36264306 124.19493759 -220.34485626 118.28468323 C-220.3457344 116.11789657 -220.36198145 113.95105212 -220.39490128 111.78451538 C-220.63011901 95.45359781 -220.63011901 95.45359781 -217.40449142 90.04637146 C-215.15555075 87.74996555 -212.97338594 86.02076608 -210.30859375 84.23828125 C-208.69463313 82.87479058 -207.08947419 81.5007662 -205.49609375 80.11328125 C-203.44374726 78.4731215 -201.38368533 76.84911123 -199.30859375 75.23828125 C-198.60299316 74.68865723 -197.89739258 74.1390332 -197.17041016 73.57275391 C-175.72867795 56.95842857 -152.8399499 42.82194533 -128.30859375 31.23828125 C-127.50164062 30.85559082 -126.6946875 30.47290039 -125.86328125 30.07861328 C-87.05843869 11.89983413 -42.94884506 0.36979477 0 0 Z " fill="#FCBF29" transform="translate(219.30859375,49.76171875)"/>
<path d="M0 0 C0.95327179 -0.00970322 1.90654358 -0.01940643 2.88870239 -0.02940369 C5.96881373 -0.05424505 9.0487048 -0.06692642 12.12890625 -0.07421875 C13.18222137 -0.07683716 14.2355365 -0.07945557 15.32077026 -0.08215332 C29.71434123 -0.08596832 43.94437704 0.40195172 58.25390625 1.98828125 C59.00098846 2.06678314 59.74807068 2.14528503 60.51779175 2.22616577 C71.29826574 3.39352411 77.93674927 5.30171379 85.94140625 12.92578125 C90.5333859 17.21415894 95.26757653 21.22201074 100.18359375 25.1328125 C101.01117188 25.82761719 101.83875 26.52242187 102.69140625 27.23828125 C103.58859375 27.97304687 104.48578125 28.7078125 105.41015625 29.46484375 C108.4277957 33.13354924 108.77715446 36.18145529 109.31640625 40.80078125 C110.09844349 47.56707046 110.09844349 47.56707046 113.69140625 53.23828125 C113.69140625 53.89828125 113.69140625 54.55828125 113.69140625 55.23828125 C118.48433385 57.72350297 122.70296742 59.44767742 128.12890625 59.86328125 C129.09054687 59.94191406 130.0521875 60.02054688 131.04296875 60.1015625 C133.80235036 60.29176733 133.80235036 60.29176733 137.00390625 60.05078125 C143.17811121 60.48153974 148.42494585 66.4790006 152.87890625 70.42578125 C157.26157371 74.26917518 161.65665794 78.0737695 166.19140625 81.73828125 C170.60809569 85.31369651 174.9092101 89.00427473 179.19140625 92.73828125 C184.33732442 97.22478005 189.54730764 101.60701185 194.8515625 105.90625 C198.33477714 108.76660645 201.76745354 111.68242704 205.19140625 114.61328125 C205.79154541 115.12576416 206.39168457 115.63824707 207.01000977 116.16625977 C208.57917798 117.51352993 210.13594647 118.87520728 211.69140625 120.23828125 C212.23990234 120.70572754 212.78839844 121.17317383 213.35351562 121.65478516 C215.33974401 124.00563868 215.09302158 126.36105652 214.99609375 129.328125 C214.58977827 131.87541052 213.22359743 133.19535968 211.69140625 135.23828125 C211.15942614 140.02610225 210.96631611 142.1023067 213.56640625 146.17578125 C216.76967485 149.28483607 219.07713001 149.62157594 223.546875 149.60546875 C226.65880221 149.07264333 228.41767197 147.47909067 230.66015625 145.33203125 C233.9408243 143.56551769 237.12018166 143.5304406 240.69140625 144.23828125 C243.25553739 145.63085726 245.22201876 147.47292725 247.31640625 149.48828125 C248.53728918 150.59817483 249.75865707 151.70753515 250.98046875 152.81640625 C251.59567383 153.38681641 252.21087891 153.95722656 252.84472656 154.54492188 C255.72701979 157.18791313 258.70997012 159.7084635 261.69140625 162.23828125 C262.85338204 163.23377132 264.01483878 164.22986756 265.17578125 165.2265625 C268.16216592 167.7866783 271.15435487 170.3399226 274.14794922 172.89160156 C275.90535533 174.39494215 277.65420039 175.90778223 279.40234375 177.421875 C281.50152374 179.23636831 283.62110381 180.97946331 285.79296875 182.7109375 C292.28963554 188.04552446 292.28963554 188.04552446 293.44140625 191.46484375 C293.56640625 193.61328125 293.56640625 193.61328125 292.69140625 197.23828125 C290.58462992 199.34030188 289.31233312 200.17237856 286.3359375 200.48828125 C278.96771274 199.83784486 271.8325624 198.52921299 264.59375 197.04296875 C262.35195879 196.58876663 260.11000832 196.13535002 257.86791992 195.68261719 C256.10791153 195.32701721 256.10791153 195.32701721 254.31234741 194.9642334 C248.20934989 193.74066086 242.09908623 192.55495942 235.98828125 191.37109375 C234.73268402 191.12780838 233.47708679 190.88452301 232.18344116 190.63386536 C228.93673365 190.00538793 225.68990607 189.37753673 222.44298935 188.75014114 C220.40787343 188.35680013 218.37282707 187.96310105 216.33779907 187.56930542 C199.44926447 184.3015213 182.55619918 181.05944421 165.65042114 177.88192749 C155.72374213 176.01563691 145.81385006 174.07875835 135.91381836 172.07592773 C124.38790449 169.75486149 112.82692721 167.62018579 101.2688446 165.46669006 C93.26489967 163.9743495 85.26435392 162.46405945 77.26428223 160.95111084 C74.12144695 160.35688255 70.97840626 159.76374401 67.83532715 159.17080688 C66.39032379 158.89680501 64.94572782 158.62064428 63.50158691 158.34213257 C60.52104159 157.76732073 57.54302003 157.21441783 54.54589844 156.73242188 C50.86471608 156.1168755 48.25449005 155.60068707 45.09375 153.56640625 C43.1327169 150.31076356 43.25773027 147.76641633 43.25390625 143.98828125 C43.01549836 135.87752764 41.02183278 131.40218645 35.19140625 125.86328125 C29.4743945 122.14722361 24.43685524 121.41566552 17.69140625 122.23828125 C12.02741054 123.96894661 7.79635092 127.14527848 4.69140625 132.23828125 C3.60116538 134.52857142 2.60588183 136.8246469 1.68359375 139.1875 C0.58296414 141.46242341 -0.32930772 142.66844219 -2.30859375 144.23828125 C-11.65401227 145.124072 -22.46067722 141.61199369 -31.62890625 139.80859375 C-33.43175991 139.45817825 -35.2347103 139.10826007 -37.03775024 138.75880432 C-41.84492749 137.82577236 -46.6508076 136.88621585 -51.45646667 135.94540024 C-56.43928187 134.97110815 -61.42328986 134.0029596 -66.40722656 133.03442383 C-73.37964874 131.67899232 -80.35173528 130.32186117 -87.323349 128.96227741 C-97.91241373 126.89736224 -108.50361943 124.84393554 -119.09765625 122.8046875 C-120.08863249 122.61388485 -120.08863249 122.61388485 -121.09962845 122.4192276 C-126.55344739 121.36922292 -132.0074695 120.32027492 -137.46148682 119.27130127 C-148.89264678 117.07163712 -160.31978468 114.85635859 -171.73065186 112.5533905 C-176.58315493 111.57526492 -181.44157822 110.64157866 -186.30859375 109.73828125 C-187.57316406 109.49980469 -188.83773437 109.26132813 -190.140625 109.015625 C-192.378905 108.59426947 -194.61821643 108.18337017 -196.86083984 107.78564453 C-199.57514953 107.30382888 -202.28553925 106.80324465 -204.99609375 106.30078125 C-206.27129883 106.08228516 -206.27129883 106.08228516 -207.57226562 105.859375 C-212.43739383 104.938629 -215.77090304 103.95110516 -219.30859375 100.23828125 C-220.18359375 97.05078125 -220.18359375 97.05078125 -219.30859375 93.23828125 C-216.68248204 89.80992062 -213.56764084 87.05639844 -210.30859375 84.23828125 C-209.53515625 83.5628125 -208.76171875 82.88734375 -207.96484375 82.19140625 C-205.13056243 79.80558717 -202.23456039 77.50961946 -199.30859375 75.23828125 C-198.60299316 74.68865723 -197.89739258 74.1390332 -197.17041016 73.57275391 C-175.72867795 56.95842857 -152.8399499 42.82194533 -128.30859375 31.23828125 C-127.50164062 30.85559082 -126.6946875 30.47290039 -125.86328125 30.07861328 C-87.05843869 11.89983413 -42.94884506 0.36979477 0 0 Z " fill="#FEDA40" transform="translate(219.30859375,49.76171875)"/>
<path d="M0 0 C7.2922682 5.06229515 13.13341654 12.17615092 15 21 C16.00054702 31.59040543 14.13139353 39.56449705 7.3125 47.8125 C1.80529944 53.62851554 -4.61990546 57.5187892 -12.6640625 58.23828125 C-23.02578454 58.49800779 -30.6454885 56.10790178 -38.24609375 48.921875 C-44.91530069 41.61396896 -47.53841158 33.70458542 -47.30859375 23.8359375 C-46.38443639 15.34304835 -42.24028269 8.68334063 -36 3 C-25.13606651 -5.25827052 -12.08889448 -6.91085199 0 0 Z " fill="#FDA831" transform="translate(353,282)"/>
<path d="M0 0 C7.2922682 5.06229515 13.13341654 12.17615092 15 21 C16.00054702 31.59040543 14.13139353 39.56449705 7.3125 47.8125 C1.80529944 53.62851554 -4.61990546 57.5187892 -12.6640625 58.23828125 C-23.02578454 58.49800779 -30.6454885 56.10790178 -38.24609375 48.921875 C-44.91530069 41.61396896 -47.53841158 33.70458542 -47.30859375 23.8359375 C-46.38443639 15.34304835 -42.24028269 8.68334063 -36 3 C-25.13606651 -5.25827052 -12.08889448 -6.91085199 0 0 Z " fill="#FDA831" transform="translate(73,273)"/>
<path d="M0 0 C6.50247944 5.05611044 10.79526717 12.31675444 12.25 20.4296875 C12.62117276 29.07801281 9.99824333 37.19227148 4.6171875 43.97265625 C-1.42194022 50.3248273 -9.59524277 53.6097622 -18.2578125 54.03515625 C-26.06734694 53.94119126 -32.46434825 50.72931109 -38.4296875 45.8046875 C-44.50135288 39.51247017 -47.38171496 31.64716395 -47.7578125 22.97265625 C-47.34654721 13.64622074 -42.85787729 6.93889497 -36.2578125 0.59765625 C-25.1186285 -8.04089461 -11.72759863 -7.28409673 0 0 Z " fill="#FEA832" transform="translate(184.2578125,102.40234375)"/>
<path d="M0 0 C6.62739222 3.78251485 11.9434247 9.3562679 14.24609375 16.7421875 C15.80517203 24.71694191 15.36854776 31.62819746 11.296875 38.7421875 C6.54312072 45.41128938 0.76028153 49.48215589 -7.3125 51 C-15.02357762 52.09805745 -20.92341192 50.43805783 -27.3125 46 C-33.74718522 40.21845952 -37.35244765 34.04821212 -37.875 25.3125 C-37.66032943 17.53557072 -34.67650128 10.89394669 -29.6015625 5.01953125 C-21.289973 -2.59629171 -10.37665552 -4.68214944 0 0 Z " fill="#FEA832" transform="translate(365.3125,147)"/>
<path d="M0 0 C6.01628598 4.33678741 9.16152769 9.87591979 11 17 C12.0685116 24.2245955 10.52367189 31.00957863 6.62890625 37.16796875 C1.72263183 43.43905812 -4.71926903 47.17907919 -12.61328125 48.40625 C-20.47784864 48.69979528 -27.18008111 46.77737888 -33.3125 41.8125 C-39.03885013 36.42836203 -41.72307318 30.08467057 -42.25 22.3125 C-42.08901869 14.42441592 -39.346955 8.44660257 -33.96875 2.7265625 C-24.26762758 -5.78116787 -11.00569394 -6.23347707 0 0 Z " fill="#FDA831" transform="translate(234,305)"/>
<path d="M0 0 C6.96668286 4.66089579 10.39493947 10.18481842 13 18 C13.76566763 25.33273996 12.66403274 32.02509401 8.5234375 38.203125 C3.32106242 44.61701209 -3.00214706 48.36810185 -11.26171875 49.23828125 C-19.09060295 49.47781233 -25.01999342 47.40235449 -31.3125 42.75 C-36.43551381 37.50784633 -39.08973837 31.1444698 -39.25 23.8125 C-39.10322989 15.67343002 -36.54176987 9.65379973 -30.96875 3.7265625 C-22.17925156 -3.98168811 -10.38294778 -5.10993241 0 0 Z " fill="#FDA831" transform="translate(429,346)"/>
<path d="M0 0 C6.96668286 4.66089579 10.39493947 10.18481842 13 18 C13.90203774 27.02037742 12.10419905 33.34370142 7.125 40.8125 C1.71972046 46.37675835 -4.1174528 49.03895118 -11.8125 49.3125 C-20.13085933 49.08801654 -26.19291812 46.68589173 -32.2734375 40.96875 C-37.22756583 35.31969869 -39.35942094 28.67412587 -39.20703125 21.20703125 C-38.45900393 13.23277778 -34.98838457 7.25171821 -29 2 C-19.89807903 -3.87549376 -9.8118082 -4.82884802 0 0 Z " fill="#FDA831" transform="translate(102,203)"/>
<path d="M0 0 C5.99822048 3.4681069 10.63203045 8.90632121 12.75 15.5 C13.65772411 22.56124918 13.10876667 28.72889553 8.75 34.5 C3.14752704 40.53159855 -1.83427344 43.45793601 -10.125 43.875 C-16.37255186 43.7064004 -20.68685738 41.92158839 -25.23046875 37.62890625 C-30.84397205 31.50613667 -32.7557482 26.59902264 -32.5546875 18.27734375 C-31.74547171 10.90103061 -27.82992154 6.63194088 -22.34765625 1.9453125 C-15.79678148 -2.56832561 -7.3027131 -3.21717965 0 0 Z " fill="#FEA832" transform="translate(258.25,71.5)"/>
</svg>
