<?xml version="1.0" encoding="UTF-8"?>
<svg version="1.1" xmlns="http://www.w3.org/2000/svg" width="512" height="512">
<path d="M0 0 C1.2694043 0.00858032 1.2694043 0.00858032 2.56445312 0.01733398 C29.0961347 0.71541242 56.27169701 8.02251528 81.375 16.25 C82.23552979 16.53149902 83.09605957 16.81299805 83.98266602 17.10302734 C91.68634941 19.73984274 91.68634941 19.73984274 94.375 22.5 C94.54 23.61375 94.705 24.7275 94.875 25.875 C96.70945196 30.30825891 97.91080683 30.65652563 102.1875 32.5625 C106.49739873 34.38424263 106.49739873 34.38424263 110.94921875 33.68359375 C111.74972656 33.29300781 112.55023438 32.90242188 113.375 32.5 C117.38980716 31.31824226 119.44080251 31.58247506 123.19140625 33.38671875 C124.11042725 33.82435547 125.02944824 34.26199219 125.97631836 34.71289062 C126.9535083 35.19951172 127.93069824 35.68613281 128.9375 36.1875 C129.95529541 36.68572266 130.97309082 37.18394531 132.02172852 37.69726562 C152.87028111 48.0769972 172.15807366 61.0398717 190.375 75.5 C191.75751953 76.59054688 191.75751953 76.59054688 193.16796875 77.703125 C204.4909486 86.7876514 214.82536139 96.85123161 225.125 107.0625 C226.43766846 108.35559082 226.43766846 108.35559082 227.77685547 109.67480469 C233.74578246 115.6358318 239.11990373 121.90692602 244.375 128.5 C245.35170415 129.67371586 246.33160564 130.84478787 247.31640625 132.01171875 C261.72872734 149.34647827 273.72550265 168.66848512 284.375 188.5 C284.83712891 189.35706543 285.29925781 190.21413086 285.77539062 191.09716797 C305.96828822 228.94826028 332.46051061 290.38421471 322.68359375 334.62890625 C319.21318258 344.13986573 312.41890959 352.17682929 303.20465088 356.52392578 C300.90759966 357.40212633 298.59933727 358.18604009 296.2578125 358.9375 C294.97377029 359.36953735 294.97377029 359.36953735 293.66378784 359.81030273 C290.94695223 360.72086151 288.22388633 361.61078542 285.5 362.5 C283.71308652 363.09498898 281.92662404 363.69133422 280.140625 364.2890625 C276.61532322 365.46639595 273.08702789 366.63394861 269.55566406 367.79296875 C266.1045342 368.92652906 262.65898296 370.07495373 259.21777344 371.23828125 C258.39993378 371.51406006 257.58209412 371.78983887 256.73947144 372.07397461 C255.20541041 372.59196565 253.6720914 373.11216175 252.13967896 373.63500977 C240.34414186 377.60691811 229.77921099 377.91653963 218.375 372.5 C215.35565165 370.81787807 212.82974952 368.95474952 210.375 366.5 C206.10819626 366.8699478 202.42545794 368.10193648 198.46484375 369.67724609 C196.75276733 370.35332413 196.75276733 370.35332413 195.00610352 371.0430603 C193.78721436 371.53158478 192.5683252 372.02010925 191.3125 372.5234375 C190.03525134 373.03093143 188.7578231 373.5379736 187.48022461 374.04458618 C184.80923217 375.10515887 182.13985669 376.1696692 179.47167969 377.23730469 C176.06469145 378.60044562 172.65475928 379.95602301 169.24369812 381.30893517 C166.60730814 382.35510754 163.97206078 383.4041318 161.33718872 384.45412064 C159.4731457 385.19673661 157.60852651 385.9379058 155.74389648 386.67904663 C154.03182007 387.36458115 154.03182007 387.36458115 152.28515625 388.06396484 C151.28621338 388.46287933 150.28727051 388.86179382 149.25805664 389.27279663 C142.94036166 391.75721311 142.94036166 391.75721311 138.375 396.5 C138.17741113 399.14532353 138.09478666 401.68697291 138.10375977 404.33276367 C138.09853302 405.12989777 138.09330627 405.92703186 138.08792114 406.74832153 C138.07767745 408.48017087 138.07190009 410.21205103 138.07003975 411.94392967 C138.06637751 414.68951647 138.04965269 417.43474156 138.02928162 420.18025208 C137.97387043 427.98671727 137.94325231 435.79323684 137.91870117 443.59985352 C137.90277652 448.37559476 137.87250049 453.15108188 137.83393669 457.92669106 C137.82232377 459.74263105 137.81635667 461.55861661 137.81625557 463.37459373 C137.81606231 465.92341793 137.79770667 468.47154796 137.77563477 471.02026367 C137.78021194 471.76289963 137.78478912 472.50553558 137.789505 473.27067566 C137.70652166 479.33486985 136.39092623 484.68069722 132.796875 489.70703125 C126.80419253 495.46168661 122.2464237 497.63082692 113.9375 497.9375 C106.94569588 497.73727651 102.52682642 496.43920321 97.40625 491.6640625 C92.21806419 486.11440472 90.12908954 481.15250769 90.11962891 473.46630859 C90.11266998 472.29844818 90.10571106 471.13058777 90.09854126 469.92733765 C90.09953827 468.6803006 90.10053528 467.43326355 90.1015625 466.1484375 C90.08646921 464.17521621 90.0713531 462.20199478 90.05487633 460.22878456 C90.01716178 455.37913784 89.99993251 450.52946915 89.99414062 445.6796875 C89.99009749 442.95095884 89.97555334 440.22265868 89.94979858 437.49404907 C89.92633187 434.92772072 89.91900178 432.36118406 89.92935181 429.79476929 C89.91608856 428.6332132 89.90282532 427.4716571 89.88916016 426.27490234 C89.88631012 425.25375336 89.88346008 424.23260437 89.88052368 423.18051147 C89.23718735 419.76925604 88.13424142 418.55602952 85.375 416.5 C81.74850049 416.41083846 81.74850049 416.41083846 78.375 417.5 C75.91970195 421.18294708 76.12232259 423.04952504 76.1015625 427.44140625 C76.08124789 428.84440865 76.06039668 430.24740336 76.0390625 431.65039062 C76.01662583 433.84650133 76.00005438 436.042306 75.99414062 438.23852539 C75.90736914 457.37814562 75.90736914 457.37814562 69.69873047 464.39428711 C64.58290865 469.21928109 59.03537723 471.63374416 52 471.9375 C45.40264019 471.71156302 40.28523245 470.11531406 35.33203125 465.6640625 C31.07520435 461.08248798 29.02205257 457.16663124 27.9296875 450.9765625 C27.76726562 450.07679688 27.60484375 449.17703125 27.4375 448.25 C27.30472656 447.39921875 27.17195312 446.5484375 27.03515625 445.671875 C26.51503015 443.13490847 26.51503015 443.13490847 23.375 441.5 C17.33069781 440.60140398 12.18451652 443.25733584 6.70703125 445.49609375 C5.65670212 445.91572891 4.60637299 446.33536407 3.5242157 446.76771545 C0.07478595 448.14823593 -3.36873035 449.54292735 -6.8125 450.9375 C-9.22612919 451.90602845 -11.64019689 452.87346477 -14.0546875 453.83984375 C-18.9436422 455.79760214 -23.83069205 457.76000092 -28.71630859 459.72607422 C-37.32329676 463.18643568 -45.95005557 466.59591956 -54.58059692 469.99700928 C-58.89335995 471.69707848 -63.20451626 473.40120976 -67.515625 475.10546875 C-68.82920738 475.62466888 -68.82920738 475.62466888 -70.16932678 476.15435791 C-78.59863958 479.48726136 -87.02360459 482.83110183 -95.44813538 486.17607117 C-101.19665061 488.45804995 -106.94633439 490.73698265 -112.69897461 493.00854492 C-114.9073924 493.88068883 -117.11580716 494.75284039 -119.32421875 495.625 C-120.39079208 496.0461055 -121.45736542 496.467211 -122.55625916 496.90107727 C-128.1092251 499.09698235 -133.65237501 501.31404078 -139.18051147 503.57173157 C-142.03932221 504.73743361 -144.90383079 505.88861841 -147.76965332 507.03695679 C-149.60075858 507.77742331 -151.42320197 508.53920311 -153.24511719 509.30200195 C-161.70497116 512.67376477 -170.3437016 514.54542588 -179.0625 510.9375 C-183.96122999 508.07990751 -186.85596527 503.8071042 -188.625 498.5 C-189.68414258 488.96771681 -187.3300558 481.64999799 -183.6875 472.9375 C-183.14788907 471.60273292 -182.61044448 470.2670884 -182.07495117 468.93066406 C-180.90397103 466.01536977 -179.7221551 463.10478652 -178.53320312 460.19677734 C-176.53151488 455.28778294 -174.58192444 450.35891711 -172.640625 445.42578125 C-172.29964279 444.55944061 -171.95866058 443.69309998 -171.60734558 442.80050659 C-170.90619074 441.01895656 -170.20507523 439.23739105 -169.5039978 437.45581055 C-167.70886049 432.90136939 -165.9025607 428.35135835 -164.09765625 423.80078125 C-161.42158172 417.05125373 -158.75727136 410.29727032 -156.10746765 403.53738403 C-154.56919777 399.61343715 -153.02762901 395.69078967 -151.4859314 391.76818848 C-150.75418378 389.90367231 -150.02402043 388.03853348 -149.29556274 386.17272949 C-139.321297 360.63086467 -139.321297 360.63086467 -134.625 357.5 C-131.4375 357.375 -131.4375 357.375 -128.625 357.5 C-128.49609375 356.77941406 -128.3671875 356.05882812 -128.234375 355.31640625 C-127.45685366 351.7228621 -126.20825535 348.3539522 -124.953125 344.90234375 C-124.84484375 344.10957031 -124.7365625 343.31679688 -124.625 342.5 C-125.09421875 341.88253906 -125.5634375 341.26507813 -126.046875 340.62890625 C-128.39372481 337.46298263 -127.94475567 335.41286911 -127.625 331.5 C-126.64925537 328.11956421 -125.3354603 324.9032765 -123.99609375 321.65234375 C-123.6152916 320.70051208 -123.23448944 319.74868042 -122.84214783 318.76800537 C-121.59325299 315.65328964 -120.32785169 312.545562 -119.0625 309.4375 C-118.1864052 307.26002703 -117.31158114 305.08204239 -116.43798828 302.90356445 C-114.67224287 298.50330102 -112.90105941 294.10529176 -111.12548828 289.70898438 C-108.00539119 281.97445051 -104.94367351 274.21737086 -101.89212036 266.45559692 C-100.38709059 262.62925964 -98.87691807 258.80495313 -97.3671875 254.98046875 C-96.91506645 253.83474648 -96.91506645 253.83474648 -96.45381165 252.6658783 C-92.68217309 243.10875496 -88.90327313 233.55450185 -85.125 224 C-79.78726961 210.50173284 -74.45321521 197.00202597 -69.125 183.5 C-63.52545671 169.31067147 -57.92059429 155.1234511 -52.3125 140.9375 C-51.75296631 139.52198853 -51.75296631 139.52198853 -51.18212891 138.07788086 C-50.12544179 135.40473917 -49.06860787 132.73165558 -48.01171875 130.05859375 C-47.69784714 129.2645665 -47.38397552 128.47053925 -47.06059265 127.65245056 C-46.76820206 126.9130574 -46.47581146 126.17366425 -46.17456055 125.41186523 C-45.90623413 124.73047485 -45.63790771 124.04908447 -45.3614502 123.3470459 C-44.72688328 121.75552726 -44.0664261 120.17437589 -43.40112305 118.59545898 C-42.45617183 116.04417988 -42.57793326 114.99059564 -43.625 112.5 C-44.92706108 110.6660594 -44.92706108 110.6660594 -46.5 108.875 C-52.81374447 100.63374219 -53.34016595 91.60258256 -52.625 81.5 C-51.82804759 77.46516872 -50.6204685 73.64165512 -49.30078125 69.75 C-48.9575029 68.68942383 -48.61422455 67.62884766 -48.26054382 66.53613281 C-47.17055323 63.18465876 -46.05421812 59.84264986 -44.9375 56.5 C-44.20731494 54.26096041 -43.4787864 52.02137989 -42.75195312 49.78125 C-30.38147847 11.85970615 -30.38147847 11.85970615 -16.625 3.5 C-11.09951445 0.85246688 -6.09422627 -0.05027609 0 0 Z " fill="#020100" transform="translate(188.625,-0.5)"/>
<path d="M0 0 C51.95387669 3.41485396 99.87222675 19.89835474 140.58251953 52.75927734 C141.22511719 53.27780273 141.86771484 53.79632813 142.52978516 54.33056641 C146.41151638 57.52478097 150.0062975 60.89973607 153.50610352 64.50854492 C155.11357571 66.16275809 155.11357571 66.16275809 157.52001953 67.94677734 C160.41460184 70.33480775 162.7202045 72.97780098 165.14892578 75.82958984 C166.36120122 77.24180215 167.5971344 78.6341788 168.85986328 80.00146484 C179.99646701 92.07181244 188.82272367 105.83478658 197.02001953 120.00927734 C197.41962891 120.69715332 197.81923828 121.3850293 198.23095703 122.09375 C208.04663742 139.20119631 215.20155591 157.89769103 220.02001953 177.00927734 C220.28806396 178.04955078 220.28806396 178.04955078 220.56152344 179.11083984 C224.60676294 195.18947924 227.02001953 212.43079771 227.02001953 229.00927734 C222.93991256 230.72536157 218.85603604 232.4323199 214.77001953 234.13427734 C214.1394162 234.39716553 213.50881287 234.66005371 212.85910034 234.9309082 C204.70949846 238.32169393 196.52838142 241.61448299 188.28955078 244.78271484 C187.4802713 245.09435577 186.67099182 245.4059967 185.83718872 245.7270813 C181.85566755 247.25809073 177.87055593 248.77882914 173.88037109 250.28710938 C172.40731453 250.85055319 170.93432933 251.41418365 169.46142578 251.97802734 C168.79689896 252.22555756 168.13237213 252.47308777 167.44770813 252.7281189 C159.59186734 255.75278114 154.52626313 259.78292599 149.89535522 266.6856842 C148.59527221 270.13677616 148.74523158 273.54927191 148.76464844 277.18676758 C148.76102798 278.00837372 148.75740753 278.82997986 148.75367737 279.67648315 C148.74679144 281.45798572 148.74427643 283.23950934 148.74562454 285.0210247 C148.74659011 287.84147783 148.73364433 290.66155021 148.71664429 293.48194885 C148.67037802 301.49989891 148.64576139 309.51780971 148.63916016 317.53588867 C148.63414658 322.442495 148.60990581 327.34870314 148.57383347 332.25517464 C148.5640331 334.123837 148.56170481 335.99255412 148.56700516 337.86123466 C148.57407282 340.47538724 148.55680079 343.08835224 148.53417969 345.70239258 C148.54643837 346.8582209 148.54643837 346.8582209 148.5589447 348.03739929 C148.50292748 351.67767416 148.12689153 353.83562942 146.20272827 356.96205139 C143.16862979 359.80782052 141.14035341 360.0815639 137.02001953 360.00927734 C134.33560181 358.36431885 134.33560181 358.36431885 132.02001953 356.00927734 C131.40097046 353.34222412 131.40097046 353.34222412 131.40820312 350.26611328 C131.3982431 349.11101257 131.38828308 347.95591187 131.37802124 346.76580811 C131.39136505 345.5209967 131.40470886 344.2761853 131.41845703 342.99365234 C131.40622224 341.03008456 131.39397191 339.06651674 131.38082314 337.10295486 C131.36828383 334.35213959 131.37795252 331.60158088 131.38800049 328.85076904 C131.40409754 324.05426608 131.40128579 319.25794033 131.37442017 314.46148682 C131.36236008 311.91052857 131.36495166 309.35944741 131.38412476 306.80853271 C131.35818425 298.52257795 130.50080864 292.80342539 125.89501953 285.75927734 C120.56163328 280.65777745 115.31724987 278.78805501 107.95751953 278.50927734 C100.72933917 278.78516209 96.29314932 280.73614756 91.20751953 285.82177734 C87.10917464 291.79365132 85.58301695 296.56656231 85.64892578 303.77099609 C85.63156068 305.23388926 85.61397615 306.69677984 85.59619141 308.15966797 C85.58608977 310.43746452 85.58253317 312.71510179 85.58422852 314.99291992 C85.58065966 317.21108554 85.55334791 319.42804537 85.52392578 321.64599609 C85.52207275 322.96301514 85.52021973 324.28003418 85.51831055 325.63696289 C84.94537514 329.51445276 84.10864802 330.68533204 81.02001953 333.00927734 C78.24958054 333.79387432 75.82042898 333.63735271 73.02001953 333.00927734 C70.01331811 330.79381314 69.18005327 328.93880665 68.55126953 325.28662109 C68.41720703 324.26697266 68.28314453 323.24732422 68.14501953 322.19677734 C67.26085007 316.09750667 65.6513127 312.15256235 61.02001953 308.00927734 C54.49998888 303.41153159 48.88527208 302.30930129 41.02001953 303.00927734 C37.59457447 303.87849242 34.40302401 305.15013286 31.14501953 306.50927734 C30.25387451 306.86441406 29.36272949 307.21955078 28.44458008 307.58544922 C25.62964024 308.71073298 22.82482072 309.85898558 20.02001953 311.00927734 C17.18490015 312.15466365 14.3479138 313.29524652 11.50976562 314.43310547 C9.75138998 315.13991924 7.99512066 315.85200023 6.24121094 316.56982422 C5.45278809 316.89015625 4.66436523 317.21048828 3.85205078 317.54052734 C2.81141479 317.96688477 2.81141479 317.96688477 1.74975586 318.40185547 C0.02001953 319.00927734 0.02001953 319.00927734 -1.97998047 319.00927734 C-2.01865234 317.70216797 -2.01865234 317.70216797 -2.05810547 316.36865234 C-2.66309399 303.66389347 -5.728782 293.49337789 -12.97998047 283.00927734 C-13.41955078 282.37248047 -13.85912109 281.73568359 -14.31201172 281.07958984 C-20.88558259 272.55478612 -30.90885294 268.04530606 -40.97998047 265.00927734 C-41.57810547 264.81591797 -42.17623047 264.62255859 -42.79248047 264.42333984 C-57.27728668 261.68157295 -71.85191174 264.78015812 -83.97998047 273.00927734 C-90.50952998 278.37687552 -95.18934467 284.4856142 -98.97998047 292.00927734 C-99.39376953 292.75822266 -99.80755859 293.50716797 -100.23388672 294.27880859 C-105.44249254 305.51270059 -105.02514341 321.90797697 -100.85498047 333.44677734 C-98.51602415 338.47586472 -95.60099652 342.82278755 -91.97998047 347.00927734 C-87.97998047 351.85138261 -87.97998047 351.85138261 -87.97998047 354.00927734 C-89.05256104 354.43225098 -90.1251416 354.85522461 -91.23022461 355.29101562 C-95.28407967 356.88977149 -99.33774439 358.4890095 -103.39135742 360.08837891 C-105.131867 360.77502989 -106.87242533 361.46155734 -108.61303711 362.14794922 C-110.30395027 362.81476075 -111.9947365 363.48189426 -113.68539429 364.14935303 C-115.36220068 364.8106431 -117.03963036 365.47035491 -118.71768188 366.128479 C-122.63093929 367.66683215 -126.52830644 369.22903491 -130.39746094 370.87548828 C-131.07908798 371.16148895 -131.76071503 371.44748962 -132.46299744 371.74215698 C-134.28316179 372.50902009 -136.09751588 373.28963357 -137.91137695 374.07128906 C-141.1824873 375.07117815 -142.78082074 375.13291563 -145.97998047 374.00927734 C-146.63998047 373.34927734 -147.29998047 372.68927734 -147.97998047 372.00927734 C-147.77347886 365.22183493 -144.8967006 359.19222595 -142.37841797 352.97412109 C-141.66029002 351.17364771 -140.9421623 349.37317424 -140.2240448 347.57269669 C-139.46262107 345.66800953 -138.69739898 343.76489103 -137.93096924 341.86221313 C-136.34391671 337.92228618 -134.76725299 333.97825675 -133.19238281 330.03344727 C-131.35177212 325.42477023 -129.50895099 320.81699226 -127.66273689 316.21055698 C-123.001737 304.58018322 -118.39933627 292.92692124 -113.81323242 281.2668457 C-113.24515137 279.82290322 -112.67703711 278.3789738 -112.10888672 276.93505859 C-111.84106888 276.25408615 -111.57325104 275.57311371 -111.2973175 274.87150574 C-109.57762413 270.50571606 -107.83058494 266.15168293 -106.06982422 261.80224609 C-105.63653809 260.72289795 -105.20325195 259.6435498 -104.75683594 258.53149414 C-103.98434913 256.60897419 -103.20425797 254.68947928 -102.4140625 252.77416992 C-99.92037624 246.59058557 -99.92037624 246.59058557 -99.97998047 240.00927734 C-101.85767189 237.16007681 -101.85767189 237.16007681 -103.97998047 235.00927734 C-103.21063983 232.52928517 -102.39467818 230.08574371 -101.54248047 227.63427734 C-101.33171875 226.93560547 -101.12095703 226.23693359 -100.90380859 225.51708984 C-100.12777128 223.36487968 -99.46236223 221.76097732 -97.97998047 220.00927734 C-95.98193359 219.62255859 -95.98193359 219.62255859 -93.67138672 219.48583984 C-91.21436221 219.23547675 -91.21436221 219.23547675 -88.97998047 218.00927734 C-85.93789915 213.26889666 -84.22937158 208.04645845 -82.35498047 202.75927734 C-81.7708585 201.19588301 -81.18297892 199.63388801 -80.59155273 198.07324219 C-79.34460473 194.77264858 -78.11552327 191.46614181 -76.89746094 188.15478516 C-74.03384333 180.41423285 -70.95324971 172.7591667 -67.89654541 165.09338379 C-66.34092986 161.18616164 -64.79789966 157.27401255 -63.25732422 153.36083984 C-62.97550293 152.64512817 -62.69368164 151.9294165 -62.40332031 151.1920166 C-59.89467903 144.81084479 -57.4273546 138.41421223 -54.97998047 132.00927734 C-50.06944224 133.90539517 -45.86068865 136.4642599 -41.40576172 139.25537109 C-33.30435975 143.4030672 -25.63750944 144.54096823 -16.60498047 144.44677734 C-15.59346924 144.4399292 -14.58195801 144.43308105 -13.53979492 144.42602539 C-6.06386656 144.26532393 0.21776097 143.24436724 7.02001953 140.00927734 C7.84888672 139.68185547 8.67775391 139.35443359 9.53173828 139.01708984 C22.18501234 133.57439425 31.82045854 122.54202315 37.29345703 110.11865234 C43.10604533 95.03065719 42.71854177 77.45721596 36.34423828 62.55224609 C29.17403257 48.782913 18.21743916 38.56021934 3.58251953 33.19677734 C-2.13080406 31.48910498 -8.08154249 30.78418805 -13.97998047 30.00927734 C-11.86683073 23.39735898 -9.44720975 16.9471215 -6.85498047 10.50927734 C-6.31550781 9.15189453 -6.31550781 9.15189453 -5.76513672 7.76708984 C-5.24886719 6.47931641 -5.24886719 6.47931641 -4.72216797 5.16552734 C-4.25593018 4.0024707 -4.25593018 4.0024707 -3.78027344 2.81591797 C-2.53816606 0.01189276 -2.53816606 0.01189276 0 0 Z " fill="#FAD057" transform="translate(162.97998046875,121.99072265625)"/>
<path d="M0 0 C6.49054767 2.21460411 11.71306119 3.43467377 18.57617188 2.9465332 C19.23617187 1.6265332 19.89617187 0.3065332 20.57617188 -1.0534668 C26.04354379 0.69460449 31.33442035 2.60447401 36.57617188 4.9465332 C36.90617188 8.2465332 37.23617187 11.5465332 37.57617188 14.9465332 C38.25808594 15.20821289 38.94 15.46989258 39.64257812 15.73950195 C65.82207971 26.51109448 89.77907984 43.07415974 111.57617188 60.9465332 C112.13916992 61.40511719 112.70216797 61.86370117 113.28222656 62.33618164 C121.94996485 69.45207557 130.00260897 77.16893797 137.95117188 85.0715332 C138.86640625 85.97750244 139.78164063 86.88347168 140.72460938 87.81689453 C146.76752875 93.88781072 152.22995109 100.26035978 157.57617188 106.9465332 C159.13567372 108.7616135 160.69750999 110.57469646 162.26367188 112.3840332 C178.03117381 131.34896974 191.10909626 152.78178601 201.66552734 175.04418945 C202.58317863 176.96117038 203.53162834 178.86026827 204.48632812 180.7590332 C218.74523596 209.51544697 227.17741924 240.42964155 232.57617188 271.9465332 C232.70894531 272.70627441 232.84171875 273.46601563 232.97851562 274.2487793 C236.65710394 295.64349029 236.65710394 295.64349029 231.35351562 304.91137695 C225.68304647 311.4043757 218.57651085 313.6167641 210.58789062 316.1184082 C209.44834427 316.48629456 208.30879791 316.85418091 207.13471985 317.23321533 C203.51465666 318.39931314 199.88945438 319.54835671 196.26367188 320.6965332 C192.62131774 321.86272027 188.9800741 323.03231721 185.33906555 324.20269775 C183.07756436 324.92824227 180.81504566 325.65062417 178.55143738 326.36956787 C177.53310318 326.69370667 176.51476898 327.01784546 175.46557617 327.35180664 C174.11824654 327.77885895 174.11824654 327.77885895 172.74369812 328.21453857 C170.56412849 328.89525229 170.56412849 328.89525229 168.57617188 329.9465332 C160.87634754 330.60344129 154.76468595 330.84577352 148.57617188 325.9465332 C143.26053622 320.61664652 141.40450312 316.21706733 140.71679688 308.77856445 C140.57351413 307.32567365 140.42926868 305.87287755 140.28417969 304.42016602 C140.21026001 303.65982056 140.13634033 302.8994751 140.06018066 302.11608887 C133.74923055 238.54898626 103.66015102 178.43966379 54.57617188 136.9465332 C49.0466271 132.42791134 43.34611899 128.15172561 37.57617188 123.9465332 C36.98707031 123.51131348 36.39796875 123.07609375 35.79101562 122.62768555 C17.38070674 109.15633714 -3.88532484 99.23880844 -25.42382812 91.9465332 C-26.31908203 91.63635254 -27.21433594 91.32617188 -28.13671875 91.0065918 C-47.41065158 84.36801909 -66.07067408 80.66279523 -86.42602539 79.24829102 C-95.12124238 78.5240359 -100.80936796 76.84634549 -106.79882812 70.3840332 C-111.07948101 63.96305387 -111.04759011 58.58591222 -110.42382812 50.9465332 C-109.56008905 46.70549321 -108.27576632 42.67686297 -106.88085938 38.58325195 C-106.51538498 37.46642532 -106.14991058 36.34959869 -105.77336121 35.19892883 C-105.00316689 32.85907687 -104.22369296 30.52226047 -103.43530273 28.18847656 C-102.23585192 24.63262147 -101.06895127 21.06728718 -99.90625 17.49926758 C-99.14967727 15.21413548 -98.39127598 12.92960781 -97.63085938 10.64575195 C-97.28481155 9.59038742 -96.93876373 8.53502289 -96.58222961 7.44767761 C-93.36853031 -1.99103202 -90.06988354 -8.76976626 -81.42382812 -14.0534668 C-59.01307788 -21.52371688 -21.38583709 -7.47827531 0 0 Z " fill="#D88953" transform="translate(262.423828125,30.053466796875)"/>
<path d="M0 0 C3.94735339 1.5305894 7.47679596 3.34216503 11.125 5.5 C12.67574219 6.41265625 12.67574219 6.41265625 14.2578125 7.34375 C16.20015596 8.51690331 18.11196314 9.74130876 20 11 C19.55849609 11.69891357 19.11699219 12.39782715 18.66210938 13.11791992 C16.96732798 16.05665294 15.67700952 18.96930492 14.40625 22.11328125 C13.93316406 23.27923828 13.46007812 24.44519531 12.97265625 25.64648438 C12.48667969 26.85626953 12.00070313 28.06605469 11.5 29.3125 C10.77103516 31.10977539 10.77103516 31.10977539 10.02734375 32.94335938 C8.67347223 36.29114793 7.33258328 39.64368806 6 43 C5.66613281 43.8357959 5.33226563 44.6715918 4.98828125 45.53271484 C3.8288551 48.50816704 3 50.77631869 3 54 C3.62648438 53.57847656 4.25296875 53.15695312 4.8984375 52.72265625 C5.71570313 52.17480469 6.53296875 51.62695312 7.375 51.0625 C8.18710938 50.51722656 8.99921875 49.97195313 9.8359375 49.41015625 C14.95262958 46.07599408 20.02591641 46.58534638 26 47 C32.35760632 48.87601498 37.68501233 52.44581305 41.328125 58.0390625 C44.43796741 64.23684701 45.27425296 70.4008751 43.41015625 77.12890625 C40.49949321 83.98304824 34.57375855 89.21312073 28 92.5 C19.38009182 93.93665136 13.38977006 92.96008416 6 88 C0.57343145 83.42169592 -1.74367978 77.59641853 -4 71 C-4.66 71 -5.32 71 -6 71 C-6.23660843 71.85692192 -6.23660843 71.85692192 -6.47799683 72.7311554 C-8.56477022 80.00433512 -11.25107222 86.96373044 -14.0703125 93.98046875 C-14.80633251 95.8327214 -15.54234359 97.68497766 -16.27783012 99.53744221 C-18.07474386 104.05962706 -19.88066845 108.57820679 -21.68994141 113.09545898 C-22.71127826 115.64641499 -23.7284763 118.19895163 -24.74142456 120.75325012 C-25.6909044 123.1465408 -26.6466285 125.53736625 -27.60940552 127.92533875 C-29.76216273 133.36527019 -31.36046024 138.19665896 -32 144 C-33.85546875 146.4140625 -33.85546875 146.4140625 -36.1875 148.625 C-47.31408108 160.19522466 -48.55589486 172.98100402 -48.34375 188.1875 C-47.93569473 198.76973329 -43.89184115 207.03189873 -37 215 C-33 219.84210526 -33 219.84210526 -33 222 C-34.07258057 222.42297363 -35.14516113 222.84594727 -36.25024414 223.28173828 C-40.3040992 224.88049415 -44.35776392 226.47973215 -48.41137695 228.07910156 C-50.15188654 228.76575255 -51.89244486 229.45227999 -53.63305664 230.13867188 C-55.3239698 230.80548341 -57.01475604 231.47261691 -58.70541382 232.14007568 C-60.38222021 232.80136576 -62.0596499 233.46107756 -63.73770142 234.11920166 C-67.65095882 235.65755481 -71.54832597 237.21975756 -75.41748047 238.86621094 C-76.09910751 239.15221161 -76.78073456 239.43821228 -77.48301697 239.73287964 C-79.30318132 240.49974275 -81.11753541 241.28035623 -82.93139648 242.06201172 C-86.20250684 243.06190081 -87.80084027 243.12363829 -91 242 C-91.66 241.34 -92.32 240.68 -93 240 C-92.7934984 233.21255759 -89.91672013 227.18294861 -87.3984375 220.96484375 C-86.68030955 219.16437037 -85.96218183 217.36389689 -85.24406433 215.56341934 C-84.4826406 213.65873219 -83.71741852 211.75561369 -82.95098877 209.85293579 C-81.36393625 205.91300883 -79.78727252 201.96897941 -78.21240234 198.02416992 C-76.37179165 193.41549289 -74.52897052 188.80771492 -72.68275642 184.20127964 C-68.02175653 172.57090587 -63.4193558 160.91764389 -58.83325195 149.25756836 C-58.2651709 147.81362588 -57.69705664 146.36969645 -57.12890625 144.92578125 C-56.86108841 144.24480881 -56.59327057 143.56383636 -56.31733704 142.86222839 C-54.59764366 138.49643871 -52.85060447 134.14240559 -51.08984375 129.79296875 C-50.65655762 128.71362061 -50.22327148 127.63427246 -49.77685547 126.5222168 C-49.00436866 124.59969685 -48.2242775 122.68020194 -47.43408203 120.76489258 C-44.94039577 114.58130823 -44.94039577 114.58130823 -45 108 C-46.87769142 105.15079947 -46.87769142 105.15079947 -49 103 C-48.23065936 100.52000783 -47.41469771 98.07646637 -46.5625 95.625 C-46.35173828 94.92632812 -46.14097656 94.22765625 -45.92382812 93.5078125 C-45.14779081 91.35560234 -44.48238176 89.75169997 -43 88 C-41.00195312 87.61328125 -41.00195312 87.61328125 -38.69140625 87.4765625 C-36.23438175 87.2261994 -36.23438175 87.2261994 -34 86 C-30.95791868 81.25961932 -29.24939111 76.0371811 -27.375 70.75 C-26.79087803 69.18660567 -26.20299845 67.62461067 -25.61157227 66.06396484 C-24.36462426 62.76337123 -23.1355428 59.45686447 -21.91748047 56.14550781 C-19.05386287 48.4049555 -15.97326924 40.74988936 -12.91656494 33.08410645 C-11.36094939 29.1768843 -9.81791919 25.26473521 -8.27734375 21.3515625 C-7.99552246 20.63585083 -7.71370117 19.92013916 -7.42333984 19.18273926 C-4.91469856 12.80156745 -2.44737413 6.40493489 0 0 Z " fill="#F6AE43" transform="translate(108,254)"/>
<path d="M0 0 C51.95387669 3.41485396 99.87222675 19.89835474 140.58251953 52.75927734 C141.22511719 53.27780273 141.86771484 53.79632813 142.52978516 54.33056641 C146.41151638 57.52478097 150.0062975 60.89973607 153.50610352 64.50854492 C155.11357571 66.16275809 155.11357571 66.16275809 157.52001953 67.94677734 C160.41460184 70.33480775 162.7202045 72.97780098 165.14892578 75.82958984 C166.36120122 77.24180215 167.5971344 78.6341788 168.85986328 80.00146484 C179.99646701 92.07181244 188.82272367 105.83478658 197.02001953 120.00927734 C197.41962891 120.69715332 197.81923828 121.3850293 198.23095703 122.09375 C208.04663742 139.20119631 215.20155591 157.89769103 220.02001953 177.00927734 C220.19871582 177.70279297 220.37741211 178.39630859 220.56152344 179.11083984 C224.60676294 195.18947924 227.02001953 212.43079771 227.02001953 229.00927734 C225.56376503 229.68047283 224.10494086 230.34609542 222.64501953 231.00927734 C221.83291016 231.38052734 221.02080078 231.75177734 220.18408203 232.13427734 C218.02001953 233.00927734 218.02001953 233.00927734 216.02001953 233.00927734 C215.92503174 232.29199463 215.83004395 231.57471191 215.73217773 230.83569336 C208.96720705 180.30919121 198.48653058 130.74275177 162.02001953 93.00927734 C161.33166016 92.28095703 160.64330078 91.55263672 159.93408203 90.80224609 C154.69147732 85.37775509 148.92646319 80.68911828 143.02001953 76.00927734 C142.06611328 75.22681641 141.11220703 74.44435547 140.12939453 73.63818359 C130.69724607 66.08037233 120.48894284 60.01717154 110.02001953 54.00927734 C109.36275879 53.62497559 108.70549805 53.24067383 108.02832031 52.84472656 C91.59829785 43.27636895 73.37630311 36.78343176 55.02001953 32.00927734 C54.17133301 31.78224121 53.32264648 31.55520508 52.44824219 31.32128906 C31.97426404 25.61542885 31.97426404 25.61542885 12.02001953 31.00927734 C9.46939287 33.04757985 9.46939287 33.04757985 8.02001953 35.00927734 C6.80314453 34.55552734 5.58626953 34.10177734 4.33251953 33.63427734 C-1.63750755 31.62201582 -7.75255536 30.82740893 -13.97998047 30.00927734 C-11.86683073 23.39735898 -9.44720975 16.9471215 -6.85498047 10.50927734 C-6.49533203 9.60435547 -6.13568359 8.69943359 -5.76513672 7.76708984 C-5.24886719 6.47931641 -5.24886719 6.47931641 -4.72216797 5.16552734 C-4.25593018 4.0024707 -4.25593018 4.0024707 -3.78027344 2.81591797 C-2.53816606 0.01189276 -2.53816606 0.01189276 0 0 Z " fill="#F6AE43" transform="translate(162.97998046875,121.99072265625)"/>
<path d="M0 0 C12.58652369 -0.82374631 23.41502141 2.75285411 33 11 C41.0392096 18.41464949 46.45918131 28.40194073 47.23828125 39.34765625 C47.51070123 52.98299333 44.33810558 63.94704915 35.03515625 74.15625 C26.1811401 82.73808121 15.4351051 86.18122164 3.375 86.3125 C2.51003906 86.34150391 1.64507812 86.37050781 0.75390625 86.40039062 C-7.66474516 86.48243146 -13.98851833 83.66722642 -20.875 78.9375 C-21.59429687 78.45152344 -22.31359375 77.96554688 -23.0546875 77.46484375 C-24.87932473 76.09086993 -26.40597617 74.62875018 -28 73 C-25.98474988 65.83856624 -23.5285182 58.95351161 -20.76171875 52.05078125 C-20.35846878 51.03509567 -19.95521881 50.0194101 -19.53974915 48.97294617 C-18.25957932 45.75122431 -16.97364044 42.53184231 -15.6875 39.3125 C-14.83620765 37.17267753 -13.98529314 35.03270471 -13.13476562 32.89257812 C-10.7621687 26.92612105 -8.38264751 20.96244973 -6 15 C-5.66776428 14.16853455 -5.33552856 13.33706909 -4.9932251 12.48040771 C-3.33033658 8.31966267 -1.66605177 4.15947966 0 0 Z " fill="#E74341" transform="translate(143,166)"/>
<path d="M0 0 C6.42103628 4.57105939 11.50376813 9.92226232 15 17 C15.31710938 17.60070312 15.63421875 18.20140625 15.9609375 18.8203125 C19.1780938 25.8744442 19.01487379 33.99602372 17.13867188 41.39819336 C15.1568544 45.81642065 11.78520864 46.96555229 7.47000122 48.71557617 C6.45122894 49.09818604 5.43245667 49.4807959 4.3828125 49.875 C3.33350555 50.28919189 2.28419861 50.70338379 1.20309448 51.13012695 C-1.01311356 51.99892942 -3.23413989 52.85552685 -5.45947266 53.70068359 C-8.86652188 54.9967748 -12.2557456 56.33275794 -15.64453125 57.67578125 C-17.80115083 58.51541991 -19.95867513 59.35273929 -22.1171875 60.1875 C-23.13191132 60.58630371 -24.14663513 60.98510742 -25.19210815 61.39599609 C-26.6185112 61.93281006 -26.6185112 61.93281006 -28.07373047 62.48046875 C-28.90629364 62.79910889 -29.73885681 63.11774902 -30.59664917 63.44604492 C-33.42744429 64.09852283 -35.22848405 63.80917192 -38 63 C-45.35041995 58.24134662 -51.41614862 50.37686976 -54 42 C-55.20670088 30.48702933 -54.72311177 19.87375738 -47.8125 10.3125 C-35.75294218 -4.16906106 -17.19683555 -8.87194974 0 0 Z " fill="#E74341" transform="translate(128,404)"/>
<path d="M0 0 C11.00030421 5.92065303 17.69279065 15.36450481 22.3671875 26.75 C25.78761688 38.41200646 24.72776158 52.99385359 19.28125 63.7578125 C14.67274943 70.96212156 8.31132619 79.24910075 -0.1328125 81.8125 C-3.6328125 81.75 -3.6328125 81.75 -6.6328125 79.75 C-8.6328125 76.75 -8.6328125 76.75 -9.0703125 73.5 C-8.01716905 68.6450087 -3.71349394 66.05894449 -0.0859375 63.02734375 C4.7537791 58.53442213 7.15050363 52.6504684 7.640625 46.08984375 C7.93104551 37.15202521 7.65540819 30.32781344 2.3671875 22.75 C1.6865625 21.6775 1.0059375 20.605 0.3046875 19.5 C-5.32389646 13.43844805 -12.91816768 10.50339864 -21.04101562 10.08642578 C-28.93828019 10.00119099 -35.00743575 11.16833825 -41.6328125 15.75 C-42.5403125 16.306875 -43.4478125 16.86375 -44.3828125 17.4375 C-51.52586328 24.77896886 -53.93743928 32.51625991 -53.94750977 42.48828125 C-53.7757956 51.52715225 -50.89885997 58.36862167 -44.6953125 65 C-41.07944514 68.06800867 -36.93501608 69.83952993 -32.6328125 71.75 C-29.86649112 73.30605577 -27.86604976 74.51676274 -25.6328125 76.75 C-25.17871371 80.23142404 -25.23804846 82.09778115 -27.0703125 85.125 C-30.98137727 87.60518742 -34.23514769 87.67683343 -38.6328125 86.75 C-51.6013251 81.67606945 -60.63952714 73.16578828 -66.4765625 60.609375 C-66.858125 59.66578125 -67.2396875 58.7221875 -67.6328125 57.75 C-68.00664062 56.85152344 -68.38046875 55.95304687 -68.765625 55.02734375 C-71.63367111 44.1881965 -71.27682768 29.54775669 -65.6328125 19.75 C-50.95069394 -3.96227112 -25.2660236 -11.99573821 0 0 Z " fill="#040201" transform="translate(318.6328125,261.25)"/>
<path d="M0 0 C5.20329371 3.04357043 9.03194153 6.49006837 12.375 11.5 C12.80683594 12.13164062 13.23867188 12.76328125 13.68359375 13.4140625 C18.01480275 21.17726755 17.70265483 31.83586314 15.71484375 40.31640625 C12.99217485 47.0936124 7.80708254 52.32664964 2.4375 57.125 C0.06063885 59.39674995 0.06063885 59.39674995 0.0625 62.8125 C0.2171875 64.1428125 0.2171875 64.1428125 0.375 65.5 C-5.70377934 68.74201565 -10.80901613 68.83278764 -17.625 68.5 C-17.91375 67.7059375 -18.2025 66.911875 -18.5 66.09375 C-20.22808129 62.10956257 -23.08776732 61.19826841 -26.9296875 59.453125 C-35.99321461 55.21062295 -41.98793104 49.98375507 -45.625 40.5 C-48.17004554 32.7444896 -47.974986 22.13394393 -44.375 14.8125 C-41.14448702 9.19898516 -37.60121801 5.15612319 -32.0625 1.75 C-31.11246094 1.15703125 -30.16242188 0.5640625 -29.18359375 -0.046875 C-20.90774539 -4.74705147 -8.44122302 -3.94779632 0 0 Z " fill="#E74341" transform="translate(310.625,273.5)"/>
<path d="M0 0 C0.96099609 0.14308594 1.92199219 0.28617188 2.91210938 0.43359375 C5.2548455 0.78325586 7.59651777 1.1388144 9.9375 1.5 C6.72043611 3.94379567 3.43809757 6.01332874 -0.0625 8.0234375 C-10.09785507 15.43235198 -14.99152264 34.63690144 -17.0625 46.5 C-16.423125 46.809375 -15.78375 47.11875 -15.125 47.4375 C-13.0625 48.5 -13.0625 48.5 -12.0625 49.5 C-11.6875 52.8125 -11.6875 52.8125 -12.0625 56.5 C-14.78163126 59.6190035 -16.23623382 60.43764029 -20.375 60.75 C-21.261875 60.6675 -22.14875 60.585 -23.0625 60.5 C-23.18367188 61.08007812 -23.30484375 61.66015625 -23.4296875 62.2578125 C-23.59726563 63.03898437 -23.76484375 63.82015625 -23.9375 64.625 C-24.09992188 65.39070313 -24.26234375 66.15640625 -24.4296875 66.9453125 C-25.0625 69.5 -25.0625 69.5 -26.125 72.28125 C-27.28207847 76.25388607 -27.28404191 79.76825561 -27.1875 83.875 C-27.17847656 84.61105469 -27.16945312 85.34710938 -27.16015625 86.10546875 C-27.13680144 87.9037888 -27.10093836 89.70193911 -27.0625 91.5 C-33.83711196 92.06039989 -38.78874534 91.99917515 -44.41015625 87.9296875 C-48.58620906 84.31636521 -51.74778078 80.25464512 -52.38237 74.70027161 C-52.4504266 66.5598649 -51.13638391 59.81635425 -48.51953125 52.13671875 C-48.15405685 51.01989212 -47.78858246 49.90306549 -47.41203308 48.75239563 C-46.64183876 46.41254367 -45.86236483 44.07572727 -45.07397461 41.74194336 C-43.8745238 38.18608826 -42.70762315 34.62075398 -41.54492188 31.05273438 C-40.78834915 28.76760228 -40.02994785 26.48307461 -39.26953125 24.19921875 C-38.92348343 23.14385422 -38.57743561 22.08848969 -38.22090149 21.00114441 C-35.00720218 11.56243478 -31.70855542 4.78370053 -23.0625 -0.5 C-15.70539413 -2.95236862 -7.49485999 -1.15786981 0 0 Z " fill="#C07541" transform="translate(204.0625,16.5)"/>
<path d="M0 0 C8.35338118 -0.53858582 15.12578597 1.23538567 23 4 C22.01 4.33 21.02 4.66 20 5 C19.09833757 7.00809128 19.09833757 7.00809128 18.54125977 9.46850586 C17.12694932 14.6384122 15.33304471 19.53283622 13.33984375 24.50390625 C12.99341827 25.37773453 12.6469928 26.25156281 12.29006958 27.15187073 C11.17674544 29.95710487 10.05744203 32.75990211 8.9375 35.5625 C8.16892612 37.49257094 7.40061678 39.42274724 6.63256836 41.35302734 C5.48854515 44.22720433 4.3439062 47.10112754 3.19721985 49.97424316 C1.02189275 55.42496058 -1.13592605 60.88201139 -3.2734375 66.34765625 C-3.73355225 67.51804443 -4.19366699 68.68843262 -4.66772461 69.89428711 C-5.49377994 71.99603489 -6.31516146 74.09962767 -7.13110352 76.20532227 C-7.48873779 77.10951904 -7.84637207 78.01371582 -8.21484375 78.9453125 C-8.51511475 79.71375488 -8.81538574 80.48219727 -9.12475586 81.27392578 C-10 83 -10 83 -12 84 C-18.15296293 81.48116996 -23.14220775 77.44436313 -28 73 C-25.98474988 65.83856624 -23.5285182 58.95351161 -20.76171875 52.05078125 C-20.35846878 51.03509567 -19.95521881 50.0194101 -19.53974915 48.97294617 C-18.25957932 45.75122431 -16.97364044 42.53184231 -15.6875 39.3125 C-14.83620765 37.17267753 -13.98529314 35.03270471 -13.13476562 32.89257812 C-10.7621687 26.92612105 -8.38264751 20.96244973 -6 15 C-5.66776428 14.16853455 -5.33552856 13.33706909 -4.9932251 12.48040771 C-3.33033658 8.31966267 -1.66605177 4.15947966 0 0 Z " fill="#CC3535" transform="translate(143,166)"/>
<path d="M0 0 C7.21715559 4.24538564 11.9304119 8.58120288 14.1875 16.875 C15.06231646 22.69207852 14.59306653 27.77299383 11.65234375 32.921875 C7.54494384 38.39840822 2.11516538 43.7203891 -4.8125 44.875 C-12.16926331 45.88726782 -17.69541758 44.01883003 -23.8125 39.875 C-28.3186836 35.79620701 -31.4035897 31.42774015 -32.11328125 25.26171875 C-32.14552071 17.83589753 -31.02529263 12.53461858 -27.1875 6.1875 C-19.28169389 -1.51025858 -10.54867439 -3.11272359 0 0 Z " fill="#040301" transform="translate(137.8125,302.125)"/>
<path d="M0 0 C5.9069548 3.51664046 10.52388629 8.95879694 12.625 15.5 C13.54778893 22.67843948 12.78702497 28.52305922 8.625 34.5 C4.35184349 39.72274684 -0.56886918 43.04447902 -7.3125 43.8515625 C-14.9209796 44.06079569 -19.50759023 42.80202963 -26 38.9375 C-30.75896523 34.05329885 -33.65235099 28.24531223 -33.875 21.375 C-33.48676191 14.50534272 -31.36791034 8.36151797 -26.375 3.5 C-18.78792088 -2.45774976 -8.98889366 -3.89227823 0 0 Z " fill="#030301" transform="translate(232.375,357.5)"/>
<path d="M0 0 C1.13598633 0.00483398 1.13598633 0.00483398 2.29492188 0.00976562 C3.47344727 0.02233398 3.47344727 0.02233398 4.67578125 0.03515625 C5.47306641 0.03966797 6.27035156 0.04417969 7.09179688 0.04882812 C9.05732382 0.06059775 11.0228121 0.07853277 12.98828125 0.09765625 C12.41078125 0.34386719 11.83328125 0.59007812 11.23828125 0.84375 C4.13416318 4.8028158 -0.56728025 12.52956416 -3.01171875 20.09765625 C-5.84520423 31.6230499 -4.21740458 42.23377032 1.30859375 52.56640625 C4.25793447 57.40139104 7.50023593 60.61306186 12.15234375 63.8125 C14.35097162 65.35153951 16.17076454 67.12867981 17.98828125 69.09765625 C14.21606036 70.84929081 11.32164225 71.32255652 7.17578125 71.22265625 C6.19996094 71.20460938 5.22414063 71.1865625 4.21875 71.16796875 C3.48269531 71.14476562 2.74664062 71.1215625 1.98828125 71.09765625 C1.69953125 70.30359375 1.41078125 69.50953125 1.11328125 68.69140625 C-0.61480004 64.70721882 -3.47448607 63.79592466 -7.31640625 62.05078125 C-16.37993336 57.8082792 -22.37464979 52.58141132 -26.01171875 43.09765625 C-28.55676429 35.34214585 -28.36170475 24.73160018 -24.76171875 17.41015625 C-21.53120577 11.79664141 -17.98793676 7.75377944 -12.44921875 4.34765625 C-11.49917969 3.7546875 -10.54914063 3.16171875 -9.5703125 2.55078125 C-6.25988614 0.67066124 -3.74844263 -0.02818378 0 0 Z " fill="#CD3535" transform="translate(291.01171875,270.90234375)"/>
<path d="M0 0 C-2.10043498 1.58640448 -4.20212404 3.1382954 -6.375 4.625 C-13.85860944 11.39588473 -18.63954051 20.99637383 -19.3828125 31.05859375 C-19.85586857 42.5398971 -17.93107889 52.5935358 -11 62 C-11 62.66 -11 63.32 -11 64 C-12.5552912 64.70365602 -14.11964827 65.38729378 -15.6875 66.0625 C-16.55761719 66.44535156 -17.42773438 66.82820313 -18.32421875 67.22265625 C-21.41886563 68.12168505 -22.96092366 68.01794305 -26 67 C-33.35041995 62.24134662 -39.41614862 54.37686976 -42 46 C-43.20670088 34.48702933 -42.72311177 23.87375738 -35.8125 14.3125 C-25.96355484 2.48552401 -15.10929323 -0.78376737 0 0 Z " fill="#CD3535" transform="translate(116,400)"/>
<path d="M0 0 C1.8227607 3.47904634 2.78565842 6.80992937 3.75 10.625 C6.52275647 20.51449808 11.32749742 27.37428277 18 35 C18 35.66 18 36.32 18 37 C13.0538405 38.99820289 8.10590477 40.99191611 3.15625 42.98144531 C1.47183128 43.65924189 -0.21209074 44.33827417 -1.89550781 45.01855469 C-4.31186236 45.99477331 -6.72995399 46.96656976 -9.1484375 47.9375 C-9.9036972 48.24373291 -10.65895691 48.54996582 -11.43710327 48.86547852 C-16.77225659 51 -16.77225659 51 -19 51 C-18.31542317 46.85161059 -17.01502957 43.17042308 -15.48828125 39.2578125 C-15.2375737 38.61238495 -14.98686615 37.9669574 -14.7285614 37.30197144 C-13.92701848 35.24147219 -13.11978675 33.18325462 -12.3125 31.125 C-11.78935446 29.78138976 -11.26656509 28.43764078 -10.74414062 27.09375 C-7.21862149 18.04012793 -3.62218471 9.0153234 0 0 Z " fill="#F9CF56" transform="translate(57,439)"/>
<path d="M0 0 C1.9375 2.375 1.9375 2.375 2.5625 5.3125 C1.69592701 9.55870766 0.45771471 10.84044541 -3.0625 13.375 C-5.3046875 13.91796875 -5.3046875 13.91796875 -7.8125 14.3125 C-14.97698911 15.44261286 -19.97599749 19.41074767 -25.1875 24.25 C-28.0625 26.375 -28.0625 26.375 -31.6875 27 C-35.0625 26.375 -35.0625 26.375 -37.5 24.1875 C-39.89583333 19.875 -39.89583333 19.875 -39.0625 16.375 C-34.10691237 7.90052871 -23.50991038 1.35620016 -14.22265625 -1.22265625 C-8.95060931 -2.20461074 -4.82011059 -2.5576097 0 0 Z " fill="#060502" transform="translate(216.0625,274.625)"/>
<path d="M0 0 C6.3409516 5.38587038 9.19112947 12.85168358 10.26318359 21.00048828 C10.81004754 28.07866735 10.88134987 34.90073591 7 41 C5.1875 43 5.1875 43 3 44 C-0.13301882 43.87212168 -2.16948999 43.64422966 -4.67407227 41.70141602 C-6.33716192 39.5673575 -6.30580454 38.57364267 -6.15234375 35.90234375 C-6.1069043 34.70689941 -6.1069043 34.70689941 -6.06054688 33.48730469 C-5.99963867 32.22515137 -5.99963867 32.22515137 -5.9375 30.9375 C-5.75022822 24.19824661 -6.0912919 19.1628516 -9.09375 13.0078125 C-10.51004633 9.86998357 -10.53733563 7.35834767 -10 4 C-7.27238925 -0.09141613 -4.79563536 -0.88083098 0 0 Z " fill="#040301" transform="translate(463,281)"/>
<path d="M0 0 C5.59008995 4.8100774 8.48302567 11.85364923 9.21582031 19.1484375 C9.35449263 21.51883632 9.41691503 23.87570571 9.4375 26.25 C9.4475708 27.00635742 9.4576416 27.76271484 9.46801758 28.54199219 C9.38806456 33.7066167 8.42515927 37.42243777 6 42 C2.95016004 43.52491998 0.3576631 43.23562548 -3 43 C-5.10358381 41.45737187 -5.84054159 40.31891683 -7 38 C-6.99415331 35.30759948 -6.94563222 32.62810139 -6.875 29.9375 C-6.76279582 22.46062142 -7.59817296 16.80365408 -11 10 C-11.38503376 6.45768939 -11.41935959 4.63742658 -9.4375 1.625 C-5.99956084 -0.66695944 -4.05050717 -0.71061529 0 0 Z " fill="#050401" transform="translate(246,177)"/>
<path d="M0 0 C3 2.0625 3 2.0625 5 5 C5.1526226 9.3497442 4.71471806 11.2257221 1.75 14.4375 C-1.31174854 16.17712985 -2.56624271 16.77259539 -6 16 C-9.62336332 13.3428669 -10.85568506 11.91399461 -11.5625 7.4375 C-11 4 -11 4 -9.4375 1.5625 C-6.01685857 -0.63021887 -3.99048721 -0.63007693 0 0 Z " fill="#99D049" transform="translate(132,316)"/>
<path d="M0 0 C1.91015625 0.4453125 1.91015625 0.4453125 4.47265625 2.5078125 C6.3464113 6.33679022 6.03978326 8.37865526 4.91015625 12.4453125 C3.84765625 14.3828125 3.84765625 14.3828125 1.91015625 15.4453125 C-1.18329153 15.83813127 -3.1355958 16.07539355 -6.08984375 15.4453125 C-9.11775416 12.87158866 -9.95147084 11.29284656 -10.58984375 7.3828125 C-10.08984375 4.4453125 -10.08984375 4.4453125 -8.58984375 2.0703125 C-5.55625142 0.09847749 -3.57053359 -0.20021684 0 0 Z " fill="#9CD44A" transform="translate(224.08984375,370.5546875)"/>
<path d="M0 0 C2.4375 1.625 2.4375 1.625 4 4 C4.5625 6.9375 4.5625 6.9375 4 10 C1.70985284 13.0099077 0.20864386 14.69783903 -3.5 15.625 C-7.20864386 14.69783903 -8.70985284 13.0099077 -11 10 C-11.6767545 6.31544773 -11.49791771 4.75683492 -9.4375 1.625 C-6.06489221 -0.62340519 -3.97487617 -0.56783945 0 0 Z " fill="#0B0904" transform="translate(359,326)"/>
<path d="M0 0 C3.0099077 2.29014716 4.69783903 3.79135614 5.625 7.5 C4.69783903 11.20864386 3.0099077 12.70985284 0 15 C-3.68455227 15.6767545 -5.24316508 15.49791771 -8.375 13.4375 C-10.62340519 10.06489221 -10.56783945 7.97487617 -10 4 C-7.27238925 -0.09141613 -4.79563536 -0.88083098 0 0 Z " fill="#0B0903" transform="translate(240,243)"/>
<path d="M0 0 C2.9375 2.0625 2.9375 2.0625 5 5 C5.06625411 8.8427383 4.81899419 10.99200716 2.375 14 C-1.11581787 15.46981805 -3.39148956 14.98413921 -7 14 C-9.5881216 11.74582958 -9.94242643 10.39479021 -10.4375 7 C-10 4 -10 4 -8.375 1.625 C-5.24988831 -0.51323431 -3.71837535 -0.6829669 0 0 Z " fill="#080503" transform="translate(233,68)"/>
<path d="M0 0 C1.9375 1.125 1.9375 1.125 3 3 C3.5 6.4375 3.5 6.4375 3 10 C0.9375 12.5 0.9375 12.5 -2 14 C-5.80284671 14 -8.01930006 13.7968187 -11 11.375 C-12.46981805 7.88418213 -11.98413921 5.60851044 -11 2 C-7.79952331 -1.93904824 -4.62362797 -1.17692348 0 0 Z " fill="#070402" transform="translate(189,63)"/>
<path d="M0 0 C2 1.625 2 1.625 3 4 C2.87988224 7.42335626 2.60726153 9.95416069 0.875 12.9375 C-2.22289358 14.69297303 -4.52844534 14.48723574 -8 14 C-10.5 11.9375 -10.5 11.9375 -12 9 C-12 5.19715329 -11.7968187 2.98069994 -9.375 0 C-5.88418213 -1.46981805 -3.60851044 -0.98413921 0 0 Z " fill="#080503" transform="translate(215,39)"/>
<path d="M0 0 C2.4375 1.625 2.4375 1.625 4 4 C4.60605429 7.63632575 4.47161336 9.28314769 2.4375 12.375 C-0.93510779 14.62340519 -3.02512383 14.56783945 -7 14 C-9.4375 12.375 -9.4375 12.375 -11 10 C-11.60605429 6.36367425 -11.47161336 4.71685231 -9.4375 1.625 C-6.06489221 -0.62340519 -3.97487617 -0.56783945 0 0 Z " fill="#070602" transform="translate(157,361)"/>
<path d="M0 0 C3.4375 0.9375 3.4375 0.9375 5.375 2.0625 C7.1087306 5.12202459 6.85895216 7.50567525 6.4375 10.9375 C4.8125 13.375 4.8125 13.375 2.4375 14.9375 C-1.19882575 15.54355429 -2.84564769 15.40911336 -5.9375 13.375 C-8.18590519 10.00239221 -8.13033945 7.91237617 -7.5625 3.9375 C-5.29401339 0.30792142 -4.30870043 -0.07559124 0 0 Z " fill="#060502" transform="translate(222.5625,316.0625)"/>
<path d="M0 0 C2.4375 1.625 2.4375 1.625 4 4 C4.60605429 7.63632575 4.47161336 9.28314769 2.4375 12.375 C-0.95870843 14.63913895 -3.00099302 14.64269755 -7 14 C-9.5 11.875 -9.5 11.875 -11 9 C-10.936318 5.81590023 -10.51040601 3.85067668 -8.875 1.125 C-5.83167192 -0.70099685 -3.45750445 -0.42460581 0 0 Z " fill="#060502" transform="translate(308,218)"/>
</svg>
