<?xml version="1.0" encoding="UTF-8"?>
<svg version="1.1" xmlns="http://www.w3.org/2000/svg" width="512" height="512">
<path d="M0 0 C15.84 0 31.68 0 48 0 C48 10.56 48 21.12 48 32 C45.69 32 43.38 32 41 32 C52.51340152 66.77571951 66.14588809 98.56326903 85.6784668 129.67333984 C87 132 87 132 87 134 C89.20060416 131.9507144 90.70460808 130.01033347 92.12890625 127.3671875 C92.71393921 126.29513062 92.71393921 126.29513062 93.31079102 125.20141602 C93.72385498 124.43369873 94.13691895 123.66598145 94.5625 122.875 C97.54861939 117.39448252 100.58493222 111.9670571 103.81640625 106.62719727 C117.88813658 83.3112444 126.64118151 57.80214067 135 32 C132.69 32 130.38 32 128 32 C128 21.44 128 10.88 128 0 C143.84 0 159.68 0 176 0 C176 10.56 176 21.12 176 32 C173.69 32 171.38 32 169 32 C179.21227021 62.84570999 190.78722569 91.47885997 207.52075195 119.41430664 C209.72576805 123.10060553 211.86814406 126.73131793 213.76171875 130.58984375 C214.76637948 133.12952139 214.76637948 133.12952139 217 134 C217.37318359 132.98292969 217.37318359 132.98292969 217.75390625 131.9453125 C219.2372279 128.43927952 221.0532058 125.17528526 222.9375 121.875 C223.3286499 121.18269287 223.7197998 120.49038574 224.12280273 119.77709961 C226.29911893 115.93812395 228.51098763 112.12234751 230.7578125 108.32421875 C245.02372932 84.16600504 254.36958527 58.6405085 263 32 C260.69 32 258.38 32 256 32 C256 21.44 256 10.88 256 0 C271.84 0 287.68 0 304 0 C304 10.56 304 21.12 304 32 C301.69 32 299.38 32 297 32 C306.75729279 61.47147085 317.57053507 89.21366689 333.5 115.9375 C337.33386526 122.3828148 341.13536418 128.82729293 344.5625 135.5 C345.14128906 136.6240625 345.72007812 137.748125 346.31640625 138.90625 C350.8630726 149.18940886 352.59749427 159.38604235 352.56518555 170.5534668 C352.5770137 171.82887329 352.58884186 173.10427979 352.60102844 174.41833496 C352.6317179 177.87591997 352.63736088 181.33308546 352.63609672 184.79079032 C352.63693706 187.706761 352.64925183 190.62264527 352.66104633 193.53858882 C352.68830147 200.44285637 352.69378629 207.34691073 352.6862793 214.2512207 C352.67907694 221.29504686 352.71227482 228.33786282 352.76533669 235.38147038 C352.80964336 241.49088308 352.82578685 247.59997621 352.8213008 253.70954639 C352.81901705 257.33060618 352.82650608 260.95085225 352.86237144 264.57175255 C353.02875378 282.72549735 351.1269532 298.91956569 345.79520607 316.32615089 C339.1030877 338.82813546 339.6357465 360.50700093 347.46484375 382.578125 C347.97703134 384.05192048 348.48873898 385.52588283 349 387 C349.4180188 388.15218018 349.4180188 388.15218018 349.84448242 389.32763672 C352.13828601 396.12910259 352.50386359 402.47827356 352.4375 409.625 C352.42614014 411.33925171 352.42614014 411.33925171 352.41455078 413.08813477 C352.14264382 427.13103759 349.68809219 440.9748483 340.29296875 452.00390625 C336.30338479 455.62392874 332.84650551 456.42102927 327.5 456.625 C317.93742706 456.11764319 313.04626456 452.50869272 306.46875 445.8046875 C305 444 305 444 305 442 C304.34 442 303.68 442 303 442 C302.75894531 442.57492187 302.51789063 443.14984375 302.26953125 443.7421875 C300.75476107 446.43614801 299.00033578 448.08037543 296.6875 450.125 C295.92824219 450.80820312 295.16898437 451.49140625 294.38671875 452.1953125 C287.9028397 457.09801646 280.82683763 456.69295498 273 456 C266.32317352 454.29021299 261.26151184 449.23621934 257 444 C257 443.34 257 442.68 257 442 C256.34 442 255.68 442 255 442 C254.75894531 442.57492187 254.51789063 443.14984375 254.26953125 443.7421875 C252.75476107 446.43614801 251.00033578 448.08037543 248.6875 450.125 C247.92824219 450.80820312 247.16898437 451.49140625 246.38671875 452.1953125 C240.98338527 456.28097546 235.86036994 456.53601441 229.24609375 456.4609375 C224.38033085 455.77001088 221.29101273 453.56834527 218 450 C217.67 449.34 217.34 448.68 217 448 C216.34 448 215.68 448 215 448 C214.401875 448.763125 213.80375 449.52625 213.1875 450.3125 C210.20218725 453.98016995 207.68183794 455.76096798 202.94921875 456.43359375 C192.93689561 456.44558456 187.70074703 454.78671181 180.5 447.875 C177 444.30769231 177 444.30769231 177 442 C176.34 442 175.68 442 175 442 C174.75894531 442.57492187 174.51789063 443.14984375 174.26953125 443.7421875 C172.75476107 446.43614801 171.00033578 448.08037543 168.6875 450.125 C167.92824219 450.80820312 167.16898438 451.49140625 166.38671875 452.1953125 C159.9028397 457.09801646 152.82683763 456.69295498 145 456 C138.32317352 454.29021299 133.26151184 449.23621934 129 444 C129 443.34 129 442.68 129 442 C128.34 442 127.68 442 127 442 C126.75894531 442.57492187 126.51789063 443.14984375 126.26953125 443.7421875 C124.75476107 446.43614801 123.00033578 448.08037543 120.6875 450.125 C119.92824219 450.80820312 119.16898438 451.49140625 118.38671875 452.1953125 C112.98338527 456.28097546 107.86036994 456.53601441 101.24609375 456.4609375 C96.38033085 455.77001088 93.29101273 453.56834527 90 450 C89.67 449.34 89.34 448.68 89 448 C88.34 448 87.68 448 87 448 C86.401875 448.763125 85.80375 449.52625 85.1875 450.3125 C82.20218725 453.98016995 79.68183794 455.76096798 74.94921875 456.43359375 C64.93689561 456.44558456 59.70074703 454.78671181 52.5 447.875 C49 444.30769231 49 444.30769231 49 442 C48.34 442 47.68 442 47 442 C46.75894531 442.57492187 46.51789063 443.14984375 46.26953125 443.7421875 C44.75476107 446.43614801 43.00033578 448.08037543 40.6875 450.125 C39.92824219 450.80820312 39.16898437 451.49140625 38.38671875 452.1953125 C31.9028397 457.09801646 24.82683763 456.69295498 17 456 C10.32317352 454.29021299 5.26151184 449.23621934 1 444 C1 443.34 1 442.68 1 442 C0.34 442 -0.32 442 -1 442 C-1.24105469 442.57492187 -1.48210937 443.14984375 -1.73046875 443.7421875 C-3.24523893 446.43614801 -4.99966422 448.08037543 -7.3125 450.125 C-8.07175781 450.80820312 -8.83101562 451.49140625 -9.61328125 452.1953125 C-15.79470561 456.86931914 -22.51006647 456.96234297 -30 456 C-36.155311 453.79662102 -38.83100463 448.99758596 -41.8125 443.4375 C-49.24507738 427.61622772 -51.48089311 406.72533111 -46.3125 389.8125 C-45.57225767 387.86310738 -44.80054045 385.92541561 -44 384 C-43.10296088 381.52577868 -42.22312648 379.05320055 -41.375 376.5625 C-41.16117676 375.93472656 -40.94735352 375.30695313 -40.72705078 374.66015625 C-32.50485 349.59955999 -38.90583476 323.90333262 -46.29150391 299.52929688 C-47.53757186 295.08089438 -48.12685659 290.99185035 -48.14717102 286.36781311 C-48.15432632 285.24526123 -48.16148163 284.12270935 -48.16885376 282.96614075 C-48.17154266 281.74376205 -48.17423157 280.52138336 -48.17700195 279.26196289 C-48.18357315 277.96698883 -48.19014435 276.67201477 -48.19691467 275.33779907 C-48.21789528 271.0494306 -48.22831602 266.76106204 -48.23828125 262.47265625 C-48.24233198 260.99049804 -48.24644899 259.50834002 -48.25063133 258.02618217 C-48.2696751 251.05617367 -48.28390408 244.08617565 -48.2922433 237.11614615 C-48.30199284 229.10184933 -48.32825566 221.08783039 -48.36874419 213.07363135 C-48.39904422 206.86019742 -48.4137255 200.64684249 -48.41702431 194.4333362 C-48.41936031 190.73171311 -48.42812814 187.03038709 -48.45348549 183.32884407 C-48.4814032 179.18658531 -48.47689302 175.04493517 -48.4699707 170.90258789 C-48.48278076 169.69842728 -48.49559082 168.49426666 -48.50878906 167.25361633 C-48.44105284 156.05567503 -45.75311297 145.57957223 -40.625 135.625 C-40.29612793 134.98473877 -39.96725586 134.34447754 -39.62841797 133.68481445 C-36.33724929 127.40054244 -32.71716527 121.30270506 -29.125 115.1875 C-13.51941501 88.59990071 -2.35789411 61.40003016 7 32 C4.69 32 2.38 32 0 32 C0 21.44 0 10.88 0 0 Z M87 322 C84.24701043 339.36726397 82.29228937 355.69598254 87 373 C87.66 373 88.32 373 89 373 C92.13663359 360.11848537 92.69868917 347.73179359 91.125 334.5625 C91.04660889 333.88823975 90.96821777 333.21397949 90.88745117 332.51928711 C90.39455424 328.73915045 89.58981086 325.46685646 88 322 C87.67 322 87.34 322 87 322 Z M215 322 C212.24701043 339.36726397 210.29228937 355.69598254 215 373 C215.66 373 216.32 373 217 373 C221.25332314 355.53246904 219.78939145 339.59690565 217 322 C216.34 322 215.68 322 215 322 Z " fill="#7B9E3E" transform="translate(104,24)"/>
<path d="M0 0 C15.84 0 31.68 0 48 0 C48 10.56 48 21.12 48 32 C45.69 32 43.38 32 41 32 C50.75729279 61.47147085 61.57053507 89.21366689 77.5 115.9375 C81.33386526 122.3828148 85.13536418 128.82729293 88.5625 135.5 C89.14128906 136.6240625 89.72007812 137.748125 90.31640625 138.90625 C94.8630726 149.18940886 96.59749427 159.38604235 96.56518555 170.5534668 C96.5770137 171.82887329 96.58884186 173.10427979 96.60102844 174.41833496 C96.6317179 177.87591997 96.63736088 181.33308546 96.63609672 184.79079032 C96.63693706 187.706761 96.64925183 190.62264527 96.66104633 193.53858882 C96.68830147 200.44285637 96.69378629 207.34691073 96.6862793 214.2512207 C96.67907694 221.29504686 96.71227482 228.33786282 96.76533669 235.38147038 C96.80964336 241.49088308 96.82578685 247.59997621 96.8213008 253.70954639 C96.81901705 257.33060618 96.82650608 260.95085225 96.86237144 264.57175255 C97.02875378 282.72549735 95.1269532 298.91956569 89.79520607 316.32615089 C83.1030877 338.82813546 83.6357465 360.50700093 91.46484375 382.578125 C91.97703134 384.05192048 92.48873898 385.52588283 93 387 C93.4180188 388.15218018 93.4180188 388.15218018 93.84448242 389.32763672 C96.13828601 396.12910259 96.50386359 402.47827356 96.4375 409.625 C96.42614014 411.33925171 96.42614014 411.33925171 96.41455078 413.08813477 C96.14264382 427.13103759 93.68809219 440.9748483 84.29296875 452.00390625 C80.30338479 455.62392874 76.84650551 456.42102927 71.5 456.625 C61.93742706 456.11764319 57.04626456 452.50869272 50.46875 445.8046875 C49 444 49 444 49 442 C48.34 442 47.68 442 47 442 C46.75894531 442.57492187 46.51789063 443.14984375 46.26953125 443.7421875 C44.75476107 446.43614801 43.00033578 448.08037543 40.6875 450.125 C39.92824219 450.80820312 39.16898438 451.49140625 38.38671875 452.1953125 C31.9028397 457.09801646 24.82683763 456.69295498 17 456 C10.32317352 454.29021299 5.26151184 449.23621934 1 444 C1 443.34 1 442.68 1 442 C0.34 442 -0.32 442 -1 442 C-1.24105469 442.57492187 -1.48210937 443.14984375 -1.73046875 443.7421875 C-3.24523893 446.43614801 -4.99966422 448.08037543 -7.3125 450.125 C-8.07175781 450.80820312 -8.83101562 451.49140625 -9.61328125 452.1953125 C-15.01714039 456.28137293 -20.14227241 456.53953799 -26.7578125 456.45703125 C-31.65035022 455.76736027 -34.68791137 453.57288302 -38 450 C-40 447 -40 447 -39.74609375 444.62890625 C-38.99539963 441.98379031 -38.08278008 439.49012526 -37.0625 436.9375 C-30.74813179 419.6016891 -30.87058551 400.96765722 -37.58984375 383.8828125 C-39.54505768 378.81805642 -40.61365252 373.94744257 -39.125 368.625 C-35.86585396 355.5663946 -36.7373437 342.88618799 -39.02050781 329.73730469 C-40.67909679 319.53563558 -39.03511097 312.11703657 -36 302 C-34.68 294.74 -33.36 287.48 -32 280 C-79.52 280 -127.04 280 -176 280 C-176 243.04 -176 206.08 -176 168 C-128.48 168 -80.96 168 -32 168 C-33.41464973 156.69495135 -33.41464973 156.69495135 -36.5625 146.5 C-40.75708862 135.84549596 -40.75708862 135.84549596 -39.12524414 131.86767578 C-37.75324287 129.28878968 -36.2765161 126.80303525 -34.75 124.3125 C-34.2044043 123.38985352 -33.65880859 122.46720703 -33.09667969 121.51660156 C-31.41162089 118.66923185 -29.70671105 115.83443029 -28 113 C-12.63855391 87.19572469 -2.24937546 60.55112683 7 32 C4.69 32 2.38 32 0 32 C0 21.44 0 10.88 0 0 Z " fill="#F8BB1D" transform="translate(360,24)"/>
<path d="M0 0 C47.52 0 95.04 0 144 0 C142.88020391 14.55734919 142.88020391 14.55734919 141.1875 20.6875 C140.82749975 22.04506329 140.46950442 23.40315947 140.11328125 24.76171875 C139.92975098 25.45313965 139.7462207 26.14456055 139.55712891 26.85693359 C132.86215237 52.61000284 129.55993876 78.47372691 139.52734375 103.9453125 C146.68555255 122.71422467 146.24179228 143.69608732 138.0625 162.1875 C135.19235827 168.14974108 132.18316571 173.15957971 126 176 C119.40843003 176.93683005 112.68833176 176.87149516 106.85546875 173.4140625 C103.22351609 170.64613226 99.88452215 167.54427988 97 164 C97 163.34 97 162.68 97 162 C96.34 162 95.68 162 95 162 C94.75894531 162.57492187 94.51789063 163.14984375 94.26953125 163.7421875 C92.75476107 166.43614801 91.00033578 168.08037543 88.6875 170.125 C87.92824219 170.80820312 87.16898437 171.49140625 86.38671875 172.1953125 C79.9028397 177.09801646 72.82683763 176.69295498 65 176 C58.32317352 174.29021299 53.26151184 169.23621934 49 164 C49 163.34 49 162.68 49 162 C48.34 162 47.68 162 47 162 C46.75894531 162.57492187 46.51789063 163.14984375 46.26953125 163.7421875 C44.75476107 166.43614801 43.00033578 168.08037543 40.6875 170.125 C39.54861328 171.14980469 39.54861328 171.14980469 38.38671875 172.1953125 C32.22160901 176.85698304 25.47347133 176.99405302 18 176 C11.69963004 173.44769702 8.69136921 168.58382208 6.0234375 162.55859375 C5.51683594 161.29208984 5.51683594 161.29208984 5 160 C4.55527344 158.93458984 4.55527344 158.93458984 4.1015625 157.84765625 C1.57067729 151.11951092 0.66683529 144.12460866 0 137 C-0.06944824 136.31180176 -0.13889648 135.62360352 -0.21044922 134.91455078 C-1.37393258 121.81426106 1.69193655 110.98145804 6.0546875 98.6796875 C14.67876859 74.32634267 10.75251268 48.50015918 3.62890625 24.24609375 C3.39985596 23.46153809 3.17080566 22.67698242 2.93481445 21.86865234 C2.49627946 20.39186034 2.04420202 18.91898126 1.57495117 17.45166016 C-0.31900616 11.13846905 0 7.18027614 0 0 Z " fill="#724E26" transform="translate(184,304)"/>
<path d="M0 0 C42.24 0 84.48 0 128 0 C128 13.49368205 128 13.49368205 126.57421875 18.5859375 C126.27338379 19.69461182 125.97254883 20.80328613 125.66259766 21.94555664 C125.34081543 23.07727295 125.0190332 24.20898926 124.6875 25.375 C124.04106587 27.75599461 123.39651271 30.13750074 122.75390625 32.51953125 C122.44727051 33.64311035 122.14063477 34.76668945 121.82470703 35.92431641 C115.65680771 58.92703864 115.45924031 80.00940971 123.46484375 102.578125 C123.97703134 104.05192048 124.48873898 105.52588283 125 107 C125.4180188 108.15218018 125.4180188 108.15218018 125.84448242 109.32763672 C128.13828601 116.12910259 128.50386359 122.47827356 128.4375 129.625 C128.42614014 131.33925171 128.42614014 131.33925171 128.41455078 133.08813477 C128.14264382 147.13103759 125.68809219 160.9748483 116.29296875 172.00390625 C112.30338479 175.62392874 108.84650551 176.42102927 103.5 176.625 C93.93742706 176.11764319 89.04626456 172.50869272 82.46875 165.8046875 C81 164 81 164 81 162 C80.34 162 79.68 162 79 162 C78.75894531 162.57492187 78.51789063 163.14984375 78.26953125 163.7421875 C76.75476107 166.43614801 75.00033578 168.08037543 72.6875 170.125 C71.92824219 170.80820312 71.16898437 171.49140625 70.38671875 172.1953125 C63.9028397 177.09801646 56.82683763 176.69295498 49 176 C42.32317352 174.29021299 37.26151184 169.23621934 33 164 C33 163.34 33 162.68 33 162 C32.34 162 31.68 162 31 162 C30.75894531 162.57492187 30.51789063 163.14984375 30.26953125 163.7421875 C28.75476107 166.43614801 27.00033578 168.08037543 24.6875 170.125 C23.92824219 170.80820312 23.16898437 171.49140625 22.38671875 172.1953125 C16.98285961 176.28137293 11.85772759 176.53953799 5.2421875 176.45703125 C0.34964978 175.76736027 -2.68791137 173.57288302 -6 170 C-8 167 -8 167 -7.74609375 164.62890625 C-6.99539963 161.98379031 -6.08278008 159.49012526 -5.0625 156.9375 C1.25186821 139.6016891 1.12941449 120.96765722 -5.58984375 103.8828125 C-7.54505768 98.81805642 -8.61365252 93.94744257 -7.125 88.625 C-3.86585396 75.5663946 -4.7373437 62.88618799 -7.02050781 49.73730469 C-8.67909679 39.53563558 -7.03511097 32.11703657 -4 22 C-2.68 14.74 -1.36 7.48 0 0 Z " fill="#F8BB1D" transform="translate(328,304)"/>
<path d="M0 0 C42.24 0 84.48 0 128 0 C128.33 3.63 128.66 7.26 129 11 C129.73927441 14.14256019 130.51073588 17.16979274 131.4375 20.25 C131.65470703 21.00023437 131.87191406 21.75046875 132.09570312 22.5234375 C133.08704852 25.94104864 134.10802831 29.34346542 135.17578125 32.73828125 C135.95434023 35.81930848 136.13379235 37.82171214 135.75 40.9375 C135.64300781 41.8759375 135.53601563 42.814375 135.42578125 43.78125 C135.11430457 46.13589936 134.79860885 48.48999168 134.48046875 50.84375 C132.88417441 62.76858552 132.57374778 73.64320818 134.46484375 85.578125 C134.64144531 86.70734375 134.81804687 87.8365625 135 89 C135.2578125 90.25683594 135.515625 91.51367188 135.78125 92.80859375 C136.40821374 97.96884508 134.43646803 102.08778353 132.5625 106.8125 C126.75091388 122.86011336 127.04732963 141.86166611 133.125 157.984375 C134.18747812 160.32132341 134.18747812 160.32132341 135.328125 162.2734375 C136.22016636 164.56577633 135.84628891 165.72329885 135 168 C132.44018164 171.74830545 130.05239924 173.97667442 126 176 C119.40843003 176.93683005 112.68833176 176.87149516 106.85546875 173.4140625 C103.22351609 170.64613226 99.88452215 167.54427988 97 164 C97 163.34 97 162.68 97 162 C96.34 162 95.68 162 95 162 C94.75894531 162.57492187 94.51789063 163.14984375 94.26953125 163.7421875 C92.75476107 166.43614801 91.00033578 168.08037543 88.6875 170.125 C87.92824219 170.80820312 87.16898437 171.49140625 86.38671875 172.1953125 C79.9028397 177.09801646 72.82683763 176.69295498 65 176 C58.32317352 174.29021299 53.26151184 169.23621934 49 164 C49 163.34 49 162.68 49 162 C48.34 162 47.68 162 47 162 C46.75894531 162.57492187 46.51789063 163.14984375 46.26953125 163.7421875 C44.75476107 166.43614801 43.00033578 168.08037543 40.6875 170.125 C39.54861328 171.14980469 39.54861328 171.14980469 38.38671875 172.1953125 C32.20529439 176.86931914 25.48993353 176.96234297 18 176 C11.844689 173.79662102 9.16899537 168.99758596 6.1875 163.4375 C-1.24507738 147.61622772 -3.48089311 126.72533111 1.6875 109.8125 C2.42774233 107.86310738 3.19945955 105.92541561 4 104 C4.89703912 101.52577868 5.77687352 99.05320055 6.625 96.5625 C6.94573486 95.62083984 6.94573486 95.62083984 7.27294922 94.66015625 C15.49515 69.59955999 9.09416524 43.90333262 1.70849609 19.52929688 C-0.2531231 12.52641098 0 7.79652247 0 0 Z " fill="#85B93F" transform="translate(56,304)"/>
<path d="M0 0 C52.8 0 105.6 0 160 0 C160 36.96 160 73.92 160 112 C107.2 112 54.4 112 0 112 C0 75.04 0 38.08 0 0 Z " fill="#EA5849" transform="translate(184,192)"/>
<path d="M0 0 C15.84 0 31.68 0 48 0 C48 10.56 48 21.12 48 32 C45.69 32 43.38 32 41 32 C51.56027585 63.89684563 63.80363284 93.1342783 81.046875 122.03125 C81.55758545 122.89258545 82.0682959 123.7539209 82.59448242 124.64135742 C83.43502158 126.05189222 84.28392398 127.45757041 85.1496582 128.8527832 C88.0981781 133.71616696 89.8801116 138.82833743 91.6875 144.1875 C92.14866211 145.52071289 92.14866211 145.52071289 92.61914062 146.88085938 C95.21782381 154.44945307 96 159.54802478 96 168 C48.48 168 0.96 168 -48 168 C-48 160.85411211 -47.95847199 156.31265967 -45.75 149.9375 C-45.51966064 149.24342041 -45.28932129 148.54934082 -45.05200195 147.83422852 C-40.60669473 134.68012529 -33.8436941 122.56745767 -26.625 110.75 C-11.64395276 85.99266444 -1.75812858 59.51572539 7 32 C4.69 32 2.38 32 0 32 C0 21.44 0 10.88 0 0 Z " fill="#724E25" transform="translate(232,24)"/>
<path d="M0 0 C15.84 0 31.68 0 48 0 C48 10.56 48 21.12 48 32 C45.69 32 43.38 32 41 32 C51.56027585 63.89684563 63.80363284 93.1342783 81.046875 122.03125 C81.80581055 123.30899292 81.80581055 123.30899292 82.58007812 124.61254883 C83.47412088 126.11578887 84.37316422 127.61607703 85.27929688 129.11206055 C88 133.68621279 88 133.68621279 88 136.8125 C86.85446741 140.46388514 85.44133148 143.95537287 83.984375 147.4921875 C81.3167167 154.28836459 80.73843059 160.61569405 80 168 C37.76 168 -4.48 168 -48 168 C-48 147.37568347 -39.27405912 132.46498394 -29.125 115.1875 C-13.51941501 88.59990071 -2.35789411 61.40003016 7 32 C4.69 32 2.38 32 0 32 C0 21.44 0 10.88 0 0 Z " fill="#85BA3F" transform="translate(104,24)"/>
<path d="M0 0 C36.96 0 73.92 0 112 0 C112 36.96 112 73.92 112 112 C75.04 112 38.08 112 0 112 C0 75.04 0 38.08 0 0 Z " fill="#F69726" transform="translate(344,192)"/>
<path d="M0 0 C5.28 0 10.56 0 16 0 C16.28074927 8.00461865 15.42355432 14.67661195 13.3125 22.375 C12.76416987 24.4973563 12.21599557 26.61975286 11.66796875 28.7421875 C10.6409631 32.6323063 9.57745245 36.5097226 8.48828125 40.3828125 C3.51599603 58.65033005 2.67573464 76.96911577 9 95 C9.79784042 97.36438808 10.58874258 99.73101775 11.37841797 102.09814453 C11.90192482 103.65223638 12.43546496 105.20299974 12.98095703 106.74951172 C19.61611562 125.84234265 16.64933109 149.59379707 9 168 C7.48616818 170.85900302 5.8842994 173.36198084 4 176 C-1.28818061 174.18690951 -4.88592291 171.67111564 -8 167 C-7.61494695 163.40419695 -6.39792802 160.27858973 -5.0625 156.9375 C1.25186821 139.6016891 1.12941449 120.96765722 -5.58984375 103.8828125 C-7.54505768 98.81805642 -8.61365252 93.94744257 -7.125 88.625 C-3.86585396 75.5663946 -4.7373437 62.88618799 -7.02050781 49.73730469 C-8.483032 40.74159326 -7.55039381 33.24031908 -4.77099609 24.60644531 C-3.3914611 19.94276082 -2.63390549 15.16280319 -1.8125 10.375 C-1.63525391 9.37082031 -1.45800781 8.36664063 -1.27539062 7.33203125 C-0.84494328 4.8889517 -0.42170485 2.44460378 0 0 Z " fill="#F4A821" transform="translate(328,304)"/>
<path d="M0 0 C5.54772645 3.80646925 10.10735833 9.01188853 12.140625 15.46875 C13.23760886 23.88746331 11.7285024 30.69111014 6.6328125 37.4765625 C1.80567704 42.84254098 -3.29932624 44.90228432 -10.375 45.78125 C-16.38098695 46.07602237 -21.0134721 45.10317717 -25.859375 41.46875 C-32.49382404 35.26953964 -35.80740954 30.23583396 -36.234375 21.09375 C-36.06149574 14.36965668 -34.40452533 10.14210753 -29.765625 5.26953125 C-21.0360648 -2.83441047 -11.14510397 -5.61264228 0 0 Z " fill="#E1E3E0" transform="translate(139.859375,226.53125)"/>
<path d="M0 0 C5.54772645 3.80646925 10.10735833 9.01188853 12.140625 15.46875 C13.08991485 22.75399766 12.33654393 29.33711381 8.140625 35.46875 C3.02230586 41.10181471 -1.67211232 44.97243783 -9.390625 45.7109375 C-15.77834555 46.00926511 -20.70639167 45.4043279 -25.859375 41.46875 C-32.49016305 35.2619555 -35.80716904 30.24098346 -36.234375 21.09375 C-36.06149574 14.36965668 -34.40452533 10.14210753 -29.765625 5.26953125 C-21.0360648 -2.83441047 -11.14510397 -5.61264228 0 0 Z " fill="#E3E3DF" transform="translate(395.859375,226.53125)"/>
<path d="M0 0 C5.54772645 3.80646925 10.10735833 9.01188853 12.140625 15.46875 C13.08991485 22.75399766 12.33654393 29.33711381 8.140625 35.46875 C3.02230586 41.10181471 -1.67211232 44.97243783 -9.390625 45.7109375 C-15.77834555 46.00926511 -20.70639167 45.4043279 -25.859375 41.46875 C-32.49016305 35.2619555 -35.80716904 30.24098346 -36.234375 21.09375 C-36.06149574 14.36965668 -34.40452533 10.14210753 -29.765625 5.26953125 C-21.0360648 -2.83441047 -11.14510397 -5.61264228 0 0 Z " fill="#E3E2E0" transform="translate(267.859375,226.53125)"/>
<path d="M0 0 C5.28 0 10.56 0 16 0 C16 36.96 16 73.92 16 112 C10.72 112 5.44 112 0 112 C0 75.04 0 38.08 0 0 Z " fill="#E8732D" transform="translate(328,192)"/>
<path d="M0 0 C5.28 0 10.56 0 16 0 C16 36.96 16 73.92 16 112 C10.72 112 5.44 112 0 112 C0 75.04 0 38.08 0 0 Z " fill="#6F8F3C" transform="translate(168,192)"/>
<path d="M0 0 C15.84 0 31.68 0 48 0 C48 10.56 48 21.12 48 32 C32.16 32 16.32 32 0 32 C0 21.44 0 10.88 0 0 Z " fill="#F79726" transform="translate(360,24)"/>
<path d="M0 0 C15.84 0 31.68 0 48 0 C48 10.56 48 21.12 48 32 C32.16 32 16.32 32 0 32 C0 21.44 0 10.88 0 0 Z " fill="#EB5849" transform="translate(232,24)"/>
<path d="M0 0 C15.84 0 31.68 0 48 0 C48 10.56 48 21.12 48 32 C32.16 32 16.32 32 0 32 C0 21.44 0 10.88 0 0 Z " fill="#7B9E3E" transform="translate(104,24)"/>
<path d="M0 0 C3.68089247 3.2116798 5.60472925 6.79550746 7.5625 11.1875 C7.86696045 11.85950439 8.1714209 12.53150879 8.48510742 13.22387695 C13.61514701 24.70249614 16 35.33183377 16 48 C10.72 48 5.44 48 0 48 C-0.226875 45.97875 -0.45375 43.9575 -0.6875 41.875 C-1.62440313 35.180895 -3.39672888 29.46112782 -5.87890625 23.15625 C-8.58457258 15.53890367 -8.58457258 15.53890367 -7.32299805 12.21777344 C-6.31640538 10.29176734 -5.22279092 8.46228711 -4.0625 6.625 C-3.67642578 5.98433594 -3.29035156 5.34367188 -2.89257812 4.68359375 C-1.94334402 3.11325585 -0.9736653 1.55530781 0 0 Z " fill="#F4A921" transform="translate(328,144)"/>
</svg>
