<?xml version="1.0" encoding="UTF-8"?>
<svg version="1.1" xmlns="http://www.w3.org/2000/svg" width="512" height="512">
<path d="M0 0 C21.6309975 10.85402463 38.76474299 27.83196907 46.89990234 50.79736328 C50.62377236 62.39865064 51.37715476 73.0728679 51.43115234 85.21923828 C51.43679199 86.42209473 51.44243164 87.62495117 51.44824219 88.86425781 C51.37058264 98.51905094 50.6562681 108.23882839 48.11865234 117.59423828 C49.14224854 117.56281738 50.16584473 117.53139648 51.22045898 117.49902344 C55.04256323 117.38987154 58.86453179 117.32134462 62.68774414 117.26464844 C64.3377199 117.23459894 65.98753755 117.19374564 67.63696289 117.14160156 C83.12415666 116.66449683 83.12415666 116.66449683 87.67724609 120.49267578 C91.61960375 125.50104695 91.81139107 129.33072567 91.11865234 135.59423828 C88.92639465 140.05994841 86.61464014 142.46455985 82.11865234 144.59423828 C81.45865234 144.59423828 80.79865234 144.59423828 80.11865234 144.59423828 C78.61139582 183.14224069 77.942986 215.72020787 97.61401367 250.1105957 C106.24871732 265.39317278 110.54758514 278.30137314 110.01733398 295.96508789 C109.92983499 298.95170385 109.91477033 301.93261511 109.90966797 304.92041016 C109.88579453 306.84950202 109.85795031 308.7785498 109.82568359 310.70751953 C109.81809525 311.58467117 109.8105069 312.46182281 109.8026886 313.36555481 C109.58136069 319.77545756 108.15764758 325.30489359 103.70759583 330.12153625 C99.85745673 333.52083687 96.27368924 335.59423828 91.11865234 335.59423828 C91.11865234 384.10423828 91.11865234 432.61423828 91.11865234 482.59423828 C95.07865234 482.59423828 99.03865234 482.59423828 103.11865234 482.59423828 C107.19421064 484.59626692 109.73019589 486.76318135 112.11865234 490.59423828 C112.85103309 495.41215475 112.72846425 500.05366083 110.93115234 504.59423828 C108.14006613 507.67405755 105.49671538 509.40799706 101.33614731 509.97028577 C100.3139925 509.97077283 99.29183769 509.97125989 98.2387085 509.9717617 C97.05444904 509.97958495 95.87018959 509.98740819 94.65004349 509.9954685 C93.35287777 509.98877633 92.05571205 509.98208417 90.71923828 509.97518921 C89.32430022 509.97864606 87.92936489 509.98341081 86.53443527 509.98937094 C82.70157886 510.00190693 78.86894622 509.99569882 75.03608894 509.98641229 C70.90242106 509.97963275 66.76879203 509.99009758 62.63513184 509.99835205 C54.53742411 510.01170329 46.43979972 510.00880546 38.3420887 510.00011413 C31.76186564 509.99334346 25.18166597 509.99241819 18.60144043 509.99568558 C17.66548939 509.99614528 16.72953836 509.99660498 15.76522517 509.9970786 C13.86395549 509.99803777 11.96268582 509.9990104 10.06141615 509.99999638 C-7.77361995 510.00855435 -25.60860981 509.99870976 -43.44363832 509.98259528 C-58.75232501 509.96919173 -74.06094345 509.97151971 -89.36962891 509.98535156 C-107.14013671 510.00140019 -124.91060397 510.00773034 -142.68111801 509.99851477 C-144.57545725 509.99755911 -146.46979649 509.996616 -148.36413574 509.99568558 C-149.29622651 509.99522275 -150.22831728 509.99475992 -151.18865323 509.99428307 C-157.76221262 509.99169103 -164.33574634 509.99606879 -170.90930176 510.00312424 C-178.91849935 510.01153147 -186.92760872 510.00927548 -194.93679619 509.99328201 C-199.02448763 509.9853888 -203.11203189 509.9823255 -207.19972229 509.99222946 C-210.94020916 510.00115524 -214.68041213 509.99627871 -218.42087317 509.98029681 C-220.41816198 509.97534724 -222.41547043 509.98516446 -224.4127388 509.9954685 C-225.59699825 509.98764526 -226.78125771 509.97982201 -228.00140381 509.9717617 C-229.02355862 509.97127465 -230.04571342 509.97078759 -231.09884262 509.97028577 C-235.25941069 509.40799706 -237.90276145 507.67405755 -240.69384766 504.59423828 C-242.5360861 499.9401622 -242.6619789 495.52378 -241.88134766 490.59423828 C-239.82644252 486.46811923 -236.99534814 484.65123852 -232.88134766 482.59423828 C-228.92134766 482.59423828 -224.96134766 482.59423828 -220.88134766 482.59423828 C-220.88134766 434.08423828 -220.88134766 385.57423828 -220.88134766 335.59423828 C-222.86134766 335.26423828 -224.84134766 334.93423828 -226.88134766 334.59423828 C-228.85791016 333.64892578 -228.85791016 333.64892578 -230.50634766 332.46923828 C-231.05548828 332.09541016 -231.60462891 331.72158203 -232.17041016 331.33642578 C-237.51767202 325.89149703 -238.61346267 320.32765786 -238.97509766 312.99267578 C-239.02448486 312.05885071 -239.07387207 311.12502563 -239.12475586 310.16290283 C-239.2545764 307.09781477 -239.329311 304.03660904 -239.38134766 300.96923828 C-239.40092529 299.91677917 -239.42050293 298.86432007 -239.44067383 297.77996826 C-239.60794576 275.8346361 -232.90043369 258.79275265 -223.03759766 239.50830078 C-222.60177368 238.65463928 -222.16594971 237.80097778 -221.71691895 236.92144775 C-219.72792994 233.06064976 -217.69541216 229.26197126 -215.47509766 225.52929688 C-207.48683131 211.25498954 -208.74566782 195.17034236 -208.86846924 179.29962158 C-208.89014746 175.37689072 -208.86601501 171.45444003 -208.84619141 167.53173828 C-208.81407421 159.88548098 -208.83125848 152.24044722 -208.88134766 144.59423828 C-209.82494141 144.30291016 -210.76853516 144.01158203 -211.74072266 143.71142578 C-215.81048072 142.26372577 -217.7161465 140.28377995 -220.13134766 136.78173828 C-221.62916484 132.41310483 -221.27623698 128.71309138 -219.75634766 124.40673828 C-217.43533335 120.92521683 -215.58682397 119.56945654 -211.88134766 117.59423828 C-208.62149206 117.01246016 -205.41352565 116.98943832 -202.10791016 116.98486328 C-201.18416595 116.96832703 -200.26042175 116.95179077 -199.3086853 116.93475342 C-196.37450435 116.88638592 -193.44084128 116.86492745 -190.50634766 116.84423828 C-188.51022801 116.8160692 -186.51413237 116.78614046 -184.51806641 116.75439453 C-179.63920281 116.68062989 -174.7606248 116.63098651 -169.88134766 116.59423828 C-170.21134766 116.26423828 -170.54134766 115.93423828 -170.88134766 115.59423828 C-171.27978516 112.81689453 -171.27978516 112.81689453 -170.88134766 109.59423828 C-168.67041016 107.27783203 -168.67041016 107.27783203 -165.50634766 105.03173828 C-164.92836426 104.6124707 -164.35038086 104.19320312 -163.75488281 103.76123047 C-162.48482751 102.84331928 -161.20827199 101.93435302 -159.92626953 101.03320312 C-157.82958524 99.55781425 -155.75229427 98.05825683 -153.67822266 96.55126953 C-150.66452889 94.36335144 -147.64451827 92.18461896 -144.61962891 90.01220703 C-139.86942434 86.59398219 -135.15242166 83.13201037 -130.44384766 79.65673828 C-129.26423462 78.78625854 -129.26423462 78.78625854 -128.06079102 77.89819336 C-125.66714097 76.13088704 -123.27412401 74.36272729 -120.88134766 72.59423828 C-110.8403988 65.17302333 -100.78068361 57.78252022 -90.6484375 50.48632812 C-82.00885161 44.25761425 -73.44649825 37.92469814 -64.88134766 31.59423828 C-54.63210001 24.01907074 -44.36983807 16.46594418 -34.01782227 9.03149414 C-33.32954346 8.53657471 -32.64126465 8.04165527 -31.93212891 7.53173828 C-31.2652002 7.05220703 -30.59827148 6.57267578 -29.91113281 6.07861328 C-27.1136371 4.03281416 -24.36969204 1.91856623 -21.63208008 -0.20654297 C-15.01757894 -4.73735172 -6.80180255 -3.15205484 0 0 Z " fill="#A04D15" transform="translate(320.88134765625,2.40576171875)"/>
<path d="M0 0 C0.86865958 0.00291284 1.73731915 0.00582568 2.63230175 0.00882679 C4.00565698 0.00754515 4.00565698 0.00754515 5.40675676 0.00623763 C8.49924604 0.00458002 11.59168202 0.01010877 14.68416637 0.01555592 C16.89118235 0.01583776 19.09819842 0.01568012 21.30521435 0.01511341 C27.31736823 0.0148253 33.32950235 0.02072419 39.34165162 0.02768737 C45.61707199 0.03391868 51.89249277 0.03452453 58.16791576 0.03571278 C68.70751575 0.03847247 79.24710923 0.04472798 89.78670543 0.05364186 C100.64445246 0.06281529 111.50219751 0.06989646 122.35994762 0.07414967 C123.36318405 0.07454375 123.36318405 0.07454375 124.38668788 0.0749458 C127.7418492 0.0762508 131.09701052 0.07751452 134.45217186 0.0787577 C162.30416665 0.08922359 190.1561533 0.10682431 218.00814098 0.12908131 C218.52049942 1.97965232 218.52049942 1.97965232 219.04320854 3.86760861 C219.49672034 5.50352981 219.95025772 7.13944392 220.40381664 8.77535206 C220.62830722 9.58644586 220.8527978 10.39753966 221.08409113 11.23321205 C222.473335 16.24159399 223.91025798 21.23218473 225.40395397 26.21050221 C231.6723816 47.27305894 236.19116763 67.43810876 236.07064098 89.50408131 C236.07117473 90.43637562 236.07170849 91.36866993 236.07225841 92.32921559 C235.97159821 111.99529336 235.97159821 111.99529336 228.46102184 119.7203899 C223.52555789 124.12664505 219.21872902 124.49095907 212.86360973 124.39861256 C208.5647472 123.99283757 205.36142733 122.87406174 202.00814098 120.12908131 C198.28062236 115.50918916 195.91153063 110.927779 195.834557 104.92742115 C195.82106716 104.08158467 195.80757732 103.23574818 195.7936787 102.36428028 C195.77802112 100.99102085 195.77802112 100.99102085 195.76204723 99.59001881 C195.72904691 97.62647372 195.69583653 95.66293216 195.66243786 93.69939381 C195.61552278 90.62390373 195.57121594 87.54842083 195.53133434 84.47283131 C195.32632483 69.38805978 194.73917673 54.63210436 191.50814098 39.84001881 C190.69545859 35.43375648 190.25407175 30.98114823 189.76253551 26.52996022 C189.17087045 21.25652565 188.36932078 16.05465533 187.37532848 10.84001881 C186.94054715 7.63003749 187.00814098 4.36837365 187.00814098 1.12908131 C176.44814098 1.12908131 165.88814098 1.12908131 155.00814098 1.12908131 C155.22470348 5.1219524 155.22470348 5.1219524 155.44564098 9.19548756 C156.6606519 32.79665173 157.27290935 56.38334788 157.37148327 80.01300389 C157.38312501 82.12618229 157.4025323 84.2391583 157.42415661 86.35225636 C157.46372086 90.34042216 157.46847414 94.32820946 157.46907848 98.31658131 C157.48336895 99.50948277 157.49765941 100.70238423 157.51238292 101.93143421 C157.47094656 109.5098563 156.64936108 114.15845988 151.41048473 119.87126881 C145.43027748 124.49596242 140.3788473 124.82481145 133.00814098 124.12908131 C127.89552192 122.78003729 124.93075583 120.49120343 122.07064098 116.06658131 C119.12624536 110.86647921 118.8354841 106.32937918 118.80501598 100.44548756 C118.7948344 99.09655667 118.7948344 99.09655667 118.78444713 97.72037464 C118.76717595 94.71074287 118.76120463 91.70125986 118.75814098 88.69158131 C118.75580456 87.65928395 118.75346813 86.62698658 118.7510609 85.56340748 C118.72735945 57.37376298 120.39392284 29.26259748 122.00814098 1.12908131 C111.44814098 1.12908131 100.88814098 1.12908131 90.00814098 1.12908131 C90.00814098 3.43908131 90.00814098 5.74908131 90.00814098 8.12908131 C89.7678219 9.78319241 89.47775004 11.4310137 89.13314098 13.06658131 C88.22121259 17.73539777 87.56629279 22.40698388 87.00814098 27.12908131 C86.46897404 31.65713397 85.87166343 36.14955859 85.00814098 40.62908131 C82.93514121 51.6735031 81.85889092 62.46313676 81.73470348 73.69158131 C81.71787517 75.20721668 81.71787517 75.20721668 81.7007069 76.75347096 C81.66215828 80.94363171 81.63496677 85.13356947 81.62728161 89.32390553 C81.61774395 92.42602928 81.58400669 95.52717772 81.54720348 98.62908131 C81.55224895 99.56566578 81.55729442 100.50225025 81.56249279 101.46721607 C81.45779955 108.48237815 79.88934648 113.86371508 75.19173473 119.18767506 C74.61552379 119.64271412 74.03931286 120.09775318 73.44564098 120.56658131 C72.86685192 121.03966725 72.28806286 121.51275318 71.69173473 122.00017506 C67.03343307 125.12372304 61.37163599 124.63534828 56.00814098 124.12908131 C50.93330134 122.79000597 47.93649849 120.50543352 45.07064098 116.12908131 C33.66226119 96.32877468 42.02697456 60.38625385 47.4116444 39.9865337 C49.35898003 32.79389206 51.36228827 25.62087662 53.47420543 18.47478443 C55.12252951 12.73044192 56.5587102 6.92680444 58.00814098 1.12908131 C42.16814098 1.62408131 42.16814098 1.62408131 26.00814098 2.12908131 C24.82735973 5.61083912 23.64657848 9.09259693 22.43001598 12.67986256 C21.27519088 16.08238473 20.11995669 19.48476775 18.96468395 22.88713795 C18.16705624 25.23692788 17.36984842 27.58686039 16.57308239 29.93694264 C15.42235389 33.33079958 14.27007526 36.72412698 13.11751598 40.11736256 C12.76630687 41.15427738 12.41509777 42.19119221 12.05324596 43.2595287 C11.7131953 44.25973545 11.37314464 45.25994221 11.02278942 46.29045826 C10.69303112 47.26715977 10.36327282 48.24386128 10.02352184 49.2501598 C9.35201445 51.15409274 8.63828584 53.04370643 7.881432 54.91535145 C5.17824836 61.66906145 4.4179698 67.46164528 4.47689098 74.71111256 C4.47306408 75.7689243 4.46923717 76.82673603 4.4652943 77.91660267 C4.4625928 80.13253959 4.46982923 82.34850937 4.48665661 84.56438404 C4.50819836 87.95060149 4.48673868 91.33472331 4.46126598 94.72087818 C4.46390748 96.8842943 4.46902876 99.04770912 4.47689098 101.21111256 C4.46879406 102.21745243 4.46069713 103.22379231 4.45235485 104.26062733 C4.53173658 110.21054825 5.08533771 113.57853913 9.00814098 118.12908131 C15.38247332 124.01308039 20.65141117 124.42116119 29.00814098 124.12908131 C29.32267223 125.28923756 29.63720348 126.44939381 29.96126598 127.64470631 C32.3998998 136.57073749 34.97227463 145.38555689 38.00814098 154.12908131 C36.949015 154.15095509 36.949015 154.15095509 35.86849254 154.17327076 C32.66449424 154.24781298 29.46153082 154.34445336 26.25814098 154.44158131 C24.59138317 154.4754192 24.59138317 154.4754192 22.89095348 154.50994068 C21.82103161 154.5453899 20.75110973 154.58083912 19.64876598 154.61736256 C18.17198375 154.65663868 18.17198375 154.65663868 16.66536754 154.69670826 C13.46667591 155.21718629 12.2668346 155.80220727 10.00814098 158.12908131 C9.40372238 161.43601836 9.40372238 161.43601836 9.506432 165.30681568 C9.50102901 166.03395268 9.49562603 166.76108967 9.49005932 167.51026112 C9.47754746 169.91486471 9.49407802 172.31827664 9.51204723 174.72283131 C9.5118923 176.39287589 9.51040428 178.06292084 9.50763744 179.73296314 C9.50625236 183.23349099 9.51882943 186.73360965 9.54158825 190.23406178 C9.56997348 194.72350661 9.56723716 199.2122714 9.55449814 203.70176655 C9.54754666 207.15044178 9.5553241 210.59895951 9.56775516 214.04761463 C9.57227486 215.70303452 9.57260194 217.35847128 9.56868976 219.01389271 C9.56578268 221.32673059 9.58225911 223.63862785 9.60408825 225.95134693 C9.60949123 227.26800343 9.61489422 228.58465992 9.62046093 229.9412151 C9.73050587 233.0456515 9.73050587 233.0456515 11.25666183 234.80550534 C13.46968704 236.47786724 14.66319666 236.5007893 17.41948742 236.4941631 C18.32196712 236.49947544 19.22444683 236.50478779 20.1542744 236.51026112 C21.14229549 236.5009708 22.13031658 236.49168049 23.1482777 236.48210865 C24.7123209 236.48534893 24.7123209 236.48534893 26.30796093 236.48865467 C28.57675375 236.49174659 30.84556322 236.48812127 33.11433834 236.47864109 C36.71406196 236.46491881 40.31323311 236.47133345 43.91295666 236.48348194 C54.14947346 236.51445278 64.38586433 236.50966414 74.62239879 236.48943287 C80.88299338 236.47846547 87.14317609 236.49181944 93.40371364 236.51932865 C95.78213667 236.52474476 98.1606015 236.52076835 100.53899044 236.50693089 C113.18550328 236.4342696 123.50153722 236.46630429 135.00814098 242.12908131 C138.06464982 243.04079212 141.12850201 243.70912902 144.25814098 244.31658131 C145.31581676 244.54377857 145.31581676 244.54377857 146.39485973 244.77556568 C151.84375093 245.88517524 157.32321632 246.55153414 162.84310192 247.18498951 C164.0230624 247.32202164 164.0230624 247.32202164 165.22686046 247.46182209 C167.15381615 247.68543271 169.08095997 247.90742101 171.00814098 248.12908131 C170.99703792 247.15712818 170.98593487 246.18517506 170.97449535 245.18376881 C170.872935 236.00349136 170.79808745 226.82332858 170.74908012 217.64261585 C170.72303731 212.92318431 170.68773707 208.20420795 170.63094372 203.48503834 C170.57643335 198.92680628 170.54668048 194.36901076 170.53375477 189.81047779 C170.5245489 188.07538189 170.50657178 186.34030864 170.4794907 184.60539967 C170.22757823 167.79128697 170.22757823 167.79128697 176.00814098 161.12908131 C178.14095348 159.07048756 178.14095348 159.07048756 180.13314098 157.69158131 C180.79571911 157.21849537 181.45829723 156.74540943 182.14095348 156.25798756 C185.70193672 154.10500816 188.72281159 153.98617134 192.78963512 153.93621022 C193.97839748 153.92014729 195.16715984 153.90408436 196.3919453 153.88753468 C201.84367924 153.8429705 207.29528158 153.8015603 212.74715465 153.77898365 C215.61727395 153.76569156 218.48667427 153.73792692 221.35652965 153.6969524 C224.83548311 153.64729243 228.31378905 153.62282175 231.7930817 153.61575657 C233.74610982 153.60588238 235.69896731 153.57171532 237.65171093 153.53694874 C245.1832724 153.55467647 252.09298494 154.04497434 258.00814098 159.12908131 C263.47144075 165.409143 264.87730069 170.50409194 264.68929332 178.69768482 C264.69016948 179.7133704 264.69104564 180.72905598 264.69194835 181.77551991 C264.68779703 185.10381525 264.64125927 188.43004811 264.59407848 191.75798756 C264.58287767 194.07681893 264.57434167 196.39566458 264.56835216 198.71451527 C264.54552399 204.79591794 264.48665128 210.87645075 264.42012829 216.95751148 C264.35857667 223.17148279 264.33130959 229.38559566 264.30110973 235.59978443 C264.23690327 247.77659736 264.13459576 259.95276679 264.00814098 272.12908131 C265.24902477 272.10813404 266.48990856 272.08718678 267.76839489 272.06560475 C272.38644087 271.99302761 277.00443675 271.9472171 281.62288707 271.90935475 C283.61906716 271.88927962 285.61518873 271.86201342 287.61116832 271.8273235 C290.48582718 271.77862474 293.35970638 271.75607145 296.23470348 271.73845631 C297.56630001 271.7074886 297.56630001 271.7074886 298.92479748 271.67589527 C304.47411483 271.67390034 307.5957642 272.43876892 312.00814098 276.12908131 C314.97623369 279.191101 315.418292 281.34260044 315.38314098 285.56658131 C315.25102157 289.88056731 315.00575819 292.82136577 312.00814098 296.12908131 C308.26024738 298.80159688 305.70714958 299.50442286 301.12819713 299.50660473 C299.94393768 299.51442797 298.75967823 299.52225121 297.53953212 299.53031152 C296.24236641 299.52361936 294.94520069 299.51692719 293.60872692 299.51003224 C292.21378886 299.51348909 290.81885352 299.51825384 289.42392391 299.52421397 C285.59106749 299.53674996 281.75843486 299.53054185 277.92557758 299.52125531 C273.7919097 299.51447577 269.65828067 299.52494061 265.52462047 299.53319508 C257.42691274 299.54654632 249.32928836 299.54364849 241.23157734 299.53495716 C234.65135428 299.52818649 228.07115461 299.52726122 221.49092907 299.5305286 C220.55497803 299.5309883 219.619027 299.531448 218.65471381 299.53192163 C216.75344413 299.53288079 214.85217445 299.53385343 212.95090479 299.53483941 C195.11586869 299.54339737 177.28087883 299.53355279 159.44585031 299.51743831 C144.13716363 299.50403476 128.82854518 299.50636274 113.51985973 299.52019459 C95.74935193 299.53624322 77.97888466 299.54257336 60.20837063 299.5333578 C58.31403139 299.53240214 56.41969215 299.53145902 54.5253529 299.5305286 C53.59326212 299.53006578 52.66117135 299.52960295 51.70083541 299.5291261 C45.12727601 299.52653406 38.5537423 299.53091182 31.98018688 299.53796726 C23.97098929 299.5463745 15.96187991 299.54411851 7.95269245 299.52812503 C3.86500101 299.52023183 -0.22254325 299.51716852 -4.31023365 299.52707249 C-8.05072052 299.53599827 -11.79092349 299.53112174 -15.53138453 299.51513983 C-17.52867334 299.51019027 -19.52598179 299.52000748 -21.52325016 299.53031152 C-22.70750962 299.52248828 -23.89176907 299.51466504 -25.11191517 299.50660473 C-26.13406998 299.50611767 -27.15622479 299.50563062 -28.20935398 299.5051288 C-32.36992205 298.94284008 -35.01327281 297.20890057 -37.80435902 294.12908131 C-39.64659747 289.47500523 -39.77249026 285.05862303 -38.99185902 280.12908131 C-36.93695388 276.00296226 -34.1058595 274.18608155 -29.99185902 272.12908131 C-26.03185902 272.12908131 -22.07185902 272.12908131 -17.99185902 272.12908131 C-17.99185902 223.61908131 -17.99185902 175.10908131 -17.99185902 125.12908131 C-19.97185902 124.79908131 -21.95185902 124.46908131 -23.99185902 124.12908131 C-25.96842152 123.18376881 -25.96842152 123.18376881 -27.61685902 122.00408131 C-28.44056996 121.44333912 -28.44056996 121.44333912 -29.28092152 120.87126881 C-34.62818338 115.42634006 -35.72397403 109.86250089 -36.08560902 102.52751881 C-36.13499623 101.59369374 -36.18438343 100.65986866 -36.23526722 99.69774586 C-36.36508776 96.6326578 -36.43982236 93.57145206 -36.49185902 90.50408131 C-36.51143666 89.4516222 -36.53101429 88.3991631 -36.55118519 87.31481129 C-36.73317028 63.43917792 -28.47423434 44.83043646 -17.52310902 24.05583912 C-14.53787977 18.34544879 -11.94224721 12.48040796 -9.38993031 6.56648976 C-6.55875409 0.01669343 -6.55875409 0.01669343 0 0 Z " fill="#F44748" transform="translate(117.99185901880264,212.8709186911583)"/>
<path d="M0 0 C10.56 0 21.12 0 32 0 C36.49965679 10.12422778 36.49965679 10.12422778 37.76757812 13.88623047 C38.05467651 14.73095917 38.3417749 15.57568787 38.63757324 16.4460144 C38.93248657 17.32750153 39.2273999 18.20898865 39.53125 19.1171875 C39.84904419 20.05499054 40.16683838 20.99279358 40.4942627 21.95901489 C41.50018114 24.92967377 42.50036839 27.90222037 43.5 30.875 C44.49831245 33.83323114 45.497832 36.79104128 46.49963379 39.74809265 C47.14329813 41.65367841 47.78257641 43.56075158 48.4173584 45.46931458 C49.90808883 49.92682684 51.51521831 54.21175277 53.4375 58.50390625 C56.60068693 67.05749164 55.52794009 77.07829171 55.5 86.0625 C55.4878682 89.97053488 55.50182938 93.8772367 55.53125 97.78515625 C55.51993042 98.66148209 55.50861084 99.53780792 55.49694824 100.44068909 C55.55677685 107.86364035 57.13005256 115.05646416 62.4375 120.5 C67.78079522 122.74980851 73.26640312 123.35348166 79 124 C77.515 124.495 77.515 124.495 76 125 C76 173.51 76 222.02 76 272 C66.1 272 56.2 272 46 272 C45.99589111 268.89142578 45.99178223 265.78285156 45.98754883 262.58007812 C45.97033534 252.2981681 45.92580667 242.01650624 45.86790943 231.73474884 C45.8336495 225.5021536 45.80853091 219.26980323 45.80444336 213.03710938 C45.80015842 207.01981356 45.77167825 201.00307005 45.72656822 194.98594666 C45.71359968 192.692736 45.70928323 190.39945922 45.71384621 188.10621643 C45.71875647 184.88856704 45.69263849 181.67252919 45.65942383 178.45507812 C45.66804947 177.51136353 45.67667511 176.56764893 45.68556213 175.59533691 C45.5753741 169.20878638 44.17196142 164.90496868 40 160 C33.08251512 154.12646939 24.59752651 154.28004214 15.9609375 154.37109375 C14.62675788 154.37026276 13.29257839 154.36779472 11.95840454 154.36378479 C9.17963375 154.36094557 6.4016774 154.37544422 3.62304688 154.40307617 C0.08129433 154.4372246 -3.45901074 154.43110169 -7.00083351 154.4124136 C-10.40955077 154.39924312 -13.81785532 154.41757375 -17.2265625 154.43359375 C-18.48820221 154.42863388 -19.74984192 154.42367401 -21.04971313 154.41856384 C-28.61137444 154.51933003 -34.7842216 154.96574622 -40.51211548 160.44700623 C-45.17706327 165.76266926 -46.29812693 169.75823529 -46.31884766 176.70605469 C-46.32889328 177.47717087 -46.3389389 178.24828705 -46.34928894 179.04277039 C-46.38012357 181.58579784 -46.39715674 184.12871999 -46.4140625 186.671875 C-46.43277393 188.4373668 -46.45234733 190.20284966 -46.4727478 191.96832275 C-46.52407764 196.61084724 -46.56369881 201.25340073 -46.60089111 205.89605713 C-46.6409254 210.63520486 -46.69202038 215.37423187 -46.7421875 220.11328125 C-46.83895687 229.40876938 -46.92335846 238.70432565 -47 248 C-57.53854054 248.12936587 -57.53854054 248.12936587 -62.26171875 247.30078125 C-63.14633789 247.14585205 -64.03095703 246.99092285 -64.94238281 246.83129883 C-65.84827148 246.66009521 -66.75416016 246.4888916 -67.6875 246.3125 C-69.11400879 246.048927 -69.11400879 246.048927 -70.56933594 245.7800293 C-79.22006778 244.10312942 -88.07496309 241.96251846 -96 238 C-97.44807891 237.9046991 -98.90044437 237.8709881 -100.35165405 237.86869812 C-101.26576553 237.86468994 -102.17987701 237.86068176 -103.12168884 237.85655212 C-104.12744461 237.85708084 -105.13320038 237.85760956 -106.16943359 237.8581543 C-107.22643967 237.85467987 -108.28344574 237.85120544 -109.3724823 237.84762573 C-111.67350104 237.84026039 -113.97452692 237.83491917 -116.27555466 237.83133507 C-119.91460738 237.82418699 -123.55352389 237.80853341 -127.1925354 237.78999329 C-137.54109849 237.73744131 -147.88958755 237.68952264 -158.23828125 237.67407227 C-164.5625226 237.66400962 -170.88642262 237.63472846 -177.21052933 237.59275246 C-179.62427823 237.58041296 -182.03807529 237.57532654 -184.45185471 237.57755089 C-187.82553483 237.57989497 -191.19822999 237.55780435 -194.57177734 237.5300293 C-195.57348465 237.53663071 -196.57519196 237.54323212 -197.60725403 237.55003357 C-204.23662771 237.46016935 -204.23662771 237.46016935 -207.61842346 235.42158508 C-209.52871936 232.07327688 -209.51524576 229.57546231 -209.53344727 225.72460938 C-209.54206284 224.99893265 -209.55067841 224.27325592 -209.55955505 223.52558899 C-209.58222387 221.13127794 -209.57547567 218.73813638 -209.56640625 216.34375 C-209.57164121 214.67752738 -209.57791723 213.01130774 -209.58518982 211.34509277 C-209.59559545 207.85475713 -209.59103008 204.36482914 -209.57641602 200.87451172 C-209.55922128 196.40174346 -209.58272991 191.93025898 -209.61790562 187.45763397 C-209.63986555 184.0174712 -209.63844177 180.57761635 -209.6301403 177.1374054 C-209.62932012 175.48837373 -209.63619634 173.83931961 -209.65091133 172.19035339 C-209.66833428 169.88456269 -209.65383811 167.5810881 -209.63110352 165.27539062 C-209.62966087 163.30826111 -209.62966087 163.30826111 -209.62818909 161.3013916 C-209 158 -209 158 -206.62799072 155.57940674 C-203.66370694 153.79788988 -201.91433289 153.46735939 -198.48046875 153.390625 C-197.45888672 153.35839844 -196.43730469 153.32617188 -195.38476562 153.29296875 C-194.32966797 153.27878906 -193.27457031 153.26460937 -192.1875 153.25 C-191.11306641 153.22035156 -190.03863281 153.19070313 -188.93164062 153.16015625 C-186.28768573 153.08965079 -183.6446027 153.03685857 -181 153 C-181.20681396 152.40574219 -181.41362793 151.81148437 -181.62670898 151.19921875 C-182.57176442 148.46888167 -183.50468853 145.7345432 -184.4375 143 C-184.92573242 141.59814453 -184.92573242 141.59814453 -185.42382812 140.16796875 C-187.26661553 134.73459558 -188.52099155 129.72111507 -189 124 C-189.99 124.495 -189.99 124.495 -191 125 C-197.32610361 125.54535376 -201.77206375 124.71884125 -207 121 C-217.00267114 111.25770208 -215.30466477 97.88804696 -215.52319336 84.71484375 C-215.44568094 64.98699498 -210.22946657 47.82845312 -203.5625 29.5 C-203.31348686 28.81441891 -203.06447372 28.12883781 -202.80791473 27.42248154 C-193.84397241 2.84397241 -193.84397241 2.84397241 -192 1 C-189.6243148 0.9116033 -187.27791326 0.88469695 -184.90234375 0.90234375 C-183.83905602 0.90446617 -183.83905602 0.90446617 -182.75428772 0.90663147 C-180.48198288 0.91224557 -178.20977525 0.92480037 -175.9375 0.9375 C-174.40039204 0.94251319 -172.86328255 0.94707641 -171.32617188 0.95117188 C-167.55074358 0.96221958 -163.77538829 0.97949359 -160 1 C-161.84566164 11.07211579 -163.86052942 20.99604651 -166.796875 30.8125 C-172.47115276 50.06868447 -176.06208997 68.03088335 -175.875 88.1875 C-175.86551331 89.60325317 -175.86551331 89.60325317 -175.85583496 91.04760742 C-175.82439907 93.73508191 -175.76201339 96.41910449 -175.6796875 99.10546875 C-175.6602005 99.89012009 -175.6407135 100.67477142 -175.62063599 101.48320007 C-175.31193107 108.07258105 -173.91871242 113.67734812 -169.625 118.875 C-164.5976878 122.94472893 -160.02699599 123.44368094 -153.72265625 123.31640625 C-148.46655151 122.70558203 -145.32887349 120.40070449 -141.6875 116.5625 C-137.85703964 110.74587501 -137.70616923 105.86275407 -137.69140625 99.07421875 C-137.66849174 97.0707143 -137.64511848 95.06721506 -137.62133789 93.0637207 C-137.61216339 92.02091949 -137.60298889 90.97811829 -137.59353638 89.90371704 C-137.42473243 72.41101411 -136.99510446 55.27203674 -134 38 C-133.81179687 36.82695312 -133.62359375 35.65390625 -133.4296875 34.4453125 C-133.12060903 32.55649962 -132.8006231 30.66940565 -132.46484375 28.78515625 C-131.69197232 24.15442237 -131.13841627 19.49468874 -130.5625 14.8359375 C-129.88197823 10.19515711 -128.91986522 5.59932609 -128 1 C-117.44 1 -106.88 1 -96 1 C-95.90248545 12.35435076 -96.22267116 23.58739739 -96.85641479 34.92092896 C-97.74308628 51.23323445 -98.28437891 67.55101738 -98.40942383 83.88717651 C-98.42798886 85.98682083 -98.45518792 88.08640838 -98.49145508 90.18582153 C-99.27000404 105.52072447 -99.27000404 105.52072447 -93 119 C-88.04302911 123.01014109 -82.8891632 123.63864021 -76.6171875 123.38671875 C-71.38840758 122.61410799 -68.22664888 120.32348958 -64.625 116.4375 C-62.06785458 112.60178187 -61.87401206 109.69895207 -61.87060547 105.19360352 C-61.86587723 103.3988131 -61.86587723 103.3988131 -61.86105347 101.56776428 C-61.8630777 100.26794113 -61.86510193 98.96811798 -61.8671875 97.62890625 C-61.86651264 96.26863081 -61.8655411 94.90835548 -61.86428833 93.54808044 C-61.86281143 90.6839789 -61.86496001 87.81990847 -61.86962891 84.95581055 C-61.8752355 81.34636821 -61.87201807 77.7370011 -61.86617756 74.12756157 C-61.84708799 60.14342568 -61.95532249 46.20476589 -62.77734375 32.23999023 C-63.13910048 25.91094875 -63.10950686 19.58802292 -63.0625 13.25 C-63.041875 9.2075 -63.02125 5.165 -63 1 C-52.44 1 -41.88 1 -31 1 C-30.566875 4.6196875 -30.566875 4.6196875 -30.125 8.3125 C-29.54253329 13.07059095 -28.90862977 17.79099015 -28 22.5 C-27.00406875 27.66639336 -26.37354713 32.8611 -25.75219727 38.08227539 C-25.17282509 42.85796558 -24.41718004 47.56288557 -23.46484375 52.27734375 C-22.2065799 59.6471749 -21.86783559 66.90483134 -21.859375 74.37109375 C-21.84105501 76.34701681 -21.82148545 78.32292861 -21.80078125 80.29882812 C-21.77183122 83.37072073 -21.74999931 86.44187802 -21.74951172 89.51391602 C-21.74615631 92.50861705 -21.71150605 95.50168016 -21.671875 98.49609375 C-21.68247955 99.85280434 -21.68247955 99.85280434 -21.69329834 101.23692322 C-21.56615504 107.98413757 -19.84379566 113.40064914 -16 119 C-11.12873541 123.06028392 -5.82321831 123.64985199 0.38671875 123.375 C5.33136767 122.66545397 8.46799945 121.0187299 11.5 117.0234375 C22.01605515 100.59210133 17.947816 72.83147132 13.95616436 54.63538647 C10.11299081 37.72378852 5.4280816 20.99137335 0.60742188 4.33615112 C0 2 0 2 0 0 Z " fill="#F69538" transform="translate(336,213)"/>
<path d="M0 0 C21.6309975 10.85402463 38.76474299 27.83196907 46.89990234 50.79736328 C50.62377236 62.39865064 51.37715476 73.0728679 51.43115234 85.21923828 C51.43961182 87.02352295 51.43961182 87.02352295 51.44824219 88.86425781 C51.37021388 98.56489549 50.54204651 108.17654913 48.11865234 117.59423828 C46.34820557 117.60825684 46.34820557 117.60825684 44.54199219 117.62255859 C40.14708237 117.66254476 35.75286621 117.72832743 31.35839844 117.80175781 C29.4594008 117.82991748 27.56028705 117.85115687 25.66113281 117.86523438 C22.92501596 117.88673346 20.19028783 117.93341836 17.45458984 117.98486328 C16.61060638 117.98609192 15.76662292 117.98732056 14.89706421 117.98858643 C9.55542515 118.12018667 6.25442053 118.89310318 2.11865234 122.59423828 C-0.37458682 126.71057479 -0.17649716 131.09542172 -0.18994141 135.78173828 C-0.21509251 137.38330456 -0.24049066 138.98486698 -0.26611328 140.58642578 C-0.29487171 143.09455435 -0.31891024 145.60261614 -0.33764648 148.11083984 C-0.35933796 150.54314591 -0.39876584 152.97469532 -0.43994141 155.40673828 C-0.44005722 156.15270264 -0.44017303 156.89866699 -0.44029236 157.66723633 C-0.52519149 162.14955168 -1.09359597 165.0456737 -3.88134766 168.59423828 C-8.69157402 172.01689935 -11.84532158 173.36245978 -17.88134766 172.59423828 C-22.56305033 170.85007454 -25.09383957 168.72387989 -27.88134766 164.59423828 C-29.11208196 160.90203538 -29.0167295 157.48144072 -29.02197266 153.63720703 C-29.04030238 152.03367722 -29.05987284 150.4301612 -29.08056641 148.82666016 C-29.10950661 146.30518316 -29.1313471 143.78459323 -29.13183594 141.26293945 C-29.13518197 138.8243998 -29.1697945 136.38789212 -29.20947266 133.94970703 C-29.20240295 133.20262985 -29.19533325 132.45555267 -29.18804932 131.68583679 C-29.32214638 125.88087383 -30.87842825 123.50237843 -34.88134766 119.59423828 C-37.8936036 118.32647143 -40.64270831 118.24642666 -43.88134766 118.59423828 C-47.99185497 120.61212369 -50.23283043 122.34566653 -51.88134766 126.59423828 C-52.18184607 129.30052939 -52.18184607 129.30052939 -52.15478516 132.24267578 C-52.17541016 133.33064453 -52.19603516 134.41861328 -52.21728516 135.53955078 C-52.24323699 137.81812175 -52.26151993 140.09679351 -52.27197266 142.37548828 C-52.43789105 150.17365281 -53.10308968 153.96988083 -58.79931641 159.43408203 C-62.9102841 161.72480887 -67.35024743 161.39422067 -71.88134766 160.59423828 C-76.19990281 158.22822136 -78.986531 155.12112933 -80.88134766 150.59423828 C-81.15258789 148.01635742 -81.15258789 148.01635742 -81.18994141 145.12939453 C-81.21507812 144.08203125 -81.24021484 143.03466797 -81.26611328 141.95556641 C-81.30120616 139.76031197 -81.33247015 137.56499292 -81.35986328 135.36962891 C-81.39950195 133.79665039 -81.39950195 133.79665039 -81.43994141 132.19189453 C-81.46012329 130.76115601 -81.46012329 130.76115601 -81.48071289 129.30151367 C-82.09126717 125.17571451 -83.83933253 122.50994854 -86.94384766 119.78173828 C-91.28579174 118.02648429 -95.26365675 117.92190248 -99.88134766 118.59423828 C-104.00393438 120.65553165 -106.19186176 122.33732208 -107.88134766 126.59423828 C-108.18543343 128.97326315 -108.18543343 128.97326315 -108.15258789 131.54296875 C-108.16277451 132.52433807 -108.17296112 133.5057074 -108.18345642 134.51681519 C-108.18559647 135.57103668 -108.18773651 136.62525818 -108.18994141 137.71142578 C-108.21510077 139.94970964 -108.24049881 142.18799083 -108.26611328 144.42626953 C-108.29485555 147.95051384 -108.31887681 151.47471176 -108.33764648 154.99902344 C-108.3593198 158.40340131 -108.39876081 161.80723614 -108.43994141 165.21142578 C-108.44005722 166.26159882 -108.44017303 167.31177185 -108.44029236 168.39376831 C-108.51412013 173.86036781 -108.74096408 177.90643973 -111.88134766 182.59423828 C-115.34462194 185.80410226 -118.19409664 186.90998441 -122.81884766 187.21923828 C-127.60030496 187.03173015 -130.09166167 185.54788167 -133.50634766 182.29736328 C-136.29838483 178.83904451 -137.13069071 176.05655717 -137.15258789 171.62963867 C-137.16277451 170.64504166 -137.17296112 169.66044464 -137.18345642 168.64601135 C-137.18559647 167.5886528 -137.18773651 166.53129425 -137.18994141 165.44189453 C-137.21509726 163.19905334 -137.24049534 160.95621486 -137.26611328 158.71337891 C-137.29487777 155.18026403 -137.31889829 151.64719606 -137.33764648 148.11401367 C-137.35928973 144.70222915 -137.39872463 141.29099048 -137.43994141 137.87939453 C-137.44005722 136.82406021 -137.44017303 135.76872589 -137.44029236 134.68141174 C-137.41911319 127.58119203 -137.41911319 127.58119203 -140.88134766 121.59423828 C-144.38702937 118.92805301 -146.96594347 118.21634096 -151.33056641 118.15283203 C-152.343125 118.12640625 -153.35568359 118.09998047 -154.39892578 118.07275391 C-155.445 118.05921875 -156.49107422 118.04568359 -157.56884766 118.03173828 C-159.65624695 117.9973935 -161.74353252 117.95484118 -163.83056641 117.90283203 C-164.75184326 117.89050537 -165.67312012 117.87817871 -166.62231445 117.86547852 C-168.88134766 117.59423828 -168.88134766 117.59423828 -170.88134766 115.59423828 C-171.34228516 112.75439453 -171.34228516 112.75439453 -170.88134766 109.59423828 C-168.67041016 107.27783203 -168.67041016 107.27783203 -165.50634766 105.03173828 C-164.92836426 104.6124707 -164.35038086 104.19320312 -163.75488281 103.76123047 C-162.48482751 102.84331928 -161.20827199 101.93435302 -159.92626953 101.03320312 C-157.82958524 99.55781425 -155.75229427 98.05825683 -153.67822266 96.55126953 C-150.66452889 94.36335144 -147.64451827 92.18461896 -144.61962891 90.01220703 C-139.86942434 86.59398219 -135.15242166 83.13201037 -130.44384766 79.65673828 C-129.26423462 78.78625854 -129.26423462 78.78625854 -128.06079102 77.89819336 C-125.66714097 76.13088704 -123.27412401 74.36272729 -120.88134766 72.59423828 C-110.8403988 65.17302333 -100.78068361 57.78252022 -90.6484375 50.48632812 C-82.00885161 44.25761425 -73.44649825 37.92469814 -64.88134766 31.59423828 C-54.63210001 24.01907074 -44.36983807 16.46594418 -34.01782227 9.03149414 C-33.32954346 8.53657471 -32.64126465 8.04165527 -31.93212891 7.53173828 C-31.2652002 7.05220703 -30.59827148 6.57267578 -29.91113281 6.07861328 C-27.1136371 4.03281416 -24.36969204 1.91856623 -21.63208008 -0.20654297 C-15.01757894 -4.73735172 -6.80180255 -3.15205484 0 0 Z " fill="#FDD873" transform="translate(320.88134765625,2.40576171875)"/>
<path d="M0 0 C1.18876236 -0.01606293 2.37752472 -0.03212585 3.60231018 -0.04867554 C9.05404412 -0.09323971 14.50564646 -0.13464992 19.95751953 -0.15722656 C22.82763883 -0.17051865 25.69703914 -0.19828329 28.56689453 -0.23925781 C32.04584798 -0.28891779 35.52415393 -0.31338847 39.00344658 -0.32045364 C40.9564747 -0.33032783 42.90933219 -0.36449489 44.86207581 -0.39926147 C52.39363728 -0.38153374 59.30334982 0.10876413 65.21850586 5.19287109 C70.68180563 11.47293278 72.08766557 16.56788173 71.8996582 24.76147461 C71.90053436 25.77716019 71.90141052 26.79284576 71.90231323 27.83930969 C71.8981619 31.16760504 71.85162414 34.4938379 71.80444336 37.82177734 C71.79324254 40.14060872 71.78470655 42.45945436 71.77871704 44.77830505 C71.75588887 50.85970773 71.69701616 56.94024054 71.63049316 63.02130127 C71.56894154 69.23527258 71.54167447 75.44938545 71.51147461 81.66357422 C71.44726815 93.84038715 71.34496064 106.01655658 71.21850586 118.19287109 C72.45938965 118.17192383 73.70027344 118.15097656 74.97875977 118.12939453 C79.59680575 118.05681739 84.21480163 118.01100689 88.83325195 117.97314453 C90.82943204 117.9530694 92.82555361 117.9258032 94.8215332 117.89111328 C97.69619206 117.84241453 100.57007125 117.81986123 103.44506836 117.80224609 C104.77666489 117.77127838 104.77666489 117.77127838 106.13516235 117.73968506 C111.68447971 117.73769012 114.80612908 118.5025587 119.21850586 122.19287109 C122.18659856 125.25489078 122.62865688 127.40639022 122.59350586 131.63037109 C122.46138645 135.9443571 122.21612307 138.88515555 119.21850586 142.19287109 C115.47061226 144.86538667 112.91751446 145.56821264 108.33856201 145.57039452 C107.15430256 145.57821776 105.97004311 145.586041 104.749897 145.59410131 C102.80414843 145.58406306 102.80414843 145.58406306 100.8190918 145.57382202 C99.42415373 145.57727887 98.0292184 145.58204362 96.63428879 145.58800375 C92.80143237 145.60053974 88.96879973 145.59433164 85.13594246 145.5850451 C81.00227458 145.57826556 76.86864555 145.58873039 72.73498535 145.59698486 C64.63727762 145.6103361 56.53965323 145.60743827 48.44194221 145.59874694 C41.86171916 145.59197627 35.28151948 145.591051 28.70129395 145.59431839 C27.76534291 145.59477809 26.82939188 145.59523779 25.86507869 145.59571142 C23.96380901 145.59667058 22.06253933 145.59764322 20.16126966 145.59862919 C2.32623357 145.60718716 -15.50875629 145.59734257 -33.34378481 145.58122809 C-48.65247149 145.56782454 -63.96108994 145.57015252 -79.26977539 145.58398438 C-97.04028319 145.600033 -114.81075046 145.60636315 -132.5812645 145.59714758 C-134.47560373 145.59619192 -136.36994298 145.59524881 -138.26428223 145.59431839 C-139.196373 145.59385556 -140.12846377 145.59339274 -141.08879972 145.59291589 C-147.66235911 145.59032384 -154.23589282 145.59470161 -160.80944824 145.60175705 C-168.81864584 145.61016428 -176.82775521 145.6079083 -184.83694267 145.59191482 C-188.92463411 145.58402161 -193.01217837 145.58095831 -197.09986877 145.59086227 C-200.84035564 145.59978805 -204.58055861 145.59491152 -208.32101965 145.57892962 C-210.31830846 145.57398006 -212.31561692 145.58379727 -214.31288528 145.59410131 C-215.49714474 145.58627807 -216.68140419 145.57845483 -217.90155029 145.57039452 C-218.9237051 145.56990746 -219.94585991 145.5694204 -220.99898911 145.56891859 C-225.15955718 145.00662987 -227.80290793 143.27269036 -230.59399414 140.19287109 C-232.43623259 135.53879502 -232.56212538 131.12241282 -231.78149414 126.19287109 C-229.83811291 122.29068498 -226.85476916 119.69771077 -222.78149414 118.19287109 C-220.04260262 118.00725368 -217.4075529 117.93165979 -214.66973877 117.95236206 C-213.43342118 117.94979879 -213.43342118 117.94979879 -212.17212749 117.94718373 C-209.40673715 117.94388605 -206.64158874 117.95489712 -203.8762207 117.96582031 C-201.89536037 117.96638437 -199.91449962 117.96606798 -197.93363953 117.9649353 C-192.55178012 117.96436056 -187.17000954 117.97613454 -181.78817081 117.99008322 C-176.16540538 118.00257034 -170.542638 118.00375948 -164.91986084 118.00613403 C-154.27039301 118.01235474 -143.62096615 118.02877356 -132.97151637 118.04883301 C-120.84832263 118.07117363 -108.72512694 118.08218082 -96.60191774 118.09222388 C-71.66175381 118.11313926 -46.72162627 118.14832672 -21.78149414 118.19287109 C-21.7925972 116.92024414 -21.80370026 115.64761719 -21.81513977 114.33642578 C-21.91659209 102.33062248 -21.9914965 90.3249064 -22.040555 78.31877136 C-22.06662464 72.14657699 -22.10197572 65.97472926 -22.15869141 59.80273438 C-22.2131034 53.84400027 -22.24293448 47.88559915 -22.25588036 41.92663574 C-22.26510361 39.65566772 -22.28311461 37.38471749 -22.31014442 35.1138916 C-22.34655559 31.92758102 -22.35143427 28.74263822 -22.34912109 25.55615234 C-22.37608566 24.15460655 -22.37608566 24.15460655 -22.40359497 22.7247467 C-22.35339666 16.31491878 -20.8198826 12.19078742 -16.78149414 7.19287109 C-14.64868164 5.13427734 -14.64868164 5.13427734 -12.65649414 3.75537109 C-11.99391602 3.28228516 -11.33133789 2.80919922 -10.64868164 2.32177734 C-7.08769841 0.16879794 -4.06682354 0.04996112 0 0 Z " fill="#B66124" transform="translate(310.781494140625,366.80712890625)"/>
<path d="M0 0 C3.25900019 1.45614902 5.71264424 3.25517308 8 6 C9.01138553 9.03415659 9.13840716 11.15630873 9.17578125 14.33203125 C9.21155273 15.90114258 9.21155273 15.90114258 9.24804688 17.50195312 C9.2907837 19.69707205 9.3221596 21.89244354 9.34179688 24.08789062 C9.5356887 31.43323429 10.47567788 35.59099312 15.91015625 40.84765625 C19.97955488 43.09153026 24.5063438 42.60671026 29 42 C32.68589779 39.89377269 34.42751953 37.8827842 36 34 C36.30049841 31.29370889 36.30049841 31.29370889 36.2734375 28.3515625 C36.2940625 27.26359375 36.3146875 26.175625 36.3359375 25.0546875 C36.36188933 22.77611654 36.38017227 20.49744477 36.390625 18.21875 C36.52573887 11.86839808 36.67768069 7.80526002 41 3 C44.74076864 -0.31325222 47.87061411 -0.26275774 52.62109375 -0.0078125 C56.80036833 1.76271762 59.08031161 3.8325436 61 8 C61.81712803 14.0210237 61.75489915 19.99597992 61.6875 26.0625 C61.67615989 28.52185717 61.67361183 30.98045881 61.6879425 33.43980408 C61.69526851 34.96354438 61.68733175 36.48746189 61.6615448 38.01100159 C61.66446185 42.76609614 62.50167444 45.95612268 65 50 C68.27034375 52.96374903 70.94455676 53.92181902 75.375 54.25 C79.22502154 53.98448127 80.87682979 53.14160243 84 51 C84.66 51 85.32 51 86 51 C88.14599747 46.64443182 88.29488113 42.60741821 88.30859375 37.84765625 C88.33374977 36.25064733 88.35914785 34.65364221 88.38476562 33.05664062 C88.41349273 30.55738275 88.43753236 28.05819063 88.45629883 25.55883789 C88.47803287 23.13393949 88.51746899 20.70979223 88.55859375 18.28515625 C88.55870956 17.54435318 88.55882538 16.80355011 88.5589447 16.04029846 C88.64908741 11.28165528 89.32349878 7.95833555 92 4 C96.55463866 0.32740945 99.64776987 -0.50808857 105.45483398 -0.54931641 C106.17598389 -0.55953827 106.89713379 -0.56976013 107.64013672 -0.58029175 C110.00913264 -0.60794975 112.3769562 -0.60618149 114.74609375 -0.6015625 C116.4022718 -0.6093436 118.05844589 -0.61801442 119.71461487 -0.62753296 C123.18039914 -0.64242814 126.64577583 -0.64189649 130.11157227 -0.63134766 C134.54156318 -0.61975774 138.96988175 -0.65362972 143.39959621 -0.700037 C146.81844243 -0.72957568 150.23688869 -0.73124682 153.65583992 -0.72501755 C155.28845598 -0.72604069 156.92109538 -0.73645489 158.55358696 -0.75664139 C172.8896132 -0.91217697 172.8896132 -0.91217697 177.49243164 2.92041016 C181.10891962 7.36188415 181.3458864 9.85790312 181.28125 15.45703125 C180.86818756 19.19180418 179.49125668 21.23941828 177 24 C172.8 27 172.8 27 170 27 C170 42.51 170 58.02 170 74 C144.443063 74.09043871 118.88625641 74.16406252 93.32919979 74.20724869 C81.46151419 74.22783744 69.59393539 74.25588737 57.72631836 74.30175781 C47.37749566 74.34173864 37.02875034 74.36745959 26.67985255 74.37635398 C21.20471872 74.38154971 15.72980619 74.39368426 10.25474358 74.42292023 C5.09111444 74.45026725 -0.07220429 74.45840634 -5.23589897 74.45243073 C-7.1211453 74.45352239 -9.00640306 74.46136047 -10.8915863 74.4768219 C-31.42514126 74.63682971 -48.13725774 70.67393935 -63.26953125 55.85546875 C-70.55334612 48.23820312 -78 37.91780672 -78 27 C-67.77 27 -57.54 27 -47 27 C-46.97421875 29.24039063 -46.9484375 31.48078125 -46.921875 33.7890625 C-46.8833944 35.9735945 -46.83825403 38.15789522 -46.79248047 40.34228516 C-46.76436218 41.85323938 -46.74310229 43.36433821 -46.72900391 44.87548828 C-46.70744551 47.05576103 -46.66073684 49.23431219 -46.609375 51.4140625 C-46.58842773 52.7232666 -46.56748047 54.0324707 -46.54589844 55.38134766 C-45.79681687 60.34686062 -43.65683359 63.42634079 -40.0546875 66.84765625 C-36.23320442 68.99088345 -32.23856797 68.60168946 -28 68 C-24.46122144 66.29380319 -22.59434425 65.2134787 -20.85971069 61.67185974 C-19.97638257 58.92660034 -19.7488402 56.81154919 -19.74462891 53.93774414 C-19.73419052 52.46580345 -19.73419052 52.46580345 -19.72354126 50.96412659 C-19.72453827 49.91506638 -19.72553528 48.86600616 -19.7265625 47.78515625 C-19.70627684 45.55012517 -19.68542612 43.31509916 -19.6640625 41.08007812 C-19.64145149 37.5667695 -19.6249853 34.05366129 -19.61914062 30.5402832 C-19.60961534 27.14237526 -19.57584133 23.74536327 -19.5390625 20.34765625 C-19.54410797 19.30062027 -19.54915344 18.25358429 -19.55435181 17.17481995 C-19.47290366 11.12944405 -19.01956443 7.61095185 -15 3 C-10.61942554 -0.86521276 -5.55631016 -0.68652926 0 0 Z " fill="#B76224" transform="translate(231,120)"/>
<path d="M0 0 C1.22164856 -0.00861557 2.44329712 -0.01723114 3.70196533 -0.02610779 C7.04521217 -0.04490244 10.38746672 -0.04566931 13.73069 -0.03678632 C16.52401112 -0.0316701 19.31724366 -0.03897398 22.11055565 -0.04625839 C28.70073593 -0.06324833 35.2906846 -0.05970034 41.88085938 -0.04296875 C48.67539497 -0.02604122 55.46928841 -0.04189193 62.26375389 -0.07419163 C68.10257401 -0.10089483 73.94119431 -0.10816186 79.78006935 -0.09967655 C83.26512534 -0.09475017 86.74979485 -0.09694676 90.23480225 -0.11746407 C94.12033204 -0.13924539 98.00508848 -0.12041418 101.890625 -0.09765625 C103.04298645 -0.10934845 104.1953479 -0.12104065 105.38262939 -0.13308716 C110.1972036 -0.07560305 113.06265923 -0.0405575 117.1592865 2.62355042 C119.38350959 6.24738331 119.57320382 8.47904061 119.57641602 12.72290039 C119.58714897 13.77996437 119.58714897 13.77996437 119.59809875 14.85838318 C119.61494824 17.17782276 119.5956083 19.49531899 119.57421875 21.81469727 C119.57504781 23.4322526 119.57750859 25.04980785 119.58152771 26.6673584 C119.58438311 30.05348136 119.56971063 33.43894191 119.54223633 36.82495117 C119.50815323 41.15960891 119.51417378 45.49308251 119.5328989 49.82779694 C119.54348086 53.16678694 119.53452037 56.50550265 119.51951408 59.84446716 C119.51434054 61.44241012 119.51480403 63.04038183 119.52105904 64.63832092 C119.52652605 66.87416914 119.50609225 69.10833752 119.47875977 71.34399414 C119.4694619 73.24997375 119.4694619 73.24997375 119.4599762 75.19445801 C118.81030228 79.40935453 118.36407214 80.91165492 114.9453125 83.53344727 C110.90306442 84.28205996 106.90526807 84.20531223 102.8046875 84.16455078 C101.56207153 84.17170609 100.31945557 84.17886139 99.03918457 84.18623352 C95.63375564 84.20024742 92.22984448 84.19181054 88.82453918 84.17214322 C85.26029552 84.15575563 81.69610141 84.16456975 78.13183594 84.16966248 C72.14635717 84.17418335 66.16119091 84.15831434 60.17578125 84.13037109 C53.25690936 84.09831887 46.33860109 84.09833472 39.41968918 84.11558586 C32.76250902 84.13145267 26.10553539 84.12471652 19.44836426 84.10764885 C16.61587015 84.10077826 13.78354159 84.10181076 10.9510498 84.1091938 C6.99579398 84.11828112 3.04111682 84.09431742 -0.9140625 84.06689453 C-2.67840637 84.07668335 -2.67840637 84.07668335 -4.47839355 84.08666992 C-5.55512329 84.07394547 -6.63185303 84.06122101 -7.74121094 84.04811096 C-8.67624451 84.04530404 -9.61127808 84.04249712 -10.574646 84.03960514 C-13.83194195 83.37481546 -15.02957911 82.12329359 -17.0546875 79.53344727 C-17.5693512 76.23205566 -17.5693512 76.23205566 -17.58813477 72.25805664 C-17.59675034 71.53237991 -17.60536591 70.80670319 -17.61424255 70.05903625 C-17.63691137 67.66472521 -17.63016317 65.27158365 -17.62109375 62.87719727 C-17.62632871 61.21097465 -17.63260473 59.54475501 -17.63987732 57.87854004 C-17.65028295 54.38820439 -17.64571758 50.8982764 -17.63110352 47.40795898 C-17.61390878 42.93519073 -17.63741741 38.46370624 -17.67259312 33.99108124 C-17.69455305 30.55091847 -17.69312927 27.11106361 -17.6848278 23.67085266 C-17.68400762 22.021821 -17.69088384 20.37276687 -17.70559883 18.72380066 C-17.72302178 16.41800995 -17.70852561 14.11453537 -17.68579102 11.80883789 C-17.68482925 10.49741821 -17.68386749 9.18599854 -17.68287659 7.83483887 C-17.0546875 4.53344727 -17.0546875 4.53344727 -15.2686615 2.11207581 C-10.27636423 -0.34002336 -5.49100754 -0.03109584 0 0 Z " fill="#ABE8F4" transform="translate(144.0546875,366.466552734375)"/>
<path d="M0 0 C1.3046801 1.95702015 2.57742367 3.93582457 3.8125 5.9375 C7.03157307 10.4442023 10.59972136 13.5599257 16 15 C19.34074266 15.15418812 22.65856398 15.11678806 26 15 C26.31453125 16.16015625 26.6290625 17.3203125 26.953125 18.515625 C29.39175881 27.44165619 31.96413365 36.25647558 35 45 C33.94087402 45.02187378 33.94087402 45.02187378 32.86035156 45.04418945 C29.65635326 45.11873167 26.45338984 45.21537205 23.25 45.3125 C21.58324219 45.34633789 21.58324219 45.34633789 19.8828125 45.38085938 C18.81289062 45.41630859 17.74296875 45.45175781 16.640625 45.48828125 C15.16384277 45.52755737 15.16384277 45.52755737 13.65722656 45.56762695 C10.45853492 46.08810498 9.25869362 46.67312596 7 49 C6.3955814 52.30693705 6.3955814 52.30693705 6.49829102 56.17773438 C6.49288803 56.90487137 6.48748505 57.63200836 6.48191833 58.38117981 C6.46940648 60.7857834 6.48593704 63.18919534 6.50390625 65.59375 C6.50375132 67.26379459 6.5022633 68.93383954 6.49949646 70.60388184 C6.49811137 74.10440968 6.51068845 77.60452834 6.53344727 81.10498047 C6.5618325 85.5944253 6.55909618 90.08319009 6.54635715 94.57268524 C6.53940568 98.02136047 6.54718311 101.46987821 6.55961418 104.91853333 C6.56413388 106.57395321 6.56446096 108.22938997 6.56054878 109.8848114 C6.55764169 112.19764928 6.57411813 114.50954654 6.59594727 116.82226562 C6.60135025 118.13892212 6.60675323 119.45557861 6.61231995 120.81213379 C6.72236489 123.91657019 6.72236489 123.91657019 8.24852085 125.67642403 C10.46154606 127.34878593 11.65505568 127.37170799 14.41134644 127.36508179 C15.31382614 127.37039413 16.21630585 127.37570648 17.14613342 127.38117981 C18.13415451 127.3718895 19.1221756 127.36259918 20.14013672 127.35302734 C21.18283218 127.35518753 22.22552765 127.35734772 23.29981995 127.35957336 C25.56861277 127.36266528 27.83742224 127.35903996 30.10619736 127.34955978 C33.70592098 127.3358375 37.30509213 127.34225214 40.90481567 127.35440063 C51.14133247 127.38537147 61.37772335 127.38058283 71.61425781 127.36035156 C77.8748524 127.34938416 84.1350351 127.36273813 90.39557266 127.39024734 C92.77399568 127.39566345 95.15246052 127.39168704 97.53084946 127.37784958 C110.1773623 127.30518829 120.49339624 127.33722298 132 133 C135.05652122 133.91130427 138.11967516 134.58361436 141.25 135.1875 C142.03995361 135.34766602 142.82990723 135.50783203 143.64379883 135.67285156 C151.71859426 137.25069439 159.81814177 138.16083505 168 139 C168 146.92 168 154.84 168 163 C105.63 163 43.26 163 -21 163 C-21 114.49 -21 65.98 -21 16 C-23.97 15.505 -23.97 15.505 -27 15 C-23.91691277 14.07649461 -21.32920254 13.97527091 -18.125 14.125 C-13.62111155 14.15145456 -10.78398985 13.63999292 -7 11 C-3.72123809 7.57220346 -1.46380173 4.52447806 0 0 Z " fill="#F87D21" transform="translate(121,322)"/>
<path d="M0 0 C1.17468491 -0.00644889 2.34936983 -0.01289778 3.55965126 -0.0195421 C4.8512658 -0.01644489 6.14288034 -0.01334769 7.47363472 -0.01015663 C8.85874623 -0.01389242 10.24385563 -0.01849365 11.62896168 -0.02388728 C15.43929352 -0.03614153 19.24953773 -0.03585397 23.05988479 -0.03349853 C27.16768423 -0.03309097 31.27545535 -0.04412359 35.38324165 -0.05361366 C43.4326045 -0.07023773 51.48193805 -0.07572384 59.53131662 -0.07683842 C66.07293672 -0.07778819 72.61454713 -0.08189493 79.15616417 -0.08823967 C97.69555205 -0.10585562 116.23491676 -0.11507794 134.77431308 -0.11357872 C136.27400192 -0.11345885 136.27400192 -0.11345885 137.8039875 -0.11333656 C139.30550355 -0.11321392 139.30550355 -0.11321392 140.83735324 -0.1130888 C157.06406683 -0.11227571 173.29068764 -0.13141816 189.51737438 -0.1596133 C206.17165938 -0.18832351 222.82589909 -0.20215463 239.48020947 -0.20042574 C248.83324038 -0.19976122 258.18617401 -0.20528101 267.53918266 -0.22678185 C275.50190712 -0.24496912 283.4644902 -0.24936121 291.42722641 -0.235763 C295.4907812 -0.22922099 299.55406459 -0.2291603 303.61759377 -0.2464695 C307.33726482 -0.2621512 311.05644817 -0.25938739 314.77610697 -0.24190123 C316.75979442 -0.23736048 318.74349671 -0.25252705 320.727126 -0.26838052 C331.43810761 -0.18488599 331.43810761 -0.18488599 336.27713203 4.25726891 C339.24522474 7.31928859 339.68728305 9.47078804 339.65213203 13.69476891 C339.52001262 18.00875491 339.27474924 20.94955336 336.27713203 24.25726891 C332.52923844 26.92978448 329.97614064 27.63261046 325.39718819 27.63479233 C323.62079901 27.64652719 323.62079901 27.64652719 321.80852318 27.65849912 C319.8627746 27.64846087 319.8627746 27.64846087 317.87771797 27.63821983 C316.48277991 27.64167669 315.08784458 27.64644144 313.69291496 27.65240157 C309.86005855 27.66493755 306.02742591 27.65872945 302.19456863 27.64944291 C298.06090076 27.64266337 293.92727172 27.6531282 289.79361153 27.66138268 C281.6959038 27.67473392 273.59827941 27.67183608 265.50056839 27.66314475 C258.92034533 27.65637408 252.34014566 27.65544881 245.75992012 27.6587162 C244.82396909 27.6591759 243.88801805 27.6596356 242.92370486 27.66010923 C241.02243518 27.66106839 239.12116551 27.66204103 237.21989584 27.663027 C219.38485974 27.67158497 201.54986988 27.66174038 183.71484137 27.6456259 C168.40615468 27.63222235 153.09753624 27.63455033 137.78885078 27.64838219 C120.01834298 27.66443081 102.24787572 27.67076096 84.47736168 27.6615454 C82.58302244 27.66058973 80.6886832 27.65964662 78.79434395 27.6587162 C77.86225318 27.65825338 76.93016241 27.65779055 75.96982646 27.6573137 C69.39626707 27.65472166 62.82273335 27.65909942 56.24917793 27.66615486 C48.23998034 27.67456209 40.23087097 27.67230611 32.2216835 27.65631263 C28.13399206 27.64841942 24.04644781 27.64535612 19.9587574 27.65526009 C16.21827053 27.66418587 12.47806756 27.65930934 8.73760653 27.64332743 C6.74031771 27.63837787 4.74300926 27.64819508 2.74574089 27.65849912 C1.56148144 27.65067588 0.37722198 27.64285264 -0.84292412 27.63479233 C-1.86507893 27.63430527 -2.88723373 27.63381821 -3.94036293 27.6333164 C-8.100931 27.07102768 -10.74428176 25.33708817 -13.53536797 22.25726891 C-15.37760641 17.60319283 -15.50349921 13.18681063 -14.72286797 8.25726891 C-11.592137 1.9709599 -6.66491167 0.00924274 0 0 Z " fill="#6D362C" transform="translate(93.72286796569824,484.74273109436035)"/>
<path d="M0 0 C21.6309975 10.85402463 38.76474299 27.83196907 46.89990234 50.79736328 C50.62377236 62.39865064 51.37715476 73.0728679 51.43115234 85.21923828 C51.43961182 87.02352295 51.43961182 87.02352295 51.44824219 88.86425781 C51.37000503 98.59085975 50.48190751 108.14121763 48.11865234 117.59423828 C38.87865234 117.59423828 29.63865234 117.59423828 20.11865234 117.59423828 C20.09287109 115.10892578 20.06708984 112.62361328 20.04052734 110.06298828 C20.00187393 107.59690061 19.95679015 105.13100591 19.91113281 102.66503906 C19.88328746 100.97991493 19.86189631 99.29466902 19.84765625 97.609375 C19.63491374 73.82476208 13.47826381 52.56228129 -3.06884766 34.84423828 C-8.67247719 29.47863903 -15.28501028 25.60460792 -21.88134766 21.59423828 C-22.87134766 20.93423828 -23.86134766 20.27423828 -24.88134766 19.59423828 C-28.10687408 18.93271565 -30.11708829 19.15551651 -32.98486328 20.80175781 C-35.42620383 22.51913977 -37.78234391 24.31511934 -40.13134766 26.15673828 C-41.81954408 27.44269003 -43.50834082 28.72785408 -45.19775391 30.01220703 C-46.0035791 30.63144043 -46.8094043 31.25067383 -47.63964844 31.88867188 C-51.62805274 34.92319512 -55.74491645 37.76572748 -59.88134766 40.59423828 C-59.38634766 41.60486328 -58.89134766 42.61548828 -58.38134766 43.65673828 C-55.77028465 50.71162968 -55.47446849 59.17976411 -57.76025391 66.35205078 C-61.36458872 73.37039249 -67.10091085 78.68625962 -74.65478516 81.12158203 C-82.82469525 82.85589628 -90.72359031 82.02354357 -97.88134766 77.59423828 C-103.0418955 73.10643513 -106.15176436 69.53027675 -106.88134766 62.59423828 C-97.85397564 55.58926875 -88.76358866 48.72782047 -79.39672852 42.18261719 C-71.59806985 36.72257762 -63.95469612 31.05712954 -56.30615234 25.38964844 C-51.46446646 21.80469496 -46.61306893 18.23288643 -41.76074219 14.66235352 C-37.9871338 11.8852716 -34.21781004 9.10289963 -30.45947266 6.30517578 C-29.4245166 5.53790161 -29.4245166 5.53790161 -28.36865234 4.75512695 C-27.08051014 3.80009769 -25.79455746 2.84210526 -24.51123047 1.88061523 C-16.60950833 -3.96285379 -8.80550909 -4.08060177 0 0 Z " fill="#F79738" transform="translate(320.88134765625,2.40576171875)"/>
<path d="M0 0 C1.31931519 0.00036255 2.63863037 0.0007251 3.9979248 0.00109863 C5.40006943 0.01620531 6.80220988 0.03170505 8.2043457 0.04760742 C9.47910767 0.05062866 10.75386963 0.0536499 12.06726074 0.0567627 C16.83829827 0.07248252 21.60922057 0.1143663 26.38012695 0.15307617 C37.04325195 0.21495117 47.70637695 0.27682617 58.69262695 0.34057617 C58.69262695 27.40057617 58.69262695 54.46057617 58.69262695 82.34057617 C42.97637695 82.46432617 42.97637695 82.46432617 26.94262695 82.59057617 C23.63779297 82.62699219 20.33295898 82.6634082 16.92797852 82.70092773 C14.31307628 82.71260845 11.69816679 82.72280173 9.08325195 82.73120117 C8.40534607 82.74165466 7.72744019 82.75210815 7.0289917 82.76287842 C5.02675731 82.79220243 3.02417749 82.7939325 1.02172852 82.79467773 C-0.10634216 82.80356018 -1.23441284 82.81244263 -2.39666748 82.82159424 C-5.30737305 82.34057617 -5.30737305 82.34057617 -7.67158508 80.76789856 C-9.92801049 77.41962114 -9.80857337 75.07297107 -9.80908203 71.04931641 C-9.81448502 70.32203339 -9.819888 69.59475037 -9.82545471 68.84542847 C-9.83794191 66.44625913 -9.82145399 64.04828976 -9.8034668 61.64916992 C-9.80362177 59.98055458 -9.80511046 58.31193887 -9.80787659 56.64332581 C-9.80926051 53.1487738 -9.79670267 49.65463228 -9.77392578 46.16015625 C-9.74551889 41.67858698 -9.74828439 37.19769859 -9.76101589 32.71607876 C-9.76796654 29.27169466 -9.76019125 25.82746828 -9.74775887 22.38310432 C-9.74323992 20.73047553 -9.74291143 19.07782984 -9.74682426 17.42519951 C-9.74973111 15.11725952 -9.73325691 12.81026232 -9.71142578 10.50244141 C-9.7060228 9.18880112 -9.70061981 7.87516083 -9.6950531 6.52171326 C-9.30737305 3.34057617 -9.30737305 3.34057617 -8.17633057 1.41424561 C-5.4119973 -0.17379484 -3.17566599 -0.01842746 0 0 Z " fill="#3DCEF2" transform="translate(136.307373046875,367.659423828125)"/>
<path d="M0 0 C4.34157052 -0.09905303 8.68253854 -0.17155301 13.02490234 -0.21972656 C14.5012559 -0.23981301 15.97753019 -0.26708801 17.45361328 -0.30175781 C19.57864962 -0.35041184 21.70263234 -0.37299673 23.828125 -0.390625 C25.1059082 -0.41157227 26.38369141 -0.43251953 27.70019531 -0.45410156 C31 0 31 0 33.19750977 1.49926758 C35.67060567 4.93038249 37.32047658 8.53688745 39.01171875 12.40234375 C39.3817955 13.22688049 39.75187225 14.05141724 40.13316345 14.90093994 C42.15778493 19.4255498 44.13949799 23.96889549 46.12451172 28.51098633 C46.92779146 30.34598342 47.73133666 32.18086433 48.53515625 34.015625 C48.92648743 34.91190109 49.3178186 35.80817719 49.7210083 36.73161316 C51.68848848 41.19502527 53.72944639 45.511377 56.18359375 49.734375 C60.9850766 58.02468138 62.53403889 66.49782567 62.66796875 75.9765625 C62.69009933 76.97266037 62.71222992 77.96875824 62.73503113 78.99504089 C62.78871834 82.10135625 62.80804307 85.20574345 62.8125 88.3125 C62.8152594 89.32106049 62.8180188 90.32962097 62.82086182 91.3687439 C62.81320108 94.28495949 62.7689701 97.1977526 62.70703125 100.11328125 C62.69898972 100.98961212 62.69094818 101.86594299 62.68266296 102.76882935 C62.46473087 109.18780021 61.07326586 114.83469225 56.48274231 119.56269836 C51.0506274 124.20777141 47.32879763 124.35443353 40.3359375 124.26953125 C35.78642166 123.90194742 32.49842508 122.97738305 29 120 C24.37560804 114.34410207 22.77093618 109.68630075 23.27032471 102.39614868 C25.62295491 67.20002393 14.46373736 37.6064944 1.9107666 5.38047791 C1.23067137 3.6029076 0.60185428 1.80556283 0 0 Z " fill="#F44748" transform="translate(368,213)"/>
<path d="M0 0 C10.56 0 21.12 0 32 0 C36.49965679 10.12422778 36.49965679 10.12422778 37.76757812 13.88623047 C38.05467651 14.73095917 38.3417749 15.57568787 38.63757324 16.4460144 C39.07994324 17.76824509 39.07994324 17.76824509 39.53125 19.1171875 C39.84904419 20.05499054 40.16683838 20.99279358 40.4942627 21.95901489 C41.50018114 24.92967377 42.50036839 27.90222037 43.5 30.875 C44.5006878 33.84026986 45.502611 36.80511596 46.5057373 39.76956177 C47.12628347 41.60451496 47.7452987 43.43998695 48.36242676 45.27609253 C48.64952515 46.12712555 48.93662354 46.97815857 49.23242188 47.85498047 C49.65685326 49.12159767 49.65685326 49.12159767 50.08985901 50.4138031 C50.71562704 52.19194447 51.38499354 53.95514949 52.08970642 55.70350647 C54.72339644 62.32208272 55.60363205 67.97263151 55.56640625 75.07421875 C55.57570412 76.5872332 55.57570412 76.5872332 55.58518982 78.1308136 C55.59223796 80.24418176 55.58920256 82.35760603 55.57641602 84.47094727 C55.56248635 87.69065494 55.59677421 90.90748696 55.63476562 94.12695312 C55.63571645 96.19270904 55.63385999 98.25846856 55.62890625 100.32421875 C55.64216446 101.27648849 55.65542267 102.22875824 55.66908264 103.20988464 C55.57912196 109.70487254 54.13451371 113.95161737 50 119 C45.74157072 123.04550782 42.12745205 124.74759043 36.3125 125.4375 C30.99571686 125.26631569 26.16265227 123.25949933 22 120 C17.47929096 114.45536122 16.36714668 110.16826938 16.85546875 103.15234375 C16.91488259 101.36109396 16.96853881 99.56964667 17.01733398 97.77807617 C17.04769745 96.82919525 17.07806091 95.88031433 17.10934448 94.90267944 C17.93931279 63.41411598 9.26147497 34.28094587 0.60069275 4.31596375 C0 2 0 2 0 0 Z " fill="#E6E4E4" transform="translate(336,213)"/>
<path d="M0 0 C1.34888732 0.00015905 2.69778075 0.00584927 4.04663086 0.01586914 C5.10991859 0.01799156 5.10991859 0.01799156 6.19468689 0.02015686 C8.46699173 0.02577096 10.73919936 0.03832576 13.01147461 0.05102539 C14.54858257 0.05603858 16.08569206 0.0606018 17.62280273 0.06469727 C21.39823103 0.07574497 25.17358632 0.09301898 28.94897461 0.11352539 C27.10764994 10.14724645 25.10848792 20.03980106 22.18725586 29.82055664 C15.72599745 51.80700134 12.73138715 72.00180109 13.09667969 94.96826172 C13.10773743 95.92970596 13.11879517 96.89115021 13.13018799 97.88172913 C13.15689645 99.67248415 13.203288 101.46310727 13.27386475 103.25267029 C13.39851927 109.7851979 11.86158178 113.85825855 7.42163086 118.82055664 C2.41066022 122.74882448 -1.44883749 124.62986191 -7.93774414 124.42211914 C-14.55704839 123.45552943 -18.85263848 119.77799733 -22.92211914 114.69946289 C-31.04487151 103.2882606 -27.06767009 75.10219826 -25.05102539 62.11352539 C-22.62093749 50.67281136 -18.60440447 39.58502785 -14.61352539 28.61352539 C-14.36451225 27.9279443 -14.11549911 27.2423632 -13.85894012 26.53600693 C-4.23860491 0.15771395 -4.23860491 0.15771395 0 0 Z " fill="#E7E5E5" transform="translate(147.051025390625,213.886474609375)"/>
<path d="M0 0 C10.56 0 21.12 0 32 0 C32.09096392 11.30984728 31.80860135 22.51588573 31.20346069 33.80722046 C30.491802 47.08653443 29.94085099 60.34129013 29.8203125 73.640625 C29.80783981 74.77287003 29.79536713 75.90511505 29.78251648 77.07167053 C29.72286398 82.61458643 29.68818779 88.15574285 29.69360352 93.69897461 C29.67568425 95.73031545 29.65677167 97.76164785 29.63671875 99.79296875 C29.64700104 100.70890808 29.65728333 101.62484741 29.6678772 102.56854248 C29.57035807 108.91535706 28.0072107 113.05583834 24 118 C19.69371447 122.09097125 16.0879755 123.79462536 10.1875 124.375 C4.62019762 124.19676245 0.17889661 122.12217912 -3.80078125 118.24609375 C-7.22020251 114.33701789 -9.11669329 111.84499211 -9.16113281 106.56396484 C-9.17074036 105.64054291 -9.1803479 104.71712097 -9.19024658 103.76571655 C-9.19449646 102.75763947 -9.19874634 101.74956238 -9.203125 100.7109375 C-9.20882507 99.66088531 -9.21452515 98.61083313 -9.22039795 97.52896118 C-9.2298726 95.28770965 -9.23639165 93.04644404 -9.24023438 90.80517578 C-9.24974407 87.46489616 -9.28065607 84.12528595 -9.3125 80.78515625 C-9.39985207 62.8501699 -7.61004225 45.43465856 -4.46484375 27.78515625 C-3.69197232 23.15442237 -3.13841627 18.49468874 -2.5625 13.8359375 C-1.88197823 9.19515711 -0.91986522 4.59932609 0 0 Z " fill="#E7E5E5" transform="translate(208,214)"/>
<path d="M0 0 C10.56 0 21.12 0 32 0 C32.28875 2.413125 32.5775 4.82625 32.875 7.3125 C33.45746671 12.07059095 34.09137023 16.79099015 35 21.5 C35.99593125 26.66639336 36.62645287 31.8611 37.24780273 37.08227539 C37.82717491 41.85796558 38.58281996 46.56288557 39.53515625 51.27734375 C41.34959974 61.90479847 41.28963969 72.56917206 41.35009766 83.32006836 C41.36671381 85.48358881 41.39407731 87.64705312 41.43212891 89.81030273 C41.48704548 92.95845482 41.50878417 96.1053391 41.5234375 99.25390625 C41.54610687 100.2124501 41.56877625 101.17099396 41.59213257 102.15858459 C41.57168777 108.69597199 40.17346753 112.92619206 36 118 C31.69371447 122.09097125 28.0879755 123.79462536 22.1875 124.375 C16.62019762 124.19676245 12.17889661 122.12217912 8.19921875 118.24609375 C4.75837652 114.31252948 2.88780856 111.81802341 2.82641602 106.50732422 C2.80606796 105.09911659 2.80606796 105.09911659 2.78530884 103.66246033 C2.77494598 102.63689529 2.76458313 101.61133026 2.75390625 100.5546875 C2.72220035 98.35603441 2.69020633 96.15738545 2.65795898 93.95874023 C2.64256073 92.80203827 2.62716248 91.6453363 2.61129761 90.45358276 C2.37099127 72.83066753 1.95096618 55.28850683 0.66479492 37.71044922 C-0.22061049 25.12122369 -0.1371594 12.61866497 0 0 Z " fill="#E7E5E5" transform="translate(273,214)"/>
<path d="M0 0 C1.07041015 -0.01581147 2.1408203 -0.03162294 3.24366713 -0.04791355 C4.19858305 -0.06787372 5.15349898 -0.08783389 6.13735175 -0.10839891 C10.8519154 0.21445334 13.3410763 2.75246422 16.52744627 5.93883419 C18.00427706 8.72840347 17.72882728 10.94918653 17.65244627 14.06383419 C-22.2471615 14.10959726 -62.14676586 14.1448461 -102.04639462 14.16596485 C-106.75534223 14.16846631 -111.46428979 14.17105495 -116.17323732 14.17369747 C-117.1107165 14.17422209 -118.04819568 14.17474671 -119.01408331 14.17528723 C-134.19990859 14.18399332 -149.38571876 14.19976442 -164.57153507 14.21813978 C-180.14991405 14.23683315 -195.7282851 14.24794972 -211.30667484 14.25201118 C-220.92180964 14.25475741 -230.53690171 14.26343577 -240.15202336 14.27966712 C-246.74264031 14.29022704 -253.33323511 14.29343707 -259.92385991 14.29083695 C-263.72808311 14.28955411 -267.53223156 14.29154098 -271.33644152 14.30224514 C-275.45946757 14.31376176 -279.5823339 14.30981616 -283.70537233 14.30434322 C-284.90965305 14.31016891 -286.11393377 14.31599459 -287.35470784 14.32199681 C-294.22776333 14.29724473 -299.59799896 14.26347801 -305.16005373 9.81383419 C-307.61017514 6.73368155 -307.85610898 4.88970515 -308.34755373 1.06383419 C-269.69661833 0.93620871 -231.04568225 0.80879133 -192.39474525 0.68165192 C-187.82872177 0.66663214 -183.26269829 0.65161065 -178.69667482 0.6365881 C-177.78768504 0.63359748 -176.87869526 0.63060687 -175.94216034 0.62752563 C-161.23568581 0.57913661 -146.52921174 0.53060852 -131.82273784 0.48202878 C-116.72571471 0.43216205 -101.62869108 0.38244536 -86.53166699 0.33286715 C-77.22059153 0.30228512 -67.90951646 0.27158691 -58.59844187 0.24073875 C-52.208223 0.21957879 -45.81800366 0.19856495 -39.42778394 0.1776644 C-35.74436231 0.16561274 -32.06094093 0.15349819 -28.37752008 0.1412096 C-24.37487655 0.12785772 -20.37223206 0.11481433 -16.36958742 0.10179806 C-15.21780229 0.09790711 -14.06601716 0.09401616 -12.87932944 0.09000731 C-10.73807837 0.08314122 -8.59681746 0.07874903 -6.45555592 0.07723045 C-4.30356995 0.06795486 -2.1516148 0.04102894 0 0 Z " fill="#7D4234" transform="translate(415.347553730011,484.93616580963135)"/>
<path d="M0 0 C1.08128677 -0.01489471 1.08128677 -0.01489471 2.18441772 -0.03009033 C4.56398368 -0.05924691 6.94328298 -0.07292264 9.32299805 -0.08398438 C10.98203027 -0.0954948 12.64106245 -0.10701017 14.3000946 -0.11853027 C17.77771235 -0.1395258 21.25523797 -0.15122691 24.73291016 -0.15820312 C29.17854027 -0.16916595 33.62294311 -0.21721248 38.06818867 -0.27414703 C41.49555462 -0.31148741 44.92262754 -0.3218155 48.35017967 -0.32487488 C49.98841242 -0.33090989 51.62664111 -0.34690654 53.26467323 -0.37324524 C67.67364998 -0.58838949 67.67364998 -0.58838949 72.26904297 3.23828125 C75.87769627 7.68424911 76.11809653 10.18074649 76.0534668 15.77929688 C75.64040435 19.51406981 74.26347347 21.5616839 71.7722168 24.32226562 C67.55421512 27.55464742 63.81008855 27.73677759 58.67724609 27.6628418 C57.47646172 27.66349892 57.47646172 27.66349892 56.25141907 27.66416931 C53.61617294 27.66208609 50.98156998 27.63877741 48.34643555 27.61523438 C46.515125 27.60963675 44.68380994 27.60536744 42.85249329 27.60237122 C38.04047163 27.59093552 33.22872309 27.56147929 28.41680908 27.52825928 C23.50341486 27.49753091 18.58997636 27.48385997 13.67651367 27.46875 C4.04162828 27.43660839 -5.59305472 27.38542742 -15.2277832 27.32226562 C-15.34446196 24.09340554 -15.41518866 20.86509117 -15.4777832 17.63476562 C-15.51129883 16.72275391 -15.54481445 15.81074219 -15.5793457 14.87109375 C-15.64134174 10.60886632 -15.64964926 8.04373124 -13.4621582 4.30273438 C-9.00152455 0.34899091 -5.97511091 0.062652 0 0 Z " fill="#7F4435" transform="translate(336.227783203125,119.677734375)"/>
<path d="M0 0 C1.30155029 -0.01260864 2.60310059 -0.02521729 3.9440918 -0.03820801 C5.35205633 -0.03104775 6.76001588 -0.02284365 8.16796875 -0.01367188 C9.62475849 -0.01636952 11.08154647 -0.02025421 12.53833008 -0.02526855 C15.58464784 -0.03115092 18.63049497 -0.02264217 21.67675781 -0.00390625 C25.57073938 0.01888342 29.46361805 0.00575343 33.3575592 -0.01819611 C36.36373115 -0.03268879 39.36964399 -0.02803241 42.37582397 -0.01768494 C43.81106702 -0.01502719 45.24633402 -0.01825378 46.68154907 -0.02760315 C48.69134029 -0.03782402 50.7012146 -0.019469 52.7109375 0 C54.42253052 0.00477356 54.42253052 0.00477356 56.16870117 0.00964355 C61.05234421 0.78804081 64.02815812 2.97322299 67.21875 6.68554688 C68.85516776 10.76253271 68.67672902 14.48458409 68.54296875 18.83007812 C68.52266602 20.08401367 68.52266602 20.08401367 68.50195312 21.36328125 C68.46678092 23.41499311 68.41297923 25.46637088 68.35546875 27.51757812 C58.81072816 27.58716522 49.26607524 27.64043354 39.72113609 27.67301464 C35.28877155 27.68865392 30.85658089 27.70986032 26.42431641 27.74389648 C22.14492718 27.7765521 17.86570495 27.79444422 13.58620071 27.80220985 C11.95555621 27.80774225 10.32492058 27.81854573 8.69434738 27.8347683 C6.40589576 27.85662546 4.11812947 27.85954166 1.82958984 27.8581543 C-0.12232773 27.86814705 -0.12232773 27.86814705 -2.11367798 27.87834167 C-6.49949623 27.43022241 -10.05807921 26.23128568 -13.10546875 22.93945312 C-15.44461423 18.6610161 -16.27829252 15.49713099 -15.64453125 10.51757812 C-12.97072361 2.94178981 -7.8555334 0.02190875 0 0 Z " fill="#6E372C" transform="translate(115.64453125,119.482421875)"/>
<path d="M0 0 C0.33 0 0.66 0 1 0 C1.1272904 6.5468254 1.21455591 13.09332902 1.2746582 19.64111328 C1.29972607 21.86616949 1.33378944 24.09114398 1.37719727 26.31591797 C1.43818809 29.52331765 1.46628784 32.72962407 1.48828125 35.9375 C1.51408768 36.92427734 1.5398941 37.91105469 1.56648254 38.92773438 C1.56914787 45.56446957 0.2633751 49.85764704 -4 55 C-8.25842928 59.04550782 -11.87254795 60.74759043 -17.6875 61.4375 C-23.00428314 61.26631569 -27.83734773 59.25949933 -32 56 C-37.05221466 50.01687891 -37.69241026 44.78864354 -37.48828125 37.15625 C-37.47766914 35.64170227 -37.47766914 35.64170227 -37.46684265 34.09655762 C-37.43903256 30.89692579 -37.37631815 27.69909571 -37.3125 24.5 C-37.28739988 22.32033792 -37.26458973 20.14064818 -37.24414062 17.9609375 C-37.19351704 12.63938602 -37.09563741 7.32169028 -37 2 C-24.79 2 -12.58 2 0 2 C0 1.34 0 0.68 0 0 Z " fill="#CECBCB" transform="translate(390,277)"/>
<path d="M0 0 C12.54 0 25.08 0 38 0 C38.09203307 6.28125713 38.1716117 12.56015756 38.21972656 18.84155273 C38.23979182 20.97639918 38.26705058 23.111191 38.30175781 25.24584961 C38.35049943 28.32158925 38.37302006 31.39659969 38.390625 34.47265625 C38.41127014 35.42084732 38.43191528 36.36903839 38.45318604 37.34596252 C38.45549304 44.22142368 37.15149857 48.47773689 32.47265625 53.70703125 C27.46168561 57.63529909 23.6021879 59.51633652 17.11328125 59.30859375 C10.493977 58.34200403 6.19838691 54.66447194 2.12890625 49.5859375 C0.11212332 46.75267151 -0.12290321 44.9825751 -0.11352539 41.55029297 C-0.11344986 40.62948944 -0.11337433 39.70868591 -0.11329651 38.75997925 C-0.10813522 37.76410797 -0.10297394 36.76823669 -0.09765625 35.7421875 C-0.0962413 34.72399933 -0.09482635 33.70581116 -0.09336853 32.6567688 C-0.087759 29.39614965 -0.07520488 26.13559849 -0.0625 22.875 C-0.05748623 20.66796974 -0.05292311 18.46093841 -0.04882812 16.25390625 C-0.03863622 10.83589006 -0.01906262 5.41802138 0 0 Z " fill="#CECCCB" transform="translate(122,279)"/>
<path d="M0 0 C12.54 0 25.08 0 38 0 C38.11513549 6.2633704 38.21457006 12.52303342 38.2746582 18.78662109 C38.29971889 20.91467771 38.33377691 23.04264897 38.37719727 25.17041016 C38.43822089 28.23882163 38.46629474 31.30608995 38.48828125 34.375 C38.51408768 35.31802979 38.5398941 36.26105957 38.56648254 37.23266602 C38.56921519 43.74729042 37.15227765 47.94329291 33 53 C28.69371447 57.09097125 25.0879755 58.79462536 19.1875 59.375 C13.62019762 59.19676245 9.17889661 57.12217912 5.19921875 53.24609375 C1.7679842 49.32351296 -0.12801556 46.85369352 -0.11352539 41.55029297 C-0.11344986 40.62948944 -0.11337433 39.70868591 -0.11329651 38.75997925 C-0.10813522 37.76410797 -0.10297394 36.76823669 -0.09765625 35.7421875 C-0.0962413 34.72399933 -0.09482635 33.70581116 -0.09336853 32.6567688 C-0.087759 29.39614965 -0.07520488 26.13559849 -0.0625 22.875 C-0.05748623 20.66796974 -0.05292311 18.46093841 -0.04882812 16.25390625 C-0.03863622 10.83589006 -0.01906262 5.41802138 0 0 Z " fill="#CECCCB" transform="translate(276,279)"/>
<path d="M0 0 C12.54 0 25.08 0 38 0 C38.11513549 6.2633704 38.21457006 12.52303342 38.2746582 18.78662109 C38.29971889 20.91467771 38.33377691 23.04264897 38.37719727 25.17041016 C38.43822089 28.23882163 38.46629474 31.30608995 38.48828125 34.375 C38.51408768 35.31802979 38.5398941 36.26105957 38.56648254 37.23266602 C38.56921519 43.74729042 37.15227765 47.94329291 33 53 C28.69371447 57.09097125 25.0879755 58.79462536 19.1875 59.375 C13.62019762 59.19676245 9.17889661 57.12217912 5.19921875 53.24609375 C1.7679842 49.32351296 -0.12801556 46.85369352 -0.11352539 41.55029297 C-0.11344986 40.62948944 -0.11337433 39.70868591 -0.11329651 38.75997925 C-0.10813522 37.76410797 -0.10297394 36.76823669 -0.09765625 35.7421875 C-0.0962413 34.72399933 -0.09482635 33.70581116 -0.09336853 32.6567688 C-0.087759 29.39614965 -0.07520488 26.13559849 -0.0625 22.875 C-0.05748623 20.66796974 -0.05292311 18.46093841 -0.04882812 16.25390625 C-0.03863622 10.83589006 -0.01906262 5.41802138 0 0 Z " fill="#CECCCB" transform="translate(199,279)"/>
<path d="M0 0 C1.56047445 0.00015913 3.12095416 0.00585397 4.68139648 0.01586914 C5.91115456 0.01799156 5.91115456 0.01799156 7.16575623 0.02015686 C9.79470406 0.0257725 12.42356797 0.0383276 15.05249023 0.05102539 C16.8304838 0.05603838 18.60847869 0.06060163 20.38647461 0.06469727 C24.75434569 0.07574701 29.12215371 0.09302208 33.48999023 0.11352539 C33.59160312 6.6970498 33.66154493 13.28037116 33.7097168 19.86450195 C33.72980339 22.1031856 33.75707804 24.34181697 33.79174805 26.58032227 C33.84039487 29.80245888 33.86298898 33.02390041 33.88061523 36.24633789 C33.90126038 37.24343781 33.92190552 38.24053772 33.94317627 39.26785278 C33.94504409 45.08245073 33.45870131 48.54072251 29.48999023 53.11352539 C23.8189485 58.10944311 20.29292083 58.4737155 12.82592773 58.38305664 C8.2764119 58.01547281 4.98841532 57.09090844 1.48999023 54.11352539 C-2.5848964 49.12970414 -4.63224356 44.36013918 -4.6394043 37.91162109 C-4.64255646 37.09430008 -4.64570862 36.27697906 -4.6489563 35.43489075 C-4.64693207 34.56184799 -4.64490784 33.68880524 -4.64282227 32.78930664 C-4.64377899 31.88730026 -4.64473572 30.98529388 -4.64572144 30.05595398 C-4.64640087 28.1538384 -4.64456309 26.25172048 -4.64038086 24.34960938 C-4.63501057 21.42646134 -4.64034343 18.50346565 -4.64672852 15.58032227 C-4.64606806 13.73331672 -4.64478757 11.88631126 -4.64282227 10.03930664 C-4.6448465 9.16019119 -4.64687073 8.28107574 -4.6489563 7.37532043 C-4.62076209 0.14945082 -4.62076209 0.14945082 0 0 Z " fill="#E01F31" transform="translate(395.510009765625,278.886474609375)"/>
<path d="M0 0 C12.54 0 25.08 0 38 0 C38.09203307 6.28125713 38.1716117 12.56015756 38.21972656 18.84155273 C38.23979182 20.97639918 38.26705058 23.111191 38.30175781 25.24584961 C38.35049943 28.32158925 38.37302006 31.39659969 38.390625 34.47265625 C38.41127014 35.42084732 38.43191528 36.36903839 38.45318604 37.34596252 C38.45549695 44.23305277 37.1626116 48.55128417 32.40234375 53.7421875 C26.4221365 58.36688111 21.37070632 58.69573015 14 58 C8.88738094 56.65095598 5.92261485 54.36212212 3.0625 49.9375 C0.934888 46.17992085 -0.12622225 43.04178657 -0.11352539 38.7121582 C-0.11344986 37.85149246 -0.11337433 36.99082672 -0.11329651 36.1040802 C-0.10813522 35.17899155 -0.10297394 34.25390289 -0.09765625 33.30078125 C-0.0962413 32.35059616 -0.09482635 31.40041107 -0.09336853 30.4214325 C-0.08776875 27.38508971 -0.07521632 24.34882052 -0.0625 21.3125 C-0.05748497 19.25455836 -0.05292207 17.19661556 -0.04882812 15.13867188 C-0.03865008 10.09239671 -0.01907456 5.0462808 0 0 Z " fill="#E01E31" transform="translate(237,279)"/>
<path d="M0 0 C1.56047445 0.00015913 3.12095416 0.00585397 4.68139648 0.01586914 C5.91115456 0.01799156 5.91115456 0.01799156 7.16575623 0.02015686 C9.79470406 0.0257725 12.42356797 0.0383276 15.05249023 0.05102539 C16.8304838 0.05603838 18.60847869 0.06060163 20.38647461 0.06469727 C24.75434569 0.07574701 29.12215371 0.09302208 33.48999023 0.11352539 C33.61732973 6.37551019 33.70456605 12.63715807 33.76464844 18.90014648 C33.78970913 21.0282031 33.82376715 23.15617436 33.8671875 25.28393555 C33.92821113 28.35234702 33.95628497 31.41961535 33.97827148 34.48852539 C34.00407791 35.43155518 34.02988434 36.37458496 34.05647278 37.34619141 C34.0592023 43.85337165 32.65366962 48.07030419 28.48999023 53.11352539 C23.34171548 57.89406623 19.16971773 58.48222024 12.34545898 58.38305664 C8.04659646 57.97728166 4.84327658 56.85850582 1.48999023 54.11352539 C-2.22843775 49.50490018 -4.63292808 44.92811027 -4.6394043 38.93334961 C-4.64255646 38.09593231 -4.64570862 37.25851501 -4.6489563 36.39572144 C-4.64591995 35.04560471 -4.64591995 35.04560471 -4.64282227 33.66821289 C-4.64377899 32.74259552 -4.64473572 31.81697815 -4.64572144 30.86331177 C-4.64640174 28.9081414 -4.64455788 26.95296876 -4.64038086 24.99780273 C-4.63501839 21.99335712 -4.64033713 18.98906017 -4.64672852 15.98461914 C-4.64606795 14.08748339 -4.64478722 12.19034774 -4.64282227 10.29321289 C-4.6448465 9.38908661 -4.64687073 8.48496033 -4.6489563 7.55343628 C-4.62087523 0.14945447 -4.62087523 0.14945447 0 0 Z " fill="#E01E31" transform="translate(318.510009765625,278.886474609375)"/>
<path d="M0 0 C12.21 0 24.42 0 37 0 C37.0689698 6.2992413 37.12867498 12.59716597 37.16479492 18.89648438 C37.17985641 21.03813117 37.20030972 23.17974724 37.22631836 25.32128906 C37.26281728 28.40437411 37.27975302 31.48705038 37.29296875 34.5703125 C37.30845261 35.52366486 37.32393646 36.47701721 37.33988953 37.45925903 C37.34144564 43.6432599 36.64241805 48.13537862 32.28125 52.86328125 C31.6934375 53.34152344 31.105625 53.81976563 30.5 54.3125 C29.61828125 55.04919922 29.61828125 55.04919922 28.71875 55.80078125 C24.29714256 58.88585735 19.14844199 58.29777899 14 58 C8.40559183 56.9911723 5.68455778 55.31619626 2 51 C-0.14782833 47.77825751 -0.24649148 46.9566269 -0.22705078 43.25317383 C-0.22689972 42.29240433 -0.22674866 41.33163483 -0.22659302 40.3417511 C-0.21627045 39.30729355 -0.20594788 38.272836 -0.1953125 37.20703125 C-0.1924826 36.14586594 -0.18965271 35.08470062 -0.18673706 33.99137878 C-0.17553184 30.59830503 -0.15042647 27.20549413 -0.125 23.8125 C-0.11497065 21.51367568 -0.10584472 19.21484724 -0.09765625 16.91601562 C-0.07729202 11.27716072 -0.03814346 5.638875 0 0 Z " fill="#E01E31" transform="translate(84,279)"/>
<path d="M0 0 C12.21 0 24.42 0 37 0 C37.09203307 6.28125713 37.1716117 12.56015756 37.21972656 18.84155273 C37.23979182 20.97639918 37.26705058 23.111191 37.30175781 25.24584961 C37.35049943 28.32158925 37.37302006 31.39659969 37.390625 34.47265625 C37.41127014 35.42084732 37.43191528 36.36903839 37.45318604 37.34596252 C37.45549695 44.23305277 36.1626116 48.55128417 31.40234375 53.7421875 C25.4221365 58.36688111 20.37070632 58.69573015 13 58 C7.19968456 56.4694966 4.03432454 53.42670677 1.01895142 48.36401367 C-0.84056595 44.04984873 -0.6120612 39.7843882 -0.48828125 35.15625 C-0.47766914 33.64170227 -0.47766914 33.64170227 -0.46684265 32.09655762 C-0.43903256 28.89692579 -0.37631815 25.69909571 -0.3125 22.5 C-0.28739988 20.32033792 -0.26458973 18.14064818 -0.24414062 15.9609375 C-0.19351704 10.63938602 -0.09563741 5.32169028 0 0 Z " fill="#E01E31" transform="translate(161,279)"/>
<path d="M0 0 C2.79847177 1.67106197 3.98633997 3.15096985 5.703125 5.90234375 C6.20328125 6.68480469 6.7034375 7.46726562 7.21875 8.2734375 C10.68302567 14.4236231 10.06237682 21.63702167 9.453125 28.46484375 C7.19582671 35.66187999 2.10648622 40.85659033 -4.38671875 44.49609375 C-11.55139872 47.66086036 -19.38016922 47.49004246 -26.734375 45.02734375 C-32.24568672 42.55341628 -36.37250713 38.58693081 -39.546875 33.46484375 C-40.26171875 30.17578125 -40.26171875 30.17578125 -40.546875 27.46484375 C-29.94821088 19.24059875 -19.24329562 11.22372632 -8.17724609 3.63574219 C-6.39925616 2.40505585 -6.39925616 2.40505585 -4.37890625 0.50390625 C-2.546875 -0.53515625 -2.546875 -0.53515625 0 0 Z " fill="#F64746" transform="translate(254.546875,37.53515625)"/>
<path d="M0 0 C30.03 0 60.06 0 91 0 C90.04812889 5.71122666 89.77878972 7.11324486 86 11 C82.28027163 13.55820559 78.36153118 13.26855696 74.01855469 13.22705078 C73.2181778 13.22734283 72.4178009 13.22763489 71.59317017 13.22793579 C68.95262744 13.22654455 66.31236832 13.21099308 63.671875 13.1953125 C61.83913324 13.19158164 60.00638949 13.18873501 58.17364502 13.18673706 C53.35345946 13.17910637 48.53339471 13.15946269 43.71325684 13.1373291 C38.79322952 13.11685855 33.87318265 13.10773275 28.953125 13.09765625 C19.3020303 13.0762163 9.6510252 13.04208712 0 13 C0 8.71 0 4.42 0 0 Z " fill="#6F372C" transform="translate(321,134)"/>
<path d="M0 0 C1.25169228 -0.00074776 1.25169228 -0.00074776 2.52867126 -0.00151062 C4.29135522 0.00082865 6.05404259 0.01054855 7.81665039 0.02709961 C10.52064729 0.05072275 13.22366032 0.04765592 15.92773438 0.04101562 C17.63932882 0.04659137 19.3509191 0.0537006 21.0625 0.0625 C21.87396988 0.06158859 22.68543976 0.06067719 23.52149963 0.05973816 C29.23380812 0.13224562 29.23380812 0.13224562 31.46484375 2.36328125 C31.72363281 4.66992188 31.72363281 4.66992188 31.73046875 7.51953125 C31.73433594 9.05287109 31.73433594 9.05287109 31.73828125 10.6171875 C31.73054688 11.68839844 31.7228125 12.75960938 31.71484375 13.86328125 C31.72644531 15.47009766 31.72644531 15.47009766 31.73828125 17.109375 C31.73570312 18.13160156 31.733125 19.15382813 31.73046875 20.20703125 C31.72821289 21.14740234 31.72595703 22.08777344 31.72363281 23.05664062 C31.46484375 25.36328125 31.46484375 25.36328125 29.46484375 27.36328125 C26.5473524 27.56326449 23.72682446 27.64303012 20.80859375 27.62890625 C19.95052124 27.6308197 19.09244873 27.63273315 18.20837402 27.63470459 C16.39265653 27.63606669 14.5769293 27.63236853 12.76123047 27.62402344 C9.97601525 27.61332416 7.19144507 27.62391778 4.40625 27.63671875 C2.64452982 27.63539716 0.88281004 27.63283478 -0.87890625 27.62890625 C-2.13362732 27.63497894 -2.13362732 27.63497894 -3.41369629 27.64117432 C-9.30523791 27.59319959 -9.30523791 27.59319959 -11.53515625 25.36328125 C-11.98810958 21.73683621 -11.85920427 18.07726387 -11.84765625 14.42578125 C-11.86376953 13.41064453 -11.87988281 12.39550781 -11.89648438 11.34960938 C-11.89712891 10.37572266 -11.89777344 9.40183594 -11.8984375 8.3984375 C-11.90141846 7.50519775 -11.90439941 6.61195801 -11.9074707 5.69165039 C-10.87686967 -0.75349191 -5.35265245 -0.06090165 0 0 Z " fill="#A04D15" transform="translate(325.53515625,391.63671875)"/>
<path d="M0 0 C2.37570543 -0.0816082 4.74855841 -0.14077222 7.125 -0.1875 C7.79015625 -0.21263672 8.4553125 -0.23777344 9.140625 -0.26367188 C13.87807306 -0.33334023 17.05448078 0.36393571 21 3 C25.15683905 7.79526143 24.40555744 13.44032121 24.37109375 19.43359375 C24.38847403 21.71419422 24.40605843 23.99479315 24.42382812 26.27539062 C24.43390521 29.8611128 24.43749561 33.44673494 24.43579102 37.0324707 C24.43936241 40.49981399 24.46670918 43.9663875 24.49609375 47.43359375 C24.48791122 48.50250351 24.4797287 49.57141327 24.47129822 50.67271423 C24.53303582 56.85208179 25.0526947 60.20999555 29 65 C29.33 65.99 29.66 66.98 30 68 C26.23885037 69.88057482 22.08532555 69.65340782 18 69 C13.71680888 66.60484577 10.90421896 63.5075514 9 59 C8.74171448 56.6544342 8.74171448 56.6544342 8.72875977 54.03540039 C8.71857315 53.05080338 8.70838654 52.06620636 8.69789124 51.05177307 C8.69575119 49.99441452 8.69361115 48.93705597 8.69140625 47.84765625 C8.6662504 45.60481506 8.64085231 43.36197658 8.61523438 41.11914062 C8.58646989 37.58602575 8.56244937 34.05295778 8.54370117 30.51977539 C8.52205792 27.10799087 8.48262303 23.6967522 8.44140625 20.28515625 C8.44123253 18.70215477 8.44123253 18.70215477 8.4410553 17.08717346 C8.41412362 10.02794747 8.41412362 10.02794747 5 4 C2.42816686 1.72462308 2.42816686 1.72462308 0 0 Z " fill="#FBC43A" transform="translate(175,120)"/>
<path d="M0 0 C0.98782471 -0.01591187 1.97564941 -0.03182373 2.9934082 -0.04821777 C4.05390381 -0.04841919 5.11439941 -0.04862061 6.20703125 -0.04882812 C7.30168701 -0.05644165 8.39634277 -0.06405518 9.52416992 -0.07189941 C11.83737914 -0.08269956 14.15063713 -0.08555388 16.46386719 -0.08105469 C20.00668351 -0.08008165 23.54733976 -0.12172202 27.08984375 -0.16601562 C29.33723506 -0.171222 31.58463391 -0.17391083 33.83203125 -0.17382812 C34.89252686 -0.19022339 35.95302246 -0.20661865 37.0456543 -0.22351074 C44.34724321 -0.15472895 44.34724321 -0.15472895 47.72265625 2.73046875 C49.49266233 6.40109882 49.09751058 8.53919628 48.01953125 12.41992188 C46.38057096 14.61933272 45.51857571 15.33147235 42.79421997 15.81433105 C41.9277182 15.82275024 41.06121643 15.83116943 40.16845703 15.83984375 C38.69144821 15.86371155 38.69144821 15.86371155 37.18460083 15.88806152 C35.59082108 15.88836365 35.59082108 15.88836365 33.96484375 15.88867188 C32.3242952 15.90009216 32.3242952 15.90009216 30.65060425 15.91174316 C28.33561487 15.9225548 26.02057667 15.92539298 23.70556641 15.92089844 C20.16486028 15.91992745 16.62632984 15.96151208 13.0859375 16.00585938 C10.83724411 16.01106723 8.58854317 16.01375455 6.33984375 16.01367188 C4.75213669 16.03826477 4.75213669 16.03826477 3.13235474 16.06335449 C-4.18358896 15.99465669 -4.18358896 15.99465669 -8.18408203 13.109375 C-9.98046875 10.41992188 -9.98046875 10.41992188 -10.04296875 6.79492188 C-8.3389927 1.38229206 -5.50047453 0.05339522 0 0 Z " fill="#A04D15" transform="translate(315.98046875,446.580078125)"/>
<path d="M0 0 C7.72286742 -0.10151824 15.44556239 -0.17151568 23.16894531 -0.21972656 C25.79563833 -0.23982715 28.42228669 -0.26711204 31.04882812 -0.30175781 C34.82693512 -0.35034164 38.60444984 -0.37298509 42.3828125 -0.390625 C43.55490265 -0.41127014 44.7269928 -0.43191528 45.93460083 -0.45318604 C52.2569712 -0.45492144 56.24296619 -0.34706508 61 4 C63.70511237 7.51664608 64.13071395 9.65013018 64 14 C56.13477827 14.1268844 48.26982095 14.21438779 40.40380859 14.2746582 C37.72819073 14.29696178 35.05391007 14.333886 32.37841797 14.37719727 C28.53075234 14.4379198 24.68399523 14.4662284 20.8359375 14.48828125 C19.64197357 14.51408768 18.44800964 14.5398941 17.21786499 14.56648254 C7.9462422 14.56960688 7.9462422 14.56960688 4.28369141 11.62963867 C0.82863031 7.65118421 0 5.2594609 0 0 Z " fill="#7E4435" transform="translate(120,120)"/>
<path d="M0 0 C3 2.5 3 2.5 5 5 C5.33 5.33 5.66 5.66 6 6 C6.12314426 8.6786736 6.18612002 11.33554218 6.2109375 14.015625 C6.23901733 15.67579092 6.26768187 17.33594703 6.296875 18.99609375 C6.33807452 21.62060151 6.37494895 24.24492844 6.40136719 26.86962891 C6.42903973 29.39784945 6.47492424 31.92522981 6.5234375 34.453125 C6.52669037 35.23351135 6.52994324 36.01389771 6.53329468 36.81793213 C6.6369537 41.43047502 7.35118118 44.23306471 10 48 C10 48.66 10 49.32 10 50 C11.485 50.495 11.485 50.495 13 51 C12.67 51.66 12.34 52.32 12 53 C7.29477445 54.56840852 3.47351184 54.54895539 -1.1875 52.8125 C-5.22593343 50.20995401 -7.48039779 47.55880664 -9 43 C-9.10625469 40.34070656 -9.1610746 37.70280943 -9.17578125 35.04296875 C-9.19898302 33.43944005 -9.2231005 31.83592438 -9.24804688 30.23242188 C-9.28311642 27.71109325 -9.31248537 25.19024372 -9.32592773 22.66870117 C-9.34146155 20.23037031 -9.38170369 17.7934294 -9.42578125 15.35546875 C-9.42387283 14.60839157 -9.42196442 13.86131439 -9.41999817 13.09159851 C-9.54439321 7.73129269 -10.77223187 5.07192277 -14 1 C-9.3697542 -1.53916705 -4.97737753 -1.43370114 0 0 Z " fill="#FAC43B" transform="translate(301,121)"/>
<path d="M0 0 C1.32 2.97 2.64 5.94 4 9 C3.20980469 9.55945313 2.41960937 10.11890625 1.60546875 10.6953125 C-6.20833883 16.24406015 -13.95509965 21.87758933 -21.6472168 27.59399414 C-25.7841352 30.66135762 -29.9461782 33.67639721 -34.1796875 36.609375 C-35.00952148 37.18969482 -35.83935547 37.77001465 -36.69433594 38.36791992 C-38.28050019 39.47374214 -39.87463329 40.56824575 -41.47753906 41.6496582 C-45.61078773 44.47854224 -45.61078773 44.47854224 -48.1171875 48.68359375 C-48.1840636 51.27851913 -48.1840636 51.27851913 -46 54 C-48.62527189 54.05382106 -51.24944713 54.09358313 -53.875 54.125 C-54.62136719 54.14175781 -55.36773437 54.15851563 -56.13671875 54.17578125 C-58.09194461 54.1933959 -60.04742021 54.10320189 -62 54 C-64 52 -64 52 -64.4609375 49.16015625 C-64 46 -64 46 -61.7890625 43.68359375 C-60.74492187 42.94238281 -59.70078125 42.20117188 -58.625 41.4375 C-58.0470166 41.01823242 -57.4690332 40.59896484 -56.87353516 40.16699219 C-55.60347985 39.249081 -54.32692433 38.34011474 -53.04492188 37.43896484 C-50.94823759 35.96357597 -48.87094661 34.46401855 -46.796875 32.95703125 C-43.79223287 30.77571208 -40.78138735 28.60341748 -37.765625 26.4375 C-32.86093931 22.90807357 -27.98885184 19.33542295 -23.125 15.75 C-22.332146 15.16621582 -21.53929199 14.58243164 -20.72241211 13.98095703 C-17.19978176 11.38215646 -13.68741588 8.77236465 -10.20703125 6.1171875 C-9.36664307 5.47765137 -9.36664307 5.47765137 -8.50927734 4.82519531 C-7.05346729 3.7135516 -5.60268153 2.59533638 -4.15234375 1.4765625 C-2 0 -2 0 0 0 Z " fill="#FCC53C" transform="translate(214,66)"/>
<path d="M0 0 C9.9 0 19.8 0 30 0 C30 7.59 30 15.18 30 23 C20.1 23 10.2 23 0 23 C0 15.41 0 7.82 0 0 Z " fill="#F87C21" transform="translate(382,462)"/>
<path d="M0 0 C4.8125 3.9375 4.8125 3.9375 6.0625 7.6875 C6.14271999 9.09574893 6.17015977 10.50747231 6.16015625 11.91796875 C6.15765869 12.64137451 6.15516113 13.36478027 6.15258789 14.11010742 C6.14348389 15.02252197 6.13437988 15.93493652 6.125 16.875 C6.104375 19.783125 6.08375 22.69125 6.0625 25.6875 C-2.8475 25.6875 -11.7575 25.6875 -20.9375 25.6875 C-21.02 22.490625 -21.1025 19.29375 -21.1875 16 C-21.22391602 15.00137939 -21.26033203 14.00275879 -21.29785156 12.97387695 C-21.34989512 8.8082941 -21.31219264 6.32829073 -19.171875 2.66796875 C-13.66881519 -2.20974335 -6.76253237 -3.02155702 0 0 Z " fill="#6F372C" transform="translate(233.9375,121.3125)"/>
<path d="M0 0 C4.03309859 1.4839452 6.58583036 3.37874554 9 7 C9.27124023 9.43261719 9.27124023 9.43261719 9.30859375 12.296875 C9.33373047 13.3384375 9.35886719 14.38 9.38476562 15.453125 C9.41967106 17.63536126 9.45097405 19.81765838 9.47851562 22 C9.68090179 30.01646657 10.70232186 35.69324031 16 42 C12.00067182 43.99966409 7.3365954 43.63914009 3 43 C-1.32221242 40.65561976 -4.10929866 37.51705918 -6 33 C-6.27124023 30.42211914 -6.27124023 30.42211914 -6.30859375 27.53515625 C-6.33373047 26.48779297 -6.35886719 25.44042969 -6.38476562 24.36132812 C-6.4198585 22.16607369 -6.45112249 19.97075464 -6.47851562 17.77539062 C-6.50494141 16.72673828 -6.53136719 15.67808594 -6.55859375 14.59765625 C-6.57204834 13.64383057 -6.58550293 12.69000488 -6.59936523 11.70727539 C-7.07234901 8.51110413 -8.18812965 6.65148382 -10 4 C-10.66 3.01 -11.32 2.02 -12 1 C-8.28466784 -0.85766608 -4.05428058 -0.44845555 0 0 Z " fill="#FBC43B" transform="translate(246,120)"/>
<path d="M0 0 C0.72960937 0.02964844 1.45921875 0.05929688 2.2109375 0.08984375 C6.18244296 1.69001342 8.54938977 4.35013973 10.625 8.0625 C11.3072488 11.43009965 11.20109677 14.58283794 11 18 C10.87625 20.990625 10.7525 23.98125 10.625 27.0625 C3.035 27.0625 -4.555 27.0625 -12.375 27.0625 C-12.4575 23.865625 -12.54 20.66875 -12.625 17.375 C-12.66141602 16.37637939 -12.69783203 15.37775879 -12.73535156 14.34887695 C-12.78739512 10.1832941 -12.74969264 7.70329073 -10.609375 4.04296875 C-7.12930857 0.95836441 -4.69034476 -0.33737568 0 0 Z " fill="#6F372C" transform="translate(281.375,119.9375)"/>
<path d="M0 0 C3.25617858 1.61845562 5.22833816 3.94773385 7.375 6.875 C8.73624093 11.50321917 8.54963256 15.46416166 6.375 19.75 C4.15015729 23.21173078 1.96781133 24.70283091 -2 26 C-6.41738238 26.70678118 -9.26330566 26.36139722 -13.3125 24.375 C-17.35070586 20.80635297 -18.77134963 17.82920294 -19.4375 12.5 C-18.82479534 7.59836269 -16.82211601 4.6564691 -13.1953125 1.359375 C-9.12383003 -1.16175649 -4.60966333 -0.72046836 0 0 Z " fill="#F64746" transform="translate(308,76)"/>
<path d="M0 0 C0.33 0.66 0.66 1.32 1 2 C2.78860482 2.6126798 2.78860482 2.6126798 4.875 3 C7.95332961 3.63611239 9.2683953 4.1789302 12 6 C11.01773438 6.36480469 10.03546875 6.72960937 9.0234375 7.10546875 C4.332276 9.11849356 0.59443346 12.1503484 -3.375 15.3125 C-4.87363674 16.47961719 -6.37362383 17.64500267 -7.875 18.80859375 C-8.5865625 19.36144043 -9.298125 19.91428711 -10.03125 20.48388672 C-12.44060906 22.33930831 -14.87866728 24.1382422 -17.375 25.875 C-18.02210938 26.32617188 -18.66921875 26.77734375 -19.3359375 27.2421875 C-21 28 -21 28 -24 27 C-25.84499398 25.12382302 -27.3683599 23.07262391 -29 21 C-28.16339844 20.40574219 -27.32679688 19.81148437 -26.46484375 19.19921875 C-17.58389779 12.87924183 -8.77578423 6.46507354 0 0 Z " fill="#FCC53C" transform="translate(282,15)"/>
<path d="M0 0 C2.9375 1.9375 2.9375 1.9375 5 5 C5.55153318 10.92053983 3.46137467 16.71260256 1 22 C-0.8125 24.0625 -0.8125 24.0625 -3 25 C-6.80413487 25 -8.49073454 24.41785884 -11.4375 22 C-13.66131895 17.73026761 -13.10699117 14.5849847 -12 10 C-9.86236753 3.26321888 -7.72030028 -1.23524805 0 0 Z " fill="#95E073" transform="translate(294,35)"/>
<path d="M0 0 C2.9375 1.3125 2.9375 1.3125 5 3 C5.5775 3.391875 6.155 3.78375 6.75 4.1875 C8 6 8 6 9 14 C0.09 14 -8.82 14 -18 14 C-18 7 -18 7 -16.25 4.1875 C-11.37425362 -0.55280898 -6.55093569 -0.70188597 0 0 Z " fill="#7F4535" transform="translate(231,120)"/>
<path d="M0 0 C9.38020352 3.76040703 9.38020352 3.76040703 11 7 C11.54035146 11.05263598 11.34199395 12.53730231 8.875 15.875 C6 18 6 18 3.1875 18.5625 C-2.2056695 17.61076421 -7.4693172 15.32241166 -11 11 C-11.49573337 7.10495209 -11.58016848 4.90506283 -9.4375 1.5625 C-5.93281642 -0.68409204 -4.13261692 -0.599896 0 0 Z " fill="#94E074" transform="translate(200,99)"/>
<path d="M0 0 C3.84479755 1.11071929 5.44232531 2.60579307 7.8125 5.8125 C8.5 8.6875 8.5 8.6875 7.8125 11.8125 C5.30608312 15.55646022 2.5579077 18.31556154 -1.1875 20.8125 C-5.24230401 21.42953539 -6.73119977 21.13288101 -10.125 18.75 C-12.1875 15.8125 -12.1875 15.8125 -12.5 12.5 C-10.37172093 6.52054927 -6.29810614 1.60539961 0 0 Z " fill="#95E073" transform="translate(257.1875,97.1875)"/>
<path d="M0 0 C2.64630863 1.96182554 4.57531718 4.02213356 6 7 C6 8.98 6 10.96 6 13 C-1.59 13 -9.18 13 -17 13 C-17 6 -17 6 -15.25 3.1875 C-10.57788509 -1.35483394 -6.15518189 -1.99857374 0 0 Z " fill="#804536" transform="translate(286,121)"/>
<path d="M0 0 C0.66 0.33 1.32 0.66 2 1 C1.05125 1.9075 0.1025 2.815 -0.875 3.75 C-3.14549867 6.00978877 -4.83296506 7.96570916 -6 11 C-6.375 8.3125 -6.375 8.3125 -6 5 C-4.176017 2.93601924 -2.27236161 1.60958947 0 0 Z " fill="#FCCA48" transform="translate(156,107)"/>
</svg>
